<?xml version="1.0" encoding="UTF-8" standalone="no"?>
<!-- Created with Inkscape (http://www.inkscape.org/) -->
<svg
   xmlns:dc="http://purl.org/dc/elements/1.1/"
   xmlns:cc="http://creativecommons.org/ns#"
   xmlns:rdf="http://www.w3.org/1999/02/22-rdf-syntax-ns#"
   xmlns:svg="http://www.w3.org/2000/svg"
   xmlns="http://www.w3.org/2000/svg"
   xmlns:xlink="http://www.w3.org/1999/xlink"
   xmlns:sodipodi="http://sodipodi.sourceforge.net/DTD/sodipodi-0.dtd"
   xmlns:inkscape="http://www.inkscape.org/namespaces/inkscape"
   width="128"
   height="128"
   id="svg2"
   sodipodi:version="0.32"
   inkscape:version="0.45+devel"
   sodipodi:docname="borg.svg"
   inkscape:output_extension="org.inkscape.output.svg.inkscape"
   version="1.0"
   inkscape:export-filename="/home/nicu/Desktop/pacman/pacman.png"
   inkscape:export-xdpi="90"
   inkscape:export-ydpi="90">
  <defs
     id="defs4">
    <inkscape:perspective
       sodipodi:type="inkscape:persp3d"
       inkscape:vp_x="-50 : 600 : 1"
       inkscape:vp_y="0 : 1000 : 0"
       inkscape:vp_z="700 : 600 : 1"
       inkscape:persp3d-origin="300 : 400 : 1"
       id="perspective67" />
    <linearGradient
       id="linearGradient4072">
      <stop
         style="stop-color:#000000;stop-opacity:1;"
         offset="0"
         id="stop4074" />
      <stop
         style="stop-color:#000000;stop-opacity:0;"
         offset="1"
         id="stop4076" />
    </linearGradient>
    <linearGradient
       id="linearGradient2315">
      <stop
         style="stop-color:#000000;stop-opacity:0;"
         offset="0"
         id="stop2317" />
      <stop
         style="stop-color:#000000;stop-opacity:0.57195574;"
         offset="1"
         id="stop2319" />
    </linearGradient>
    <radialGradient
       inkscape:collect="always"
       xlink:href="#linearGradient2315"
       id="radialGradient2365"
       gradientUnits="userSpaceOnUse"
       gradientTransform="matrix(0.387095,1.5161279,-1.4234088,0.3634221,726.51481,-93.106615)"
       cx="233.49998"
       cy="409.86218"
       fx="233.49998"
       fy="409.86218"
       r="15.5" />
    <radialGradient
       inkscape:collect="always"
       xlink:href="#linearGradient2315"
       id="radialGradient2367"
       gradientUnits="userSpaceOnUse"
       gradientTransform="matrix(0.387095,1.5161279,-1.4234088,0.3634221,726.51481,-93.106615)"
       cx="233.49998"
       cy="409.86218"
       fx="233.49998"
       fy="409.86218"
       r="15.5" />
    <filter
       inkscape:collect="always"
       id="filter3730"
       x="-0.34801543"
       width="1.6960309"
       y="-0.34084839"
       height="1.6816968">
      <feGaussianBlur
         inkscape:collect="always"
         stdDeviation="5.4650567"
         id="feGaussianBlur3732" />
    </filter>
    <filter
       inkscape:collect="always"
       id="filter4065"
       x="-0.51975077"
       width="2.0395014"
       y="-0.45338511"
       height="1.9067702">
      <feGaussianBlur
         inkscape:collect="always"
         stdDeviation="4.1511594"
         id="feGaussianBlur4067" />
    </filter>
    <radialGradient
       inkscape:collect="always"
       xlink:href="#linearGradient4072"
       id="radialGradient4078"
       cx="210.88904"
       cy="506.35242"
       fx="210.88904"
       fy="506.35242"
       r="68"
       gradientTransform="matrix(1.4028467,1.6438735e-6,-1.4520791e-7,0.2058824,-89.844917,403.11278)"
       gradientUnits="userSpaceOnUse" />
    <filter
       inkscape:collect="always"
       id="filter4112"
       x="-0.070020586"
       width="1.1400412"
       y="-0.34009999"
       height="1.6802">
      <feGaussianBlur
         inkscape:collect="always"
         stdDeviation="3.9678331"
         id="feGaussianBlur4114" />
    </filter>
    <radialGradient
       inkscape:collect="always"
       xlink:href="#linearGradient2315"
       id="radialGradient2428"
       gradientUnits="userSpaceOnUse"
       gradientTransform="matrix(0.510273,1.0071643,-0.9651122,0.4889677,650.88519,-406.13978)"
       cx="216.99271"
       cy="497.9592"
       fx="216.99271"
       fy="497.9592"
       r="65" />
    <radialGradient
       inkscape:collect="always"
       xlink:href="#linearGradient2315"
       id="radialGradient3214"
       cx="23.480259"
       cy="51.114536"
       fx="23.480259"
       fy="51.114536"
       r="31.215138"
       gradientTransform="matrix(1.2671389,0.2999527,-0.2223809,0.9394395,5.1830524,-2.9462976)"
       gradientUnits="userSpaceOnUse" />
    <radialGradient
       inkscape:collect="always"
       xlink:href="#linearGradient2315"
       id="radialGradient3225"
       cx="261.30423"
       cy="74.868156"
       fx="261.30423"
       fy="74.868156"
       r="5.4267108"
       gradientTransform="matrix(1.2544153,0.4699599,-0.2656339,0.709029,-46.559534,-100.19401)"
       gradientUnits="userSpaceOnUse" />
    <radialGradient
       inkscape:collect="always"
       xlink:href="#linearGradient2315"
       id="radialGradient3238"
       cx="276.0408"
       cy="80.450935"
       fx="276.0408"
       fy="80.450935"
       r="15.17075"
       gradientTransform="matrix(1.0267363,0.3567875,-7.0533119e-2,0.2029749,-1.7058541,-32.4087)"
       gradientUnits="userSpaceOnUse" />
    <filter
       inkscape:collect="always"
       id="filter3252">
      <feGaussianBlur
         inkscape:collect="always"
         stdDeviation="0.21751884"
         id="feGaussianBlur3254" />
    </filter>
    <radialGradient
       inkscape:collect="always"
       xlink:href="#linearGradient2315"
       id="radialGradient3278"
       cx="244.43129"
       cy="71.251015"
       fx="244.43129"
       fy="71.251015"
       r="10.74107"
       gradientTransform="matrix(1.9045758,0.1724787,-0.1322283,1.4601167,-211.42646,-75.899465)"
       gradientUnits="userSpaceOnUse" />
    <radialGradient
       inkscape:collect="always"
       xlink:href="#linearGradient2315"
       id="radialGradient3280"
       cx="271.97729"
       cy="38.64098"
       fx="271.97729"
       fy="38.64098"
       r="13.677232"
       gradientTransform="matrix(1.4010076,5.8976933e-2,-9.3381808e-2,2.2183016,-105.45658,-65.863626)"
       gradientUnits="userSpaceOnUse" />
    <radialGradient
       inkscape:collect="always"
       xlink:href="#linearGradient4072"
       id="radialGradient3310"
       gradientUnits="userSpaceOnUse"
       gradientTransform="matrix(1.4028467,1.6438735e-6,-1.4520791e-7,0.2058824,-89.844917,403.11278)"
       cx="210.88904"
       cy="506.35242"
       fx="210.88904"
       fy="506.35242"
       r="68" />
    <radialGradient
       inkscape:collect="always"
       xlink:href="#linearGradient2315"
       id="radialGradient3312"
       gradientUnits="userSpaceOnUse"
       gradientTransform="matrix(0.510273,1.0071643,-0.9651122,0.4889677,650.88519,-406.13978)"
       cx="216.99271"
       cy="497.9592"
       fx="216.99271"
       fy="497.9592"
       r="65" />
    <radialGradient
       inkscape:collect="always"
       xlink:href="#linearGradient2315"
       id="radialGradient3314"
       gradientUnits="userSpaceOnUse"
       gradientTransform="matrix(0.387095,1.5161279,-1.4234088,0.3634221,726.51481,-93.106615)"
       cx="233.49998"
       cy="409.86218"
       fx="233.49998"
       fy="409.86218"
       r="15.5" />
    <radialGradient
       inkscape:collect="always"
       xlink:href="#linearGradient2315"
       id="radialGradient3316"
       gradientUnits="userSpaceOnUse"
       gradientTransform="matrix(1.2671389,0.2999527,-0.2223809,0.9394395,5.1830524,-2.9462976)"
       cx="23.480259"
       cy="51.114536"
       fx="23.480259"
       fy="51.114536"
       r="31.215138" />
    <radialGradient
       inkscape:collect="always"
       xlink:href="#linearGradient2315"
       id="radialGradient3318"
       gradientUnits="userSpaceOnUse"
       gradientTransform="matrix(0.387095,1.5161279,-1.4234088,0.3634221,726.51481,-93.106615)"
       cx="233.49998"
       cy="409.86218"
       fx="233.49998"
       fy="409.86218"
       r="15.5" />
    <radialGradient
       inkscape:collect="always"
       xlink:href="#linearGradient2315"
       id="radialGradient3320"
       gradientUnits="userSpaceOnUse"
       gradientTransform="matrix(1.0267363,0.3567875,-7.0533119e-2,0.2029749,-1.7058541,-32.4087)"
       cx="276.0408"
       cy="80.450935"
       fx="276.0408"
       fy="80.450935"
       r="15.17075" />
    <radialGradient
       inkscape:collect="always"
       xlink:href="#linearGradient2315"
       id="radialGradient3322"
       gradientUnits="userSpaceOnUse"
       gradientTransform="matrix(1.2544153,0.4699599,-0.2656339,0.709029,-46.559534,-100.19401)"
       cx="261.30423"
       cy="74.868156"
       fx="261.30423"
       fy="74.868156"
       r="5.4267108" />
    <radialGradient
       inkscape:collect="always"
       xlink:href="#linearGradient2315"
       id="radialGradient3324"
       gradientUnits="userSpaceOnUse"
       gradientTransform="matrix(1.9045758,0.1724787,-0.1322283,1.4601167,-211.42646,-75.899465)"
       cx="244.43129"
       cy="71.251015"
       fx="244.43129"
       fy="71.251015"
       r="10.74107" />
    <radialGradient
       inkscape:collect="always"
       xlink:href="#linearGradient2315"
       id="radialGradient3326"
       gradientUnits="userSpaceOnUse"
       gradientTransform="matrix(1.4010076,5.8976933e-2,-9.3381808e-2,2.2183016,-105.45658,-65.863626)"
       cx="271.97729"
       cy="38.64098"
       fx="271.97729"
       fy="38.64098"
       r="13.677232" />
  </defs>
  <sodipodi:namedview
     id="base"
     pagecolor="#ffffff"
     bordercolor="#666666"
     borderopacity="1.0"
     gridtolerance="10000"
     guidetolerance="10"
     objecttolerance="10"
     inkscape:pageopacity="0.0"
     inkscape:pageshadow="2"
     inkscape:zoom="1"
     inkscape:cx="64"
     inkscape:cy="64"
     inkscape:document-units="px"
     inkscape:current-layer="g2357"
     showgrid="false"
     inkscape:window-width="937"
     inkscape:window-height="717"
     inkscape:window-x="674"
     inkscape:window-y="205"
     showguides="true"
     inkscape:guide-bbox="true"
     height="640px"
     width="128px">
    <inkscape:grid
       type="xygrid"
       id="grid3194"
       originx="0px"
       originy="0px"
       spacingx="0px"
       spacingy="0px" />
  </sodipodi:namedview>
  <metadata
     id="metadata7">
    <rdf:RDF>
      <cc:Work
         rdf:about="">
        <dc:format>image/svg+xml</dc:format>
        <dc:type
           rdf:resource="http://purl.org/dc/dcmitype/StillImage" />
        <dc:title></dc:title>
        <dc:date></dc:date>
        <dc:creator>
          <cc:Agent>
            <dc:title></dc:title>
          </cc:Agent>
        </dc:creator>
        <dc:rights>
          <cc:Agent>
            <dc:title></dc:title>
          </cc:Agent>
        </dc:rights>
        <dc:publisher>
          <cc:Agent>
            <dc:title></dc:title>
          </cc:Agent>
        </dc:publisher>
        <dc:identifier></dc:identifier>
        <dc:source></dc:source>
        <dc:relation></dc:relation>
        <dc:language></dc:language>
        <dc:subject>
          <rdf:Bag />
        </dc:subject>
        <dc:coverage></dc:coverage>
        <dc:description></dc:description>
        <dc:contributor>
          <cc:Agent>
            <dc:title></dc:title>
          </cc:Agent>
        </dc:contributor>
        <cc:license
           rdf:resource="" />
      </cc:Work>
    </rdf:RDF>
  </metadata>
  <g
     inkscape:label="Layer 1"
     inkscape:groupmode="layer"
     id="layer1"
     transform="translate(-233.42021,-11.73452)">
    <g
       id="g3282"
       transform="translate(2.0724069,0)">
      <path
         id="path4069"
         d="M 274,507.36218 C 274,515.09018 243.536,521.36218 206,521.36218 C 168.464,521.36218 138,515.09018 138,507.36218 C 138,499.63418 168.464,493.36218 206,493.36218 C 243.536,493.36218 274,499.63418 274,507.36218 z"
         style="fill:url(#radialGradient3310);fill-opacity:1;stroke:none;stroke-width:4;stroke-linecap:round;stroke-miterlimit:4;stroke-opacity:1;filter:url(#filter4112)"
         transform="matrix(0.7547997,0,0,0.6110284,141.93148,-182.83256)" />
      <path
         sodipodi:nodetypes="cccsssccssc"
         id="path2327"
         d="M 343.75653,83.695264 C 343.75653,87.147584 343.37835,110.47237 342.66118,113.70991 C 340.89741,122.59166 335.18797,127.70528 326.61412,129.65156 C 322.6291,130.39496 318.09629,114.09405 313.1769,114.0032 C 308.25751,113.91235 302.95155,130.03158 297.42022,130.03158 C 291.86295,130.03158 286.53318,113.90323 281.59437,113.9781 C 276.65557,114.05298 272.10773,130.33108 268.11436,129.56029 C 259.07252,128.05975 254.34488,121.87473 252.11552,113.41774 C 251.4397,110.2701 251.0839,87.043854 251.0839,83.695264 C 251.0839,58.117618 271.84257,37.358948 297.42022,37.358948 C 322.99786,37.358948 343.75653,58.117618 343.75653,83.695264 z"
         style="fill:#7aa27a;fill-opacity:1;stroke:none;stroke-width:4;stroke-linecap:round;stroke-miterlimit:4;stroke-opacity:1" />
      <path
         style="fill:url(#radialGradient3312);fill-opacity:1;stroke:none;stroke-width:4;stroke-linecap:round;stroke-miterlimit:4;stroke-opacity:1"
         d="M 343.75653,83.695264 C 343.75653,87.147584 343.37835,110.47237 342.66118,113.70991 C 340.89741,122.59166 335.18797,127.70528 326.61412,129.65156 C 322.6291,130.39496 318.09629,114.09405 313.1769,114.0032 C 308.25751,113.91235 302.95155,130.03158 297.42022,130.03158 C 291.86295,130.03158 286.53318,113.90323 281.59437,113.9781 C 276.65557,114.05298 272.10773,130.33108 268.11436,129.56029 C 259.07252,128.05975 254.34488,121.87473 252.11552,113.41774 C 251.4397,110.2701 251.0839,87.043854 251.0839,83.695264 C 251.0839,58.117618 271.84257,37.358948 297.42022,37.358948 C 322.99786,37.358948 343.75653,58.117618 343.75653,83.695264 z"
         id="path2340"
         sodipodi:nodetypes="cccsssccssc" />
      <g
         transform="matrix(0.7128664,0,0,0.7128664,151.99547,-227.37268)"
         id="g2352">
        <path
           sodipodi:type="arc"
           style="opacity:1;fill:#ffffff;fill-opacity:1;stroke:none;stroke-width:4;stroke-linecap:round;stroke-miterlimit:4;stroke-dasharray:none;stroke-opacity:1"
           id="path2344"
           sodipodi:cx="239.5"
           sodipodi:cy="417.86218"
           sodipodi:rx="15.5"
           sodipodi:ry="15.5"
           d="M 255,417.86218 A 15.5,15.5 0 1 1 224,417.86218 A 15.5,15.5 0 1 1 255,417.86218 z"
           transform="translate(4,7)" />
        <path
           transform="translate(4,7)"
           d="M 255,417.86218 A 15.5,15.5 0 1 1 224,417.86218 A 15.5,15.5 0 1 1 255,417.86218 z"
           sodipodi:ry="15.5"
           sodipodi:rx="15.5"
           sodipodi:cy="417.86218"
           sodipodi:cx="239.5"
           id="path2346"
           style="opacity:1;fill:url(#radialGradient3314);fill-opacity:1;stroke:none;stroke-width:4;stroke-linecap:round;stroke-miterlimit:4;stroke-dasharray:none;stroke-opacity:1"
           sodipodi:type="arc" />
        <path
           sodipodi:type="arc"
           style="opacity:1;fill:#000000;fill-opacity:1;stroke:none;stroke-width:4;stroke-linecap:round;stroke-miterlimit:4;stroke-dasharray:none;stroke-opacity:1"
           id="path2350"
           sodipodi:cx="239.5"
           sodipodi:cy="417.86218"
           sodipodi:rx="15.5"
           sodipodi:ry="15.5"
           d="M 255,417.86218 A 15.5,15.5 0 1 1 224,417.86218 A 15.5,15.5 0 1 1 255,417.86218 z"
           transform="matrix(0.6129032,0,0,0.6129032,101.70968,169.7531)" />
      </g>
      <path
         sodipodi:nodetypes="ccccccc"
         transform="translate(233.42021,11.73452)"
         id="path3202"
         d="M 24.615385,44.307692 C 16.852511,51.532367 16.973331,61.910519 15.805668,71.773279 L 15.805668,86.54251 C 27.447796,81.891264 31.7684,94.323575 39.643725,98.461538 C 39.115182,83.605792 30.87191,61.847393 67.88664,80.582996 C 86.189633,63.571322 75.31444,57.695007 72.032389,51.303644 C 72.032389,51.303644 37.82996,32.906883 24.615385,44.307692 z"
         style="fill:#808080;fill-rule:evenodd;stroke:none;stroke-width:1px;stroke-linecap:butt;stroke-linejoin:miter;stroke-opacity:1" />
      <path
         style="fill:#666666;fill-rule:evenodd;stroke:none;stroke-width:1px;stroke-linecap:butt;stroke-linejoin:miter;stroke-opacity:1"
         d="M 24.951157,46.217443 C 17.541836,54.326002 18.762873,59.743201 17.59521,69.605961 L 17.556562,83.009286 C 26.816857,81.289527 31.723944,86.429948 36.749067,92.122567 C 36.938195,78.087017 32.064261,62.099612 66.591093,77.991903 C 82.043884,65.903306 74.537112,56.140351 69.182186,52.340081 C 69.182186,52.340081 39.680217,35.187907 24.951157,46.217443 z"
         id="path3204"
         transform="translate(233.42021,11.73452)"
         sodipodi:nodetypes="ccccccc" />
      <path
         sodipodi:nodetypes="ccccccc"
         transform="translate(233.42021,11.73452)"
         id="path3216"
         d="M 26.895701,48.338763 C 19.48638,56.447322 20.884193,59.212871 19.71653,69.075631 L 20.208212,80.357636 C 29.468507,78.637877 29.956177,81.833754 34.9813,87.526373 C 35.170428,73.490823 34.715911,61.392505 63.585889,75.340253 C 76.740583,63.251656 73.476452,58.261671 68.121526,54.461401 C 68.121526,54.461401 41.624761,37.309227 26.895701,48.338763 z"
         style="fill:#4d4d4d;fill-rule:evenodd;stroke:none;stroke-width:1px;stroke-linecap:butt;stroke-linejoin:miter;stroke-opacity:1" />
      <path
         sodipodi:type="arc"
         style="opacity:1;fill:#999999;fill-opacity:1;stroke:none;stroke-width:4;stroke-linecap:round;stroke-miterlimit:4;stroke-dasharray:none;stroke-opacity:1"
         id="path3264"
         sodipodi:cx="28.726213"
         sodipodi:cy="59.145477"
         sodipodi:rx="3.4471455"
         sodipodi:ry="4.5078058"
         d="M 32.173359,59.145477 A 3.4471455,4.5078058 0 1 1 25.279068,59.145477 A 3.4471455,4.5078058 0 1 1 32.173359,59.145477 z"
         transform="matrix(0.5302113,0.8478656,-0.8478656,0.5302113,310.45424,9.3695836)" />
      <path
         transform="translate(233.59699,11.380967)"
         d="M 32.173359,59.145477 A 3.4471455,4.5078058 0 1 1 25.279068,59.145477 A 3.4471455,4.5078058 0 1 1 32.173359,59.145477 z"
         sodipodi:ry="4.5078058"
         sodipodi:rx="3.4471455"
         sodipodi:cy="59.145477"
         sodipodi:cx="28.726213"
         id="path3218"
         style="opacity:1;fill:#999999;fill-opacity:1;stroke:none;stroke-width:4;stroke-linecap:round;stroke-miterlimit:4;stroke-dasharray:none;stroke-opacity:1"
         sodipodi:type="arc" />
      <path
         style="fill:url(#radialGradient3316);fill-rule:evenodd;stroke:none;stroke-width:1px;stroke-linecap:butt;stroke-linejoin:miter;stroke-opacity:1"
         d="M 24.615385,44.307692 C 16.852511,51.532367 16.973331,61.910519 15.805668,71.773279 L 15.805668,86.54251 C 27.447796,81.891264 31.7684,94.323575 39.643725,98.461538 C 39.115182,83.605792 30.87191,61.847393 67.88664,80.582996 C 86.189633,63.571322 75.31444,57.695007 72.032389,51.303644 C 72.032389,51.303644 37.82996,32.906883 24.615385,44.307692 z"
         id="path3212"
         transform="translate(233.42021,11.73452)"
         sodipodi:nodetypes="ccccccc" />
      <g
         transform="matrix(0.7128664,0,0,0.7128664,123.48082,-227.37268)"
         id="g2357">
        <path
           transform="translate(4,7)"
           d="M 255,417.86218 A 15.5,15.5 0 1 1 224,417.86218 A 15.5,15.5 0 1 1 255,417.86218 z"
           sodipodi:ry="15.5"
           sodipodi:rx="15.5"
           sodipodi:cy="417.86218"
           sodipodi:cx="239.5"
           id="path2359"
           style="opacity:1;fill:#ff0000;fill-opacity:1;stroke:none;stroke-width:4;stroke-linecap:round;stroke-miterlimit:4;stroke-dasharray:none;stroke-opacity:1"
           sodipodi:type="arc" />
        <path
           sodipodi:type="arc"
           style="opacity:1;fill:url(#radialGradient3318);fill-opacity:1;stroke:none;stroke-width:4;stroke-linecap:round;stroke-miterlimit:4;stroke-dasharray:none;stroke-opacity:1"
           id="path2361"
           sodipodi:cx="239.5"
           sodipodi:cy="417.86218"
           sodipodi:rx="15.5"
           sodipodi:ry="15.5"
           d="M 255,417.86218 A 15.5,15.5 0 1 1 224,417.86218 A 15.5,15.5 0 1 1 255,417.86218 z"
           transform="translate(4,7)" />
      </g>
      <path
         transform="matrix(0.7128664,0,0,0.7128664,148.43114,-234.50134)"
         id="path2371"
         d="M 180.00895,413.25201 C 169.98339,423.52178 159.6027,429.66602 156.83776,426.96684 C 154.07283,424.26764 159.9655,413.74212 169.99105,403.47235 C 180.01661,393.20258 190.3973,387.05834 193.16224,389.75752 C 195.92717,392.45672 190.0345,402.98224 180.00895,413.25201 z"
         style="fill:#ffffff;fill-opacity:0.62745098;stroke:none;stroke-width:4;stroke-linecap:round;stroke-miterlimit:4;stroke-opacity:1;filter:url(#filter3730)" />
      <path
         id="path3734"
         d="M 262,501.86218 C 262,509.31418 259.536,515.36218 256.5,515.36218 C 253.464,515.36218 251,509.31418 251,501.86218 C 251,494.41018 253.464,488.36218 256.5,488.36218 C 259.536,488.36218 262,494.41018 262,501.86218 z"
         style="fill:#ffffff;fill-opacity:0.43438912;stroke:none;stroke-width:4;stroke-linecap:round;stroke-miterlimit:4;stroke-opacity:1;filter:url(#filter4065)"
         transform="matrix(0.5498048,0.4537546,-0.4537546,0.5498048,418.69156,-273.33213)" />
      <path
         sodipodi:nodetypes="ccccccc"
         id="path3206"
         d="M 244.10771,68.26577 C 239.44054,73.745185 242.87921,84.289097 249.28673,86.492238 L 249.38682,81.596674 C 245.97832,78.998896 244.12662,75.5397 247.06935,70.874733 C 250.96005,67.207387 256.62203,70.758837 261.83476,72.80867 C 263.68801,71.815629 263.76705,69.540061 262.88896,68.54702 C 257.22688,66.317994 249.20781,63.344571 244.10771,68.26577 z"
         style="fill:#333333;fill-opacity:1;fill-rule:evenodd;stroke:none;stroke-width:1px;stroke-linecap:butt;stroke-linejoin:miter;stroke-opacity:1" />
      <path
         sodipodi:nodetypes="ccccc"
         id="rect3229"
         d="M 263.14267,77.327604 L 292.96155,87.767615 L 292.03692,90.489872 L 262.62005,78.866271 L 263.14267,77.327604 z"
         style="fill:#ff0000;fill-opacity:0.56981135;stroke:none;stroke-width:4;stroke-linecap:round;stroke-miterlimit:4;stroke-opacity:1;filter:url(#filter3252)" />
      <path
         style="fill:url(#radialGradient3320);fill-opacity:1;stroke:none;stroke-width:4;stroke-linecap:round;stroke-miterlimit:4;stroke-opacity:1"
         d="M 263.14267,77.327604 L 292.96155,87.767615 L 292.03692,90.489872 L 262.62005,78.866271 L 263.14267,77.327604 z"
         id="path3236"
         sodipodi:nodetypes="ccccc" />
      <path
         sodipodi:nodetypes="ccccc"
         id="rect3220"
         d="M 257.76568,73.79732 L 266.41577,76.702759 C 267.24252,78.798079 266.53403,80.154815 264.94315,81.087051 L 256.29306,78.181612 C 255.23423,75.02179 256.58441,74.502112 257.76568,73.79732 z"
         style="fill:#999999;fill-opacity:1;stroke:none;stroke-width:4;stroke-linecap:round;stroke-miterlimit:4;stroke-opacity:1" />
      <path
         style="fill:url(#radialGradient3322);fill-opacity:1;stroke:none;stroke-width:4;stroke-linecap:round;stroke-miterlimit:4;stroke-opacity:1"
         d="M 257.76568,73.79732 L 266.41577,76.702759 C 267.24252,78.798079 266.53403,80.154815 264.94315,81.087051 L 256.29306,78.181612 C 255.23423,75.02179 256.58441,74.502112 257.76568,73.79732 z"
         id="path3223"
         sodipodi:nodetypes="ccccc" />
      <path
         sodipodi:nodetypes="cccsccc"
         id="path3258"
         d="M 270.73144,37.876473 C 265.48447,43.51977 266.46108,56.595693 275.66047,66.735785 C 277.53715,66.619884 278.11785,65.763424 277.57646,64.26577 C 268.95076,54.462303 268.81896,44.791908 273.35771,39.76577 C 278.04761,34.572249 285.50915,33.025667 290.7503,37.895325 L 294.90452,37.404434 C 288.36648,30.639289 275.86045,31.089225 270.73144,37.876473 z"
         style="fill:#333333;fill-opacity:1;fill-rule:evenodd;stroke:none;stroke-width:1px;stroke-linecap:butt;stroke-linejoin:miter;stroke-opacity:1" />
      <path
         style="fill:url(#radialGradient3324);fill-opacity:1;fill-rule:evenodd;stroke:none;stroke-width:1px;stroke-linecap:butt;stroke-linejoin:miter;stroke-opacity:1"
         d="M 244.10771,68.26577 C 239.44054,73.745185 242.87921,84.289097 249.28673,86.492238 L 249.38682,81.596674 C 245.97832,78.998896 244.12662,75.5397 247.06935,70.874733 C 250.96005,67.207387 256.62203,70.758837 261.83476,72.80867 C 263.68801,71.815629 263.76705,69.540061 262.88896,68.54702 C 257.22688,66.317994 249.20781,63.344571 244.10771,68.26577 z"
         id="path3274"
         sodipodi:nodetypes="ccccccc" />
      <path
         style="fill:url(#radialGradient3326);fill-opacity:1;fill-rule:evenodd;stroke:none;stroke-width:1px;stroke-linecap:butt;stroke-linejoin:miter;stroke-opacity:1"
         d="M 270.73144,37.876473 C 265.48447,43.51977 266.46108,56.595693 275.66047,66.735785 C 277.53715,66.619884 278.11785,65.763424 277.57646,64.26577 C 268.95076,54.462303 268.81896,44.791908 273.35771,39.76577 C 278.04761,34.572249 285.50915,33.025667 290.7503,37.895325 L 294.90452,37.404434 C 288.36648,30.639289 275.86045,31.089225 270.73144,37.876473 z"
         id="path3276"
         sodipodi:nodetypes="cccsccc" />
    </g>
  </g>
</svg>
