<?xml version="1.0" encoding="UTF-8" standalone="no"?>
<!-- Created with Inkscape (http://www.inkscape.org/) -->
<svg
   xmlns:dc="http://purl.org/dc/elements/1.1/"
   xmlns:cc="http://creativecommons.org/ns#"
   xmlns:rdf="http://www.w3.org/1999/02/22-rdf-syntax-ns#"
   xmlns:svg="http://www.w3.org/2000/svg"
   xmlns="http://www.w3.org/2000/svg"
   xmlns:xlink="http://www.w3.org/1999/xlink"
   xmlns:sodipodi="http://sodipodi.sourceforge.net/DTD/sodipodi-0.dtd"
   xmlns:inkscape="http://www.inkscape.org/namespaces/inkscape"
   width="128"
   height="128"
   id="svg2"
   sodipodi:version="0.32"
   inkscape:version="0.45+devel"
   sodipodi:docname="camouflage.svg"
   inkscape:output_extension="org.inkscape.output.svg.inkscape"
   version="1.0"
   inkscape:export-filename="/home/nicu/Desktop/pacman/pacman.png"
   inkscape:export-xdpi="90"
   inkscape:export-ydpi="90">
  <defs
     id="defs4">
    <inkscape:perspective
       sodipodi:type="inkscape:persp3d"
       inkscape:vp_x="-50 : 600 : 1"
       inkscape:vp_y="0 : 1000 : 0"
       inkscape:vp_z="700 : 600 : 1"
       inkscape:persp3d-origin="300 : 400 : 1"
       id="perspective42" />
    <linearGradient
       id="linearGradient4072">
      <stop
         style="stop-color:#000000;stop-opacity:1;"
         offset="0"
         id="stop4074" />
      <stop
         style="stop-color:#000000;stop-opacity:0;"
         offset="1"
         id="stop4076" />
    </linearGradient>
    <linearGradient
       id="linearGradient2315">
      <stop
         style="stop-color:#000000;stop-opacity:0;"
         offset="0"
         id="stop2317" />
      <stop
         style="stop-color:#000000;stop-opacity:0.57195574;"
         offset="1"
         id="stop2319" />
    </linearGradient>
    <filter
       inkscape:collect="always"
       id="filter3730"
       x="-0.34801543"
       width="1.6960309"
       y="-0.34084839"
       height="1.6816968">
      <feGaussianBlur
         inkscape:collect="always"
         stdDeviation="5.4650567"
         id="feGaussianBlur3732" />
    </filter>
    <filter
       inkscape:collect="always"
       id="filter4065"
       x="-0.51975077"
       width="2.0395014"
       y="-0.45338511"
       height="1.9067702">
      <feGaussianBlur
         inkscape:collect="always"
         stdDeviation="4.1511594"
         id="feGaussianBlur4067" />
    </filter>
    <filter
       inkscape:collect="always"
       id="filter4112"
       x="-0.070020586"
       width="1.1400412"
       y="-0.34009999"
       height="1.6802">
      <feGaussianBlur
         inkscape:collect="always"
         stdDeviation="3.9678331"
         id="feGaussianBlur4114" />
    </filter>
    <radialGradient
       inkscape:collect="always"
       xlink:href="#linearGradient4072"
       id="radialGradient3237"
       gradientUnits="userSpaceOnUse"
       gradientTransform="matrix(1.4028467,1.6438735e-6,-1.4520791e-7,0.2058824,-89.844917,403.11278)"
       cx="210.88904"
       cy="506.35242"
       fx="210.88904"
       fy="506.35242"
       r="68" />
    <radialGradient
       inkscape:collect="always"
       xlink:href="#linearGradient2315"
       id="radialGradient3241"
       gradientUnits="userSpaceOnUse"
       gradientTransform="matrix(0.387095,1.5161279,-1.4234088,0.3634221,726.51481,-93.106615)"
       cx="233.49998"
       cy="409.86218"
       fx="233.49998"
       fy="409.86218"
       r="15.5" />
    <radialGradient
       inkscape:collect="always"
       xlink:href="#linearGradient2315"
       id="radialGradient3243"
       gradientUnits="userSpaceOnUse"
       gradientTransform="matrix(0.387095,1.5161279,-1.4234088,0.3634221,726.51481,-93.106615)"
       cx="233.49998"
       cy="409.86218"
       fx="233.49998"
       fy="409.86218"
       r="15.5" />
    <radialGradient
       inkscape:collect="always"
       xlink:href="#linearGradient2315"
       id="radialGradient3256"
       gradientUnits="userSpaceOnUse"
       gradientTransform="matrix(0.7158046,1.4128374,-1.3538472,0.6859177,1027.8362,-6.77224)"
       cx="216.99271"
       cy="497.9592"
       fx="216.99271"
       fy="497.9592"
       r="65" />
  </defs>
  <sodipodi:namedview
     id="base"
     pagecolor="#ffffff"
     bordercolor="#666666"
     borderopacity="1.0"
     gridtolerance="10000"
     guidetolerance="10"
     objecttolerance="10"
     inkscape:pageopacity="0.0"
     inkscape:pageshadow="2"
     inkscape:zoom="0.721875"
     inkscape:cx="68.294372"
     inkscape:cy="-123.46857"
     inkscape:document-units="px"
     inkscape:current-layer="layer1"
     showgrid="false"
     inkscape:window-width="937"
     inkscape:window-height="717"
     inkscape:window-x="674"
     inkscape:window-y="205"
     showguides="true"
     inkscape:guide-bbox="true"
     height="640px"
     width="128px">
    <inkscape:grid
       type="xygrid"
       id="grid3194"
       originx="0px"
       originy="0px"
       spacingx="0px"
       spacingy="0px" />
  </sodipodi:namedview>
  <metadata
     id="metadata7">
    <rdf:RDF>
      <cc:Work
         rdf:about="">
        <dc:format>image/svg+xml</dc:format>
        <dc:type
           rdf:resource="http://purl.org/dc/dcmitype/StillImage" />
        <dc:title></dc:title>
        <dc:date></dc:date>
        <dc:creator>
          <cc:Agent>
            <dc:title></dc:title>
          </cc:Agent>
        </dc:creator>
        <dc:rights>
          <cc:Agent>
            <dc:title></dc:title>
          </cc:Agent>
        </dc:rights>
        <dc:publisher>
          <cc:Agent>
            <dc:title></dc:title>
          </cc:Agent>
        </dc:publisher>
        <dc:identifier></dc:identifier>
        <dc:source></dc:source>
        <dc:relation></dc:relation>
        <dc:language></dc:language>
        <dc:subject>
          <rdf:Bag />
        </dc:subject>
        <dc:coverage></dc:coverage>
        <dc:description></dc:description>
        <dc:contributor>
          <cc:Agent>
            <dc:title></dc:title>
          </cc:Agent>
        </dc:contributor>
        <cc:license
           rdf:resource="" />
      </cc:Work>
    </rdf:RDF>
  </metadata>
  <g
     inkscape:label="Layer 1"
     inkscape:groupmode="layer"
     id="layer1"
     transform="translate(-233.42021,-11.73452)">
    <g
       id="g3677"
       transform="matrix(0.7128664,0,0,0.7128664,-81.824708,-401.31208)">
      <path
         transform="matrix(1.0588235,0,0,0.8571429,313.88235,306.48031)"
         style="fill:url(#radialGradient3237);fill-opacity:1;stroke:none;stroke-width:4;stroke-linecap:round;stroke-miterlimit:4;stroke-opacity:1;filter:url(#filter4112)"
         d="M 274,507.36218 C 274,515.09018 243.536,521.36218 206,521.36218 C 168.464,521.36218 138,515.09018 138,507.36218 C 138,499.63418 168.464,493.36218 206,493.36218 C 243.536,493.36218 274,499.63418 274,507.36218 z"
         id="path3211" />
      <g
         id="g3671">
        <path
           sodipodi:nodetypes="cccsssccssc"
           id="path3213"
           d="M 597,680.36218 C 597,685.20505 596.46949,717.92477 595.46346,722.46635 C 592.98926,734.92556 584.98013,742.09887 572.95284,744.82909 C 567.3627,745.87193 561.00413,723.00521 554.10328,722.87777 C 547.20242,722.75033 539.75928,745.36218 532,745.36218 C 524.20434,745.36218 516.7278,722.73753 509.7997,722.84256 C 502.87161,722.9476 496.49197,745.78232 490.89011,744.70106 C 478.20634,742.59612 471.57446,733.91986 468.44715,722.05649 C 467.49911,717.64103 467,685.05954 467,680.36218 C 467,644.48218 496.12,615.36218 532,615.36218 C 567.88,615.36218 597,644.48218 597,680.36218 z"
           style="fill:#344a33;fill-opacity:1;stroke:none;stroke-width:4;stroke-linecap:round;stroke-miterlimit:4;stroke-opacity:1" />
        <path
           style="fill:#463a28;fill-opacity:1;fill-rule:evenodd;stroke:none;stroke-width:2;stroke-linecap:round;stroke-linejoin:round;marker:none;stroke-miterlimit:4;stroke-dasharray:none;stroke-dashoffset:0;stroke-opacity:1;visibility:visible;display:inline;overflow:visible"
           d="M 532,615.375 C 508.70606,615.375 488.25825,627.63376 476.78125,646.0625 C 477.17451,645.82444 477.55927,645.54868 477.9375,645.25 C 486.44339,643.23225 495.3177,644.3734 503.96875,643.625 C 510.60282,644.20755 516.84163,643.42703 523.21875,641.84375 C 530.01682,642.52839 536.45436,639.2456 543.28125,639.28125 C 549.9195,634.20079 555.63031,647.65222 560.9375,640.09375 C 562.88983,633.86188 568.95965,632.3766 574.9375,631.59375 C 570.86459,628.00408 566.3499,624.92671 561.46875,622.4375 C 557.74631,623.92301 554.1392,625.14122 551.25,622.375 C 551.18607,621.17699 552.15573,620.0262 553.34375,618.96875 C 549.13378,617.50368 544.7401,616.4789 540.1875,615.90625 C 537.92618,616.28996 535.67971,616.26567 533.5,615.40625 C 532.99971,615.39487 532.50301,615.375 532,615.375 z M 490.875,667.59375 C 488.17656,667.68113 485.39403,668.60431 482.75,668.71875 C 478.53158,668.81366 474.33635,668.8195 470.25,667.6875 C 469.47925,667.8579 468.75067,668.19759 468.0625,668.625 C 467.36574,672.43629 467,676.36346 467,680.375 C 467,685.07236 467.48947,717.64701 468.4375,722.0625 C 469.34526,725.50607 470.56438,728.67626 472.125,731.5 C 476.19188,731.31682 467.45327,723.80879 471.96875,722.875 C 476.44815,723.51049 480.71361,721.0114 483.09375,717.3125 C 486.13237,711.85363 476.06591,713.54621 475.65625,708.75 C 473.61092,703.98793 478.3345,702.20392 482.21875,703.21875 C 486.18361,703.84533 490.39127,703.93313 494.34375,703.125 C 498.57413,702.73036 503.84507,702.09545 506.84375,699.25 C 506.3042,694.02424 497.68623,697.15421 497.28125,692.1875 C 494.99459,688.69972 498.18523,687.42074 500.25,685.15625 C 504.01762,683.50189 508.44993,685.15913 512.28125,683.40625 C 516.55275,682.73391 520.04328,680.11555 524.09375,678.8125 C 527.60381,674.27647 519.64455,672.57077 516.5,674.5 C 512.70271,675.69843 508.19197,674.78043 504.75,677.09375 C 501.5537,678.71538 498.57983,685.20968 494.84375,681.03125 C 491.17629,677.36429 485.85151,680.08912 481.40625,679.15625 C 479.24163,674.92874 484.61446,673.77158 487.71875,674.53125 C 491.54029,674.15285 495.57406,673.67635 499.125,675.5 C 504.67973,674.02936 499.64905,668.03978 495.59375,668.6875 C 494.08229,667.79833 492.49406,667.54132 490.875,667.59375 z M 596.1875,689.625 C 589.37705,689.92909 586.33801,697.72013 578.0625,695.625 C 568.94526,694.58899 559.97386,695.9169 550.9375,696.53125 C 542.42775,692.26708 534.40676,705.08526 546.5,705.09375 C 555.01865,704.26315 564.14698,703.71748 569.125,711.4375 C 572.44314,711.32089 580.71486,712.4395 573.78125,715.6875 C 570.33063,716.51577 558.26052,711.99214 564.96875,718.875 C 573.82566,726.254 583.55697,718.52685 593.46875,716.84375 C 594.54767,716.52075 595.37085,716.3781 596.03125,716.3125 C 596.44867,709.14874 596.72642,697.86888 596.875,689.625 C 596.64367,689.61829 596.41046,689.61504 596.1875,689.625 z M 595.78125,720.0625 C 593.91556,721.70313 591.24569,723.24218 589.4375,723.15625 C 586.18762,724.62487 577.24379,723.13254 582.90625,729.0625 C 585.03588,730.08875 588.8542,730.46145 592.4375,731.09375 C 593.79412,728.56172 594.82807,725.69502 595.46875,722.46875 C 595.57658,721.98196 595.68441,721.12772 595.78125,720.0625 z M 576.21875,735.46875 C 572.47468,735.50417 569.53654,737.06718 566.8125,739.125 C 568.94499,742.61167 570.98319,745.20832 572.9375,744.84375 C 577.93246,743.70988 582.24976,741.78939 585.75,739.0625 C 582.67201,738.07789 579.72721,736.64633 577.21875,735.5 C 576.88423,735.47979 576.54124,735.4657 576.21875,735.46875 z"
           id="path7788" />
        <path
           style="fill:#758949;fill-opacity:1;fill-rule:evenodd;stroke:none;stroke-width:2;stroke-linecap:round;stroke-linejoin:round;marker:none;stroke-miterlimit:4;stroke-dasharray:none;stroke-dashoffset:0;stroke-opacity:1;visibility:visible;display:inline;overflow:visible"
           d="M 518.25,616.84375 C 512.67008,618.04737 507.35339,619.9636 502.40625,622.5 C 506.09723,624.538 504.56822,631.84733 498.21875,630.90625 C 493.90495,630.26689 482.6887,638.76076 489.625,640.625 C 492.35433,641.35852 497.16336,643.83916 491.78125,643.46875 C 487.03708,643.14226 482.40176,643.8686 477.75,644.5625 C 474.4774,649.50846 471.89371,654.92076 470.0625,660.6875 C 474.91595,660.35561 479.66677,658.99738 483.28125,656.59375 C 487.26819,653.94247 491.08066,652.9069 490.90625,659.09375 C 490.76218,664.20404 502.87783,656.4741 503.875,664.90625 C 504.56577,670.74743 499.22915,673.94273 494.78125,675.53125 C 488.92233,677.62367 489.18704,686.3048 494.46875,687.65625 C 498.86157,688.78025 509.95567,694.78702 509.21875,686.53125 C 508.53361,678.85564 515.07739,676.07346 519.96875,672.09375 C 525.88439,667.28067 532.86325,669.79818 537.8125,674.1875 C 541.55423,677.50594 542.77303,673.79845 547.46875,674.78125 C 553.15965,675.97232 545.42339,670.50866 544.75,668.75 C 542.38179,662.56519 534.11143,664.34954 528.9375,662.375 C 525.40924,661.02848 514.94465,659.22547 520.84375,655.65625 C 525.4317,652.88029 533.11047,655.86044 538.1875,658.71875 C 541.60018,660.64002 547.53677,662.14806 546.125,656.28125 C 545.27346,652.74248 545.43861,649.64326 544.5625,646.1875 C 543.14853,640.61017 530.47794,644.15053 523.6875,643.1875 C 516.89706,642.22449 529.219,639.76144 523.78125,636.34375 C 521.20065,634.7218 512.2893,634.97509 517.28125,630.46875 C 522.20445,626.02447 530.41127,624.63211 536.78125,626.21875 C 541.96988,627.5111 527.84089,633.12448 535.625,633.53125 C 540.90364,633.80711 546.44842,630.82399 551.5,632.25 C 555.15286,633.28118 565.13916,632.18795 560.71875,628.84375 C 556.93737,625.983 546.99035,632.60869 543.59375,629.5625 C 540.09965,626.42884 537.65566,622.89721 531.96875,623.65625 C 527.65374,624.23214 516.96236,623.97159 516.46875,621.21875 C 516.27322,620.12835 517.73823,618.14406 518.25,616.84375 z M 585.78125,643.875 C 585.80027,644.07531 585.83555,644.26357 585.84375,644.46875 C 586.09116,646.75448 582.83072,646.2132 581.4375,646.71875 C 580.68755,648.59491 584.26767,648.81117 585.625,648.78125 C 587.09102,649.02202 588.87899,649.39788 589.78125,650.59375 C 588.57846,648.26505 587.24668,646.02931 585.78125,643.875 z M 590.21875,651.4375 C 590.28369,651.64105 590.32048,651.85612 590.34375,652.09375 C 590.75488,654.56561 587.36499,654.09983 585.84375,654.65625 C 583.65187,655.69151 581.15441,655.4847 578.90625,656.28125 C 577.26347,657.03107 575.90972,659.2347 576.8125,661 C 578.41248,663.39343 581.70727,660.7502 584.09375,661.53125 C 585.6961,660.90444 587.52446,662.22568 585.65625,663.59375 C 583.7645,664.7451 581.97408,666.09193 580.0625,667.21875 C 578.42725,668.48811 575.60607,670.16784 576.78125,672.625 C 577.64193,674.38752 580.06588,674.75078 581.84375,674.71875 C 584.28261,674.31934 586.80021,674.12712 589.25,674.59375 C 591.32025,675.32444 593.7576,673.97114 595.5625,675.34375 C 595.95611,675.81691 596.39489,676.20977 596.875,676.5625 C 596.35483,667.58306 594.02399,659.07684 590.21875,651.4375 z M 522.53125,695.15625 C 521.54685,695.12519 520.50664,697.32712 520.65625,698.40625 C 520.96966,700.66699 521.07788,703.19103 522.65625,704.9375 C 523.08328,705.41002 523.65127,705.82641 523.9375,706.375 C 524.58144,707.6092 521.39907,708.45457 520.28125,709.15625 C 517.92803,710.63343 516.65181,713.85358 513.90625,714.5625 C 511.51641,715.17961 509.8027,712.1618 507.34375,712.46875 C 505.50363,712.69843 503.01452,712.19097 502.03125,714.40625 C 501.44125,715.73546 501.76783,719.63437 503.375,716.90625 C 504.45896,715.06628 509.83019,714.77049 509.46875,718.03125 C 509.15192,720.88939 505.52081,719.28097 503.84375,720.46875 C 502.68733,721.28776 501.33393,723.79042 503.6875,723.09375 C 504.70662,722.79208 505.65951,723.68327 506.78125,724.21875 C 507.77493,723.36965 508.7944,722.85918 509.8125,722.84375 C 510.29652,722.83641 510.7607,722.95717 511.25,723.15625 C 512.1566,722.57586 513.01032,722.22041 513.78125,723.125 C 515.08923,724.65974 518.68848,724.786 517.40625,727.34375 C 517.21878,727.71771 517.00066,728.11287 516.78125,728.5 C 517.60647,729.62798 518.44415,730.86093 519.28125,732.125 C 519.5108,731.84872 519.70884,731.58355 519.8125,731.375 C 520.83332,729.32126 522.42361,728.31801 524.46875,727.8125 C 526.42652,727.32857 527.67835,723.92115 529.9375,725.28125 C 531.01361,725.92914 531.97325,725.75186 530.875,724.4375 C 529.46685,722.75225 527.20445,723.12732 525.375,722.96875 C 523.23227,722.78301 522.78003,719.9471 521.21875,719.25 C 520.26896,718.82596 517.15094,719.26057 518.90625,717.78125 C 520.44536,716.48413 521.50116,714.77705 523.09375,713.5 C 524.77624,712.15086 526.37716,709.94376 528.6875,710.25 C 531.04025,710.56187 532.64011,708.33122 534.875,708.46875 C 536.91152,708.59407 538.92382,709.59663 540.375,711.3125 C 542.4866,713.80926 543.62234,717.52367 542.25,720.71875 C 541.3454,722.82493 540.189,724.72078 538.59375,726.125 C 537.36819,727.20381 536.25391,730.92675 538.75,730.25 C 540.51235,729.77215 541.91751,728.35676 543.40625,727.3125 C 544.97168,726.21444 546.42522,723.12321 547.46875,722.96875 C 548.25467,722.85239 548.14813,724.80034 548.75,726.4375 C 550.56751,724.28197 552.3424,722.84266 554.09375,722.875 C 555.61303,722.90306 557.12945,724.04665 558.59375,725.78125 C 558.85748,725.36556 559.11943,724.9588 559.34375,724.5625 C 561.27953,721.14261 559.51545,719.83867 558.375,718.15625 C 557.23453,716.47383 556.53244,716.5491 557.8125,715.15625 C 559.09255,713.76338 564.25896,714.61457 564.96875,712.15625 C 565.67851,709.69794 559.53108,708.67944 554.90625,709.15625 C 550.8431,709.57514 548.40069,712.75254 545.84375,712.1875 C 544.84373,711.96655 544.88759,710.01549 544.375,708.9375 C 543.40355,706.89451 541.83816,704.92491 539.8125,704.03125 C 537.34495,702.94268 534.31475,704.78871 532,702.78125 C 530.53949,701.51465 528.39172,701.65399 526.8125,700.75 C 525.09466,699.76664 523.88038,697.88171 523.3125,695.8125 C 523.18364,695.34306 522.80688,695.16493 522.53125,695.15625 z M 596.375,708.34375 C 594.798,708.66229 593.3965,709.05525 592.9375,710.1875 C 592.14858,711.52696 591.01144,713.91852 593.03125,714.78125 C 594.21741,715.19766 595.29883,714.53663 596.15625,713.6875 C 596.23622,712.0085 596.33762,710.2543 596.40625,708.34375 C 596.39654,708.3457 596.3847,708.34179 596.375,708.34375 z M 589.59375,714.03125 C 589.06212,713.97535 588.54754,714.66774 588.4375,716.5625 C 588.14406,721.61522 584.87973,726.17791 582.34375,730.59375 C 579.58271,734.13418 575.06068,735.61368 572.1875,739.0625 C 571.0026,740.03183 569.64824,740.7209 568.25,741.3125 C 569.87051,743.60696 571.42502,745.1259 572.9375,744.84375 C 584.96479,742.11353 592.99457,734.92794 595.46875,722.46875 C 592.07991,723.7238 589.79654,721.58505 590.75,718.5 C 591.42928,716.30212 590.4798,714.12441 589.59375,714.03125 z M 485.15625,719.875 C 480.18609,719.88973 475.40812,722.94435 471.15625,725.28125 C 470.64813,725.53032 470.16706,725.82298 469.6875,726.125 C 472.11443,732.84987 475.96884,738.24967 481.78125,741.5625 C 480.5139,740.67406 479.75653,739.49251 480.28125,737.6875 C 481.99551,732.99697 487.30832,733.18326 490.84375,735.53125 C 494.95908,737.18387 492.18512,730.15818 488.875,730.75 C 486.38981,729.92651 479.37935,731.703 482.28125,728.4375 C 485.18313,725.17198 490.42158,729.50355 494.4375,729.9375 C 498.04186,728.10964 489.34181,725.08799 487.71875,724.3125 C 483.49145,723.28924 485.68051,722.13831 489.03125,722.25 C 489.80901,721.70035 489.57417,720.59695 488.625,720.40625 C 487.45972,720.03954 486.30321,719.8716 485.15625,719.875 z"
           id="path7689" />
        <path
           style="opacity:1;fill:#17181f;fill-opacity:1;fill-rule:evenodd;stroke:none;stroke-width:2;stroke-linecap:round;stroke-linejoin:round;marker:none;stroke-miterlimit:4;stroke-dasharray:none;stroke-dashoffset:0;stroke-opacity:1;visibility:visible;display:inline;overflow:visible"
           d="M 519.5,616.59375 C 518.56754,616.77569 517.63652,616.96611 516.71875,617.1875 C 516.88859,618.95695 516.54563,620.62727 514.46875,621.40625 C 512.40636,622.17977 510.49416,621.65713 508.65625,621 C 508.1375,620.81453 507.6395,620.56033 507.125,620.3125 C 504.10813,621.56525 501.20516,623.04463 498.4375,624.71875 C 499.03189,626.91254 501.69689,626.67887 503.59375,626.65625 C 506.25862,626.62446 508.79864,625.29545 511.4375,625.8125 C 514.10879,626.33589 513.20002,629.48101 513.53125,631.4375 C 513.90649,633.65391 514.0471,636.09816 512.9375,638.03125 C 511.72343,640.14637 509.53653,641.58925 507.875,643.40625 C 506.24094,645.1932 503.86668,645.96061 502.40625,648 C 500.13001,651.17857 504.17464,651.43672 506.03125,649.65625 C 508.70492,647.09224 511.31447,644.45561 514.125,642.0625 C 516.13919,640.34746 516.69333,642.44214 517.65625,643.6875 C 519.08074,645.52979 519.55594,648.16339 520.03125,649.9375 C 520.50653,651.71163 520.03691,655.72817 521.53125,654.5 C 523.18439,653.14126 522.87105,649.9138 522.9375,647.53125 C 523.00572,645.08574 522.98995,642.17798 524.78125,640.375 C 526.32207,638.82411 529.00385,639.78731 531.0625,639.9375 C 534.05622,640.15591 534.47756,636.45059 531.34375,636.5625 C 528.92271,636.64894 526.46145,635.63786 524.0625,635.9375 C 521.47048,636.26126 521.98782,633.30691 521.0625,631.75 C 519.87218,629.74727 517.02057,628.24423 516.625,626.5 C 516.29234,625.03331 518.88831,623.42623 519.84375,621.75 C 520.71447,620.22241 519.69704,618.05696 519.5,616.59375 z M 569.6875,630.625 C 569.51815,630.61802 569.3566,630.63994 569.1875,630.65625 C 569.00983,630.68411 568.85706,630.76728 568.71875,630.875 C 568.55721,631.00083 568.41567,631.1598 568.28125,631.3125 C 568.14053,631.46231 568.02372,631.61303 567.90625,631.78125 C 567.79416,631.92894 567.67473,632.10276 567.5625,632.25 C 567.47565,632.36398 567.38732,632.43525 567.28125,632.53125 C 567.1402,632.64238 567.02579,632.77403 566.90625,632.90625 C 566.74329,633.08645 566.55677,633.27635 566.375,633.4375 C 566.16634,633.63453 565.92099,633.77091 565.6875,633.9375 C 565.48839,634.07954 565.31514,634.22249 565.125,634.375 C 564.99296,634.48089 564.84864,634.61057 564.71875,634.71875 C 564.56947,634.82795 564.43646,634.95952 564.3125,635.09375 C 564.17865,635.23872 564.05601,635.40588 563.9375,635.5625 C 563.79191,635.7321 563.65407,635.90009 563.5,636.0625 C 563.34088,636.23026 563.19702,636.40074 563.03125,636.5625 C 562.88759,636.72981 562.74,636.89781 562.59375,637.0625 C 562.47348,637.20778 562.3363,637.32156 562.21875,637.46875 C 562.11865,637.59408 561.99635,637.70636 561.875,637.8125 C 561.73646,637.91916 561.60085,638.01616 561.5,638.15625 C 561.37322,638.3148 561.32243,638.53484 561.25,638.71875 C 561.1776,638.90262 561.09524,639.06354 561.03125,639.25 C 560.98229,639.39271 560.91709,639.52429 560.84375,639.65625 C 560.78405,639.76364 560.69843,639.86361 560.59375,639.9375 C 560.47938,640.01819 560.35116,640.07865 560.21875,640.125 C 560.02288,640.18472 559.82448,640.26264 559.625,640.3125 C 559.41946,640.38041 559.21376,640.39662 559,640.4375 C 558.8238,640.47121 558.64458,640.52751 558.46875,640.5625 C 558.32366,640.59138 558.18104,640.56951 558.03125,640.5625 C 557.81216,640.5522 557.59128,640.51635 557.375,640.46875 C 557.06094,640.40985 556.75051,640.34811 556.4375,640.28125 C 556.07024,640.19145 555.68028,640.11876 555.3125,640.03125 C 554.97906,639.96809 554.67091,639.87635 554.34375,639.78125 C 554.1358,639.72506 553.92453,639.65923 553.71875,639.59375 C 553.53348,639.51474 553.31979,639.44506 553.125,639.40625 C 552.94369,639.38679 552.75902,639.35573 552.59375,639.4375 C 552.55603,639.45616 552.53475,639.50803 552.5,639.53125 C 552.30716,639.76174 552.31079,640.03897 552.34375,640.3125 C 552.40072,640.6738 552.55387,641.01937 552.71875,641.34375 C 552.87464,641.65051 553.08012,641.93229 553.3125,642.1875 C 553.5341,642.42083 553.81856,642.58274 554.09375,642.75 C 554.37926,642.916 554.6379,643.07677 554.9375,643.21875 C 555.20407,643.35866 555.50912,643.49539 555.78125,643.625 C 556.05612,643.75587 556.34544,643.84715 556.625,643.96875 C 556.89191,644.07899 557.14717,644.21673 557.40625,644.34375 C 557.63885,644.46271 557.88568,644.55065 558.125,644.65625 C 558.34097,644.75686 558.55056,644.81586 558.78125,644.875 C 559.00431,644.92654 559.24184,644.90256 559.46875,644.875 C 559.70311,644.84654 559.93246,644.76693 560.15625,644.6875 C 560.38172,644.58711 560.63487,644.56518 560.875,644.53125 C 561.13401,644.49468 561.37329,644.44999 561.625,644.375 C 561.85749,644.29682 562.09262,644.17176 562.3125,644.0625 C 562.46419,643.97255 562.61909,643.88003 562.78125,643.8125 C 562.91405,643.75719 563.04557,643.75251 563.1875,643.75 C 563.33012,643.75968 563.46808,643.80916 563.59375,643.875 C 563.78107,643.97305 563.94729,644.10442 564.125,644.21875 C 564.32909,644.35002 564.51894,644.45542 564.71875,644.59375 C 564.92387,644.72406 565.13927,644.86813 565.34375,645 C 565.53512,645.1234 565.7393,645.23102 565.9375,645.34375 C 566.14938,645.45205 566.3552,645.56971 566.5625,645.6875 C 566.79253,645.8182 567.02035,645.96139 567.25,646.09375 C 567.5135,646.26478 567.7784,646.39741 568.0625,646.53125 C 568.3782,646.67226 568.69119,646.87437 569,647.03125 C 569.27202,647.1652 569.53776,647.27693 569.8125,647.40625 C 570.00941,647.49891 570.22486,647.55328 570.4375,647.59375 C 570.60841,647.62626 570.79939,647.6464 570.96875,647.6875 C 571.18144,647.72417 571.35919,647.80286 571.5625,647.875 C 571.78206,647.95289 572.02831,647.99133 572.25,648.0625 C 572.4255,648.11186 572.57753,648.18992 572.75,648.25 C 572.90823,648.31917 573.09037,648.37221 573.25,648.4375 C 573.4434,648.51661 573.6191,648.57624 573.8125,648.65625 C 574.01082,648.73827 574.23828,648.82584 574.4375,648.90625 C 574.57924,648.9778 574.69808,649.06246 574.84375,649.125 C 574.99059,649.18802 575.15829,649.21022 575.3125,649.25 C 575.46107,649.29512 575.60071,649.36343 575.75,649.40625 C 575.91072,649.47736 576.08814,649.52527 576.25,649.59375 C 576.42617,649.67842 576.58857,649.7418 576.78125,649.75 C 576.95865,649.73344 577.13338,649.71656 577.3125,649.71875 C 577.53351,649.70978 577.74463,649.61994 577.71875,649.375 C 577.71486,649.33828 577.70288,649.28357 577.6875,649.25 C 577.59088,649.03891 577.42936,648.86549 577.28125,648.6875 C 577.1282,648.51096 576.98256,648.34332 576.84375,648.15625 C 576.6958,647.9568 576.53785,647.74967 576.375,647.5625 C 576.22538,647.39054 576.05027,647.24029 575.875,647.09375 C 575.73467,646.9764 575.59822,646.84692 575.46875,646.71875 C 575.32075,646.5723 575.17293,646.43303 575.03125,646.28125 C 574.87364,646.11237 574.72035,645.94939 574.5625,645.78125 C 574.3921,645.59973 574.23186,645.40059 574.0625,645.21875 C 573.90689,645.04444 573.73841,644.87309 573.5625,644.71875 C 573.3554,644.54791 573.14565,644.40526 572.90625,644.28125 C 572.65367,644.1431 572.37603,644.01492 572.125,643.875 C 571.86113,643.72791 571.59001,643.62075 571.3125,643.5 C 571.06678,643.39694 570.80987,643.28649 570.5625,643.1875 C 570.36523,643.11257 570.19389,643.05073 570,642.96875 C 569.85015,642.89576 569.68837,642.80784 569.53125,642.75 C 569.39538,642.68769 569.23364,642.67702 569.09375,642.625 C 568.95867,642.58224 568.8463,642.49656 568.71875,642.4375 C 568.5634,642.36551 568.4011,642.29852 568.25,642.21875 C 568.0974,642.12458 567.94856,642.03649 567.78125,641.96875 C 567.63855,641.91097 567.48489,641.84168 567.34375,641.78125 C 567.23046,641.72372 567.12091,641.69625 567,641.65625 C 566.88515,641.60212 566.75119,641.58218 566.625,641.5625 C 566.50664,641.544 566.40084,641.54506 566.28125,641.53125 C 566.22756,641.52507 566.14613,641.51205 566.09375,641.5 C 566.00976,641.47308 565.92358,641.44404 565.84375,641.40625 C 565.67147,641.32464 565.48745,641.21617 565.34375,641.09375 C 565.26641,641.02786 565.21548,640.94463 565.1875,640.84375 C 565.14817,640.74142 565.13228,640.64011 565.125,640.53125 C 565.13726,640.43473 565.16296,640.34517 565.1875,640.25 C 565.2261,640.14426 565.28517,640.06577 565.34375,639.96875 C 565.41485,639.85102 565.53271,639.75816 565.625,639.65625 C 565.71462,639.54424 565.79812,639.43981 565.90625,639.34375 C 566.0149,639.2472 566.13557,639.15295 566.25,639.0625 C 566.36739,638.96967 566.47627,638.87414 566.59375,638.78125 C 566.7114,638.68822 566.82001,638.59335 566.9375,638.5 C 567.05493,638.40667 567.16391,638.31237 567.28125,638.21875 C 567.39862,638.12512 567.53906,638.03133 567.65625,637.9375 C 567.77356,637.84358 567.88322,637.75098 568,637.65625 C 568.12265,637.55674 568.26438,637.45575 568.375,637.34375 C 568.48774,637.22964 568.55911,637.09501 568.65625,636.96875 C 568.749,636.82989 568.85757,636.70864 568.9375,636.5625 C 569.03192,636.38991 569.12382,636.20383 569.21875,636.03125 C 569.32453,635.86005 569.41909,635.69915 569.53125,635.53125 C 569.64508,635.35045 569.78848,635.17881 569.90625,635 C 570.02289,634.81459 570.08241,634.61054 570.15625,634.40625 C 570.22335,634.23624 570.29629,634.05134 570.34375,633.875 C 570.39655,633.67875 570.44617,633.47811 570.5,633.28125 C 570.56068,633.076 570.63239,632.89456 570.6875,632.6875 C 570.71796,632.50921 570.73122,632.30516 570.75,632.125 C 570.78579,631.96631 570.78311,631.81642 570.78125,631.65625 C 570.77935,631.48941 570.71305,631.34119 570.65625,631.1875 C 570.59588,630.98638 570.48965,630.84988 570.3125,630.75 C 570.12116,630.65728 569.89583,630.6396 569.6875,630.625 z M 546.25,645.59375 C 545.63346,645.62111 545.02671,645.8407 544.5,646.15625 C 542.93925,647.33358 542.24188,649.37546 542.1875,651.28125 C 542.40431,652.77045 542.98602,654.27516 544.125,655.3125 C 545.14178,656.46985 544.44921,658.09979 545,659.4375 C 545.76376,660.86743 547.53231,661.57359 548.40625,663 C 549.40195,664.01424 551.01024,664.08345 552.25,664.71875 C 553.45738,665.50307 553.54864,667.48863 554.90625,668.34375 C 556.1062,669.43286 557.81985,670.45676 559.40625,669.5 C 560.73172,668.85301 561.88037,667.39982 563.5,668.28125 C 565.06,668.42361 566.2162,666.07743 567.71875,667.625 C 569.43237,668.15464 571.27542,667.9612 572.8125,667.03125 C 574.27807,665.8255 572.02989,665.28472 571.09375,665.84375 C 569.42984,666.29122 570.66228,664.61308 571.46875,664.375 C 573.12414,663.32321 574.6504,661.82636 575.21875,659.90625 C 575.32164,658.02911 573.15033,659.17781 572.9375,660.34375 C 572.12431,661.72998 571.59779,663.77476 569.75,664.0625 C 568.35968,664.06326 567.09223,664.49031 565.96875,665.3125 C 564.58406,666.09547 563.08974,665.0679 561.71875,664.75 C 560.38608,663.85931 558.76945,663.93 557.28125,664.3125 C 555.40235,665.12911 555.36154,662.61401 556.5625,661.875 C 558.03788,660.60727 555.641,658.59884 554.21875,659.21875 C 552.82658,659.43562 551.72998,657.41175 553.3125,656.78125 C 554.43956,656.03663 556.17723,655.55786 556.125,653.90625 C 556.20761,652.6502 555.70712,651.02005 554.375,650.625 C 553.00507,649.91584 551.80603,652.28032 550.84375,651.65625 C 550.08262,650.2499 550.17508,648.60251 550.03125,647.0625 C 549.50684,645.54504 547.58886,645.54756 546.25,645.59375 z M 583.1875,646.4375 C 583.12932,646.48405 583.17458,646.45824 583.125,646.5 C 583.09486,646.51483 583.06231,646.51853 583.03125,646.53125 C 583.12253,646.52167 583.22153,646.51335 583.3125,646.5 C 583.29055,646.45525 583.21484,646.41565 583.1875,646.4375 z M 489.21875,652.96875 C 489.04127,652.98117 488.89111,653.01538 488.71875,653.0625 C 486.46817,653.45837 484.27771,654.38397 482.53125,655.875 C 480.68417,657.06444 478.5662,657.75499 476.625,658.75 C 474.96958,658.91195 472.95225,659.53919 472.375,661.28125 C 472.33373,663.2275 474.73633,662.22166 475.6875,661.625 C 476.8447,660.95743 478.0525,660.27426 479.4375,660.5 C 480.4561,660.30951 480.90985,660.90859 479.875,661.5 C 478.92489,662.33809 477.99281,663.25585 477.25,664.21875 C 476.07424,664.92138 474.52269,665.94583 474.5,667.4375 C 475.77996,669.04054 477.4258,666.39037 478.40625,665.5 C 479.66258,663.92086 481.12988,662.56307 482.625,661.21875 C 483.80084,660.34418 485.12135,659.59707 486.5,659.09375 C 487.71989,658.74643 489.43402,660.09628 488.46875,661.3125 C 486.82912,662.00439 485.43628,663.25604 484.71875,664.90625 C 484.17557,665.97792 483.09349,668.16692 484.875,668.5625 C 486.5504,668.18661 486.70915,666.02108 487.6875,664.84375 C 488.44872,663.4329 490.04067,662.75494 491.5625,662.59375 C 493.18494,662.46522 493.06217,664.45435 492.375,665.375 C 491.61784,666.75097 489.96955,666.94838 488.65625,667.5 C 487.13007,667.72831 487.92772,669.12452 489.125,668.875 C 488.84249,669.23132 487.98986,670.41961 488.5625,671.3125 C 489.57366,672.95281 491.12552,670.74674 491.34375,669.59375 C 491.63035,668.01212 493.43255,668.02297 494.21875,666.9375 C 494.88884,665.72652 494.79381,664.16822 496.03125,663.28125 C 497.08389,662.37911 498.53834,663.16276 499.75,663.1875 C 501.34581,663.21338 501.19266,665.27416 500.875,666.34375 C 499.93618,668.23963 498.20817,669.60672 496.5625,670.875 C 495.33341,671.15746 495.04735,673.57872 496.65625,672.6875 C 498.25199,672.36724 498.257,674.65207 497.78125,675.65625 C 497.26035,676.51722 497.3921,679.204 498.78125,677.75 C 499.67978,676.37942 499.56514,674.45959 500.8125,673.28125 C 501.98062,672.11589 502.6451,670.60915 503.53125,669.25 C 504.82617,667.72892 504.86092,665.51869 504.09375,663.75 C 503.8874,662.25144 503.19908,660.87619 502.375,659.625 C 501.86581,658.49603 500.70691,657.58063 499.40625,657.875 C 498.15026,657.87788 497.30631,658.85224 496.28125,659.40625 C 495.16235,660.03348 493.46647,660.13027 492.46875,659.34375 C 491.56963,657.97277 492.85,656.41456 492.53125,654.96875 C 492.05449,653.91775 490.95098,652.99648 489.75,652.96875 C 489.57281,652.97225 489.39623,652.95633 489.21875,652.96875 z M 470.625,658.9375 C 468.9864,663.62586 467.86789,668.54882 467.34375,673.65625 C 467.93742,673.33006 468.53996,673.04665 469.15625,672.78125 C 471.53085,670.8767 471.35303,667.53225 471.46875,664.78125 C 471.29501,662.90705 471.74938,660.73695 470.8125,659.09375 C 470.74981,659.04021 470.69007,658.98303 470.625,658.9375 z M 542.25,667.375 C 537.83703,667.24974 539.56967,674.27737 536.5625,672.21875 C 533.77534,669.42953 529.52603,668.0049 525.40625,667.75 C 520.97963,667.6634 517.86973,671.21668 516.4375,675.09375 C 514.87131,680.73558 520.74998,672.52677 522.09375,676.21875 C 523.10619,678.50126 525.41995,679.05911 525.875,676.0625 C 527.69987,672.43704 535.49921,673.58353 532.09375,678.28125 C 529.77071,681.13929 526.83636,683.46353 524.59375,686.40625 C 522.53629,689.77659 516.55199,688.8205 514.9375,691.75 C 517.32008,691.29347 524.50995,688.51688 522.5,693.71875 C 525.90255,694.7199 524.47316,686.7805 528.21875,687.6875 C 528.46289,690.80238 533.81146,695.6884 535.96875,693.5625 C 533.75883,690.92956 530.33427,688.50378 530.90625,684.5 C 531.1972,680.61307 535.96124,678.0663 539.40625,679.65625 C 542.51252,683.68872 537.61384,685.59177 535.96875,688.5 C 535.87406,690.76194 540.08856,685.29815 539.5,689.1875 C 537.66409,692.19991 541.49008,692.49395 541.375,689.40625 C 540.87234,685.77362 542.15533,681.63514 546.28125,681.03125 C 548.17882,679.35951 550.19165,677.86023 552.28125,676.40625 C 556.70567,673.8595 558.55227,679.44832 555.125,682 C 552.92898,684.46213 552.23846,688.51999 553.59375,691.4375 C 554.71651,688.04525 556.35835,683.3699 560.625,683.28125 C 563.97538,683.17582 567.31383,677.34734 570.53125,680.84375 C 571.57022,682.47454 576.75384,683.1713 573.53125,685.625 C 571.37921,686.94358 566.43276,689.62417 567.75,692.28125 C 570.54638,691.61141 572.65792,685.0685 574.625,690.1875 C 576.09108,689.07265 576.32031,683.45783 580.5625,685.40625 C 584.71373,686.59006 588.97799,686.68584 592.90625,688.6875 C 595.86576,689.97004 592.27369,694.0587 591.71875,696.1875 C 590.57707,700.75246 585.45602,698.75296 581.90625,699.28125 C 580.34041,699.73575 573.66279,701.96042 577.125,703.34375 C 579.77641,701.69606 584.47364,700.1602 587.0625,702.0625 C 589.62988,705.68032 585.19619,710.46539 581.03125,709.6875 C 576.86633,708.90962 573.83137,713.92672 570.96875,716.5625 C 568.48831,721.54372 565.12187,725.96954 561.71875,730.34375 C 561.98164,730.77861 562.27046,731.20799 562.53125,731.65625 C 564.24255,729.57381 566.3774,726.46681 568.53125,727.71875 C 570.40828,730.16848 566.30866,736.80285 570.0625,736.78125 C 573.7954,734.00178 568.82498,728.21972 572.15625,725.4375 C 575.25937,725.24469 576.26232,729.67097 579.75,727.78125 C 584.6197,727.13895 579.25135,724.77746 577.09375,725.3125 C 573.89765,723.99125 574.90751,718.84617 575.3125,716.15625 C 577.14117,713.02561 581.13071,710.58487 583.90625,711.46875 C 586.6818,712.35264 585.15618,718.8134 587.09375,714.96875 C 587.9861,711.07446 590.12691,706.99153 592.0625,703.4375 C 592.7821,700.24905 594.83048,697.81997 596.75,695.34375 C 596.81608,692.36027 596.86851,689.65401 596.90625,687.28125 C 596.87345,687.27025 596.84617,687.26057 596.8125,687.25 C 596.74118,682.4219 589.63105,685.79592 589.125,681.40625 C 585.32627,680.92938 581.28609,682.10924 577.40625,681.75 C 573.0721,680.69536 571.01694,676.35894 567.40625,674.21875 C 564.0509,670.4508 559.53114,674.21052 555.65625,674.21875 C 552.56396,671.48884 548.26111,670.13625 544.5625,667.9375 C 543.64923,667.58124 542.88042,667.39289 542.25,667.375 z M 525.4375,739.1875 C 525.05308,739.17967 524.70871,739.35027 524.4375,739.625 C 525.33033,740.80227 526.22155,741.89409 527.125,742.78125 C 527.12638,742.7088 527.12324,742.6346 527.125,742.5625 C 526.87098,741.42216 526.79525,740.052 525.84375,739.25 C 525.70613,739.20237 525.56767,739.19015 525.4375,739.1875 z"
           id="path5621" />
      </g>
      <path
         sodipodi:nodetypes="cccsssccssc"
         id="path3215"
         d="M 597,680.36218 C 597,685.20505 596.46949,717.92477 595.46346,722.46635 C 592.98926,734.92556 584.98013,742.09887 572.95284,744.82909 C 567.3627,745.87193 561.00413,723.00521 554.10328,722.87777 C 547.20242,722.75033 539.75928,745.36218 532,745.36218 C 524.20434,745.36218 516.7278,722.73753 509.7997,722.84256 C 502.87161,722.9476 496.49197,745.78232 490.89011,744.70106 C 478.20634,742.59612 471.57446,733.91986 468.44715,722.05649 C 467.49911,717.64103 467,685.05954 467,680.36218 C 467,644.48218 496.12,615.36218 532,615.36218 C 567.88,615.36218 597,644.48218 597,680.36218 z"
         style="fill:url(#radialGradient3256);fill-opacity:1;stroke:none;stroke-width:4;stroke-linecap:round;stroke-miterlimit:4;stroke-opacity:1" />
      <g
         id="g3217"
         transform="translate(328,244)">
        <path
           transform="translate(4,7)"
           d="M 255,417.86218 A 15.5,15.5 0 1 1 224,417.86218 A 15.5,15.5 0 1 1 255,417.86218 z"
           sodipodi:ry="15.5"
           sodipodi:rx="15.5"
           sodipodi:cy="417.86218"
           sodipodi:cx="239.5"
           id="path3219"
           style="opacity:1;fill:#ffffff;fill-opacity:1;stroke:none;stroke-width:4;stroke-linecap:round;stroke-miterlimit:4;stroke-dasharray:none;stroke-opacity:1"
           sodipodi:type="arc" />
        <path
           sodipodi:type="arc"
           style="opacity:1;fill:url(#radialGradient3241);fill-opacity:1;stroke:none;stroke-width:4;stroke-linecap:round;stroke-miterlimit:4;stroke-dasharray:none;stroke-opacity:1"
           id="path3221"
           sodipodi:cx="239.5"
           sodipodi:cy="417.86218"
           sodipodi:rx="15.5"
           sodipodi:ry="15.5"
           d="M 255,417.86218 A 15.5,15.5 0 1 1 224,417.86218 A 15.5,15.5 0 1 1 255,417.86218 z"
           transform="translate(4,7)" />
        <path
           transform="matrix(0.6129032,0,0,0.6129032,101.70968,169.7531)"
           d="M 255,417.86218 A 15.5,15.5 0 1 1 224,417.86218 A 15.5,15.5 0 1 1 255,417.86218 z"
           sodipodi:ry="15.5"
           sodipodi:rx="15.5"
           sodipodi:cy="417.86218"
           sodipodi:cx="239.5"
           id="path3223"
           style="opacity:1;fill:#000000;fill-opacity:1;stroke:none;stroke-width:4;stroke-linecap:round;stroke-miterlimit:4;stroke-dasharray:none;stroke-opacity:1"
           sodipodi:type="arc" />
      </g>
      <g
         id="g3225"
         transform="translate(288,244)">
        <path
           sodipodi:type="arc"
           style="opacity:1;fill:#ffffff;fill-opacity:1;stroke:none;stroke-width:4;stroke-linecap:round;stroke-miterlimit:4;stroke-dasharray:none;stroke-opacity:1"
           id="path3227"
           sodipodi:cx="239.5"
           sodipodi:cy="417.86218"
           sodipodi:rx="15.5"
           sodipodi:ry="15.5"
           d="M 255,417.86218 A 15.5,15.5 0 1 1 224,417.86218 A 15.5,15.5 0 1 1 255,417.86218 z"
           transform="translate(4,7)" />
        <path
           transform="translate(4,7)"
           d="M 255,417.86218 A 15.5,15.5 0 1 1 224,417.86218 A 15.5,15.5 0 1 1 255,417.86218 z"
           sodipodi:ry="15.5"
           sodipodi:rx="15.5"
           sodipodi:cy="417.86218"
           sodipodi:cx="239.5"
           id="path3229"
           style="opacity:1;fill:url(#radialGradient3243);fill-opacity:1;stroke:none;stroke-width:4;stroke-linecap:round;stroke-miterlimit:4;stroke-dasharray:none;stroke-opacity:1"
           sodipodi:type="arc" />
        <path
           sodipodi:type="arc"
           style="opacity:1;fill:#000000;fill-opacity:1;stroke:none;stroke-width:4;stroke-linecap:round;stroke-miterlimit:4;stroke-dasharray:none;stroke-opacity:1"
           id="path3231"
           sodipodi:cx="239.5"
           sodipodi:cy="417.86218"
           sodipodi:rx="15.5"
           sodipodi:ry="15.5"
           d="M 255,417.86218 A 15.5,15.5 0 1 1 224,417.86218 A 15.5,15.5 0 1 1 255,417.86218 z"
           transform="matrix(0.6129032,0,0,0.6129032,101.70968,169.7531)" />
      </g>
      <path
         style="fill:#ffffff;fill-opacity:0.62745098;stroke:none;stroke-width:4;stroke-linecap:round;stroke-miterlimit:4;stroke-opacity:1;filter:url(#filter3730)"
         d="M 503.00895,647.25201 C 492.98339,657.52178 482.6027,663.66602 479.83776,660.96684 C 477.07283,658.26764 482.9655,647.74212 492.99105,637.47235 C 503.01661,627.20258 513.3973,621.05834 516.16224,623.75752 C 518.92717,626.45672 513.0345,636.98224 503.00895,647.25201 z"
         id="path3233" />
      <path
         transform="matrix(0.7712592,0.6365212,-0.6365212,0.7712592,702.11791,179.52866)"
         style="fill:#ffffff;fill-opacity:0.43438912;stroke:none;stroke-width:4;stroke-linecap:round;stroke-miterlimit:4;stroke-opacity:1;filter:url(#filter4065)"
         d="M 262,501.86218 C 262,509.31418 259.536,515.36218 256.5,515.36218 C 253.464,515.36218 251,509.31418 251,501.86218 C 251,494.41018 253.464,488.36218 256.5,488.36218 C 259.536,488.36218 262,494.41018 262,501.86218 z"
         id="path3235" />
    </g>
  </g>
</svg>
