<?xml version="1.0" encoding="UTF-8" standalone="no"?>
<!-- Created with Inkscape (http://www.inkscape.org/) -->
<svg
   xmlns:dc="http://purl.org/dc/elements/1.1/"
   xmlns:cc="http://creativecommons.org/ns#"
   xmlns:rdf="http://www.w3.org/1999/02/22-rdf-syntax-ns#"
   xmlns:svg="http://www.w3.org/2000/svg"
   xmlns="http://www.w3.org/2000/svg"
   xmlns:xlink="http://www.w3.org/1999/xlink"
   xmlns:sodipodi="http://sodipodi.sourceforge.net/DTD/sodipodi-0.dtd"
   xmlns:inkscape="http://www.inkscape.org/namespaces/inkscape"
   width="128"
   height="128"
   id="svg2"
   sodipodi:version="0.32"
   inkscape:version="0.45+devel"
   sodipodi:docname="cowboy.svg"
   inkscape:output_extension="org.inkscape.output.svg.inkscape"
   version="1.0"
   inkscape:export-filename="/home/nicu/Desktop/pacman/pacman.png"
   inkscape:export-xdpi="90"
   inkscape:export-ydpi="90">
  <defs
     id="defs4">
    <linearGradient
       id="linearGradient4072">
      <stop
         style="stop-color:#000000;stop-opacity:1;"
         offset="0"
         id="stop4074" />
      <stop
         style="stop-color:#000000;stop-opacity:0;"
         offset="1"
         id="stop4076" />
    </linearGradient>
    <linearGradient
       id="linearGradient2315">
      <stop
         style="stop-color:#000000;stop-opacity:0;"
         offset="0"
         id="stop2317" />
      <stop
         style="stop-color:#000000;stop-opacity:0.57195574;"
         offset="1"
         id="stop2319" />
    </linearGradient>
    <radialGradient
       inkscape:collect="always"
       xlink:href="#linearGradient2315"
       id="radialGradient2365"
       gradientUnits="userSpaceOnUse"
       gradientTransform="matrix(0.387095,1.5161279,-1.4234088,0.3634221,726.51481,-93.106615)"
       cx="233.49998"
       cy="409.86218"
       fx="233.49998"
       fy="409.86218"
       r="15.5" />
    <radialGradient
       inkscape:collect="always"
       xlink:href="#linearGradient2315"
       id="radialGradient2367"
       gradientUnits="userSpaceOnUse"
       gradientTransform="matrix(0.387095,1.5161279,-1.4234088,0.3634221,726.51481,-93.106615)"
       cx="233.49998"
       cy="409.86218"
       fx="233.49998"
       fy="409.86218"
       r="15.5" />
    <filter
       inkscape:collect="always"
       id="filter3730"
       x="-0.34801543"
       width="1.6960309"
       y="-0.34084839"
       height="1.6816968">
      <feGaussianBlur
         inkscape:collect="always"
         stdDeviation="5.4650567"
         id="feGaussianBlur3732" />
    </filter>
    <filter
       inkscape:collect="always"
       id="filter4065"
       x="-0.51975077"
       width="2.0395014"
       y="-0.45338511"
       height="1.9067702">
      <feGaussianBlur
         inkscape:collect="always"
         stdDeviation="4.1511594"
         id="feGaussianBlur4067" />
    </filter>
    <radialGradient
       inkscape:collect="always"
       xlink:href="#linearGradient4072"
       id="radialGradient4078"
       cx="210.88904"
       cy="506.35242"
       fx="210.88904"
       fy="506.35242"
       r="68"
       gradientTransform="matrix(1.4028467,1.6438735e-6,-1.4520791e-7,0.2058824,-89.844917,403.11278)"
       gradientUnits="userSpaceOnUse" />
    <filter
       inkscape:collect="always"
       id="filter4112"
       x="-0.070020586"
       width="1.1400412"
       y="-0.34009999"
       height="1.6802">
      <feGaussianBlur
         inkscape:collect="always"
         stdDeviation="3.9678331"
         id="feGaussianBlur4114" />
    </filter>
    <radialGradient
       inkscape:collect="always"
       xlink:href="#linearGradient2315"
       id="radialGradient2428"
       gradientUnits="userSpaceOnUse"
       gradientTransform="matrix(0.510273,1.0071643,-0.9651122,0.4889677,650.88519,-406.13978)"
       cx="216.99271"
       cy="497.9592"
       fx="216.99271"
       fy="497.9592"
       r="65" />
    <radialGradient
       inkscape:collect="always"
       xlink:href="#linearGradient2315"
       id="radialGradient3320"
       cx="175.76117"
       cy="410.87479"
       fx="175.76117"
       fy="410.87479"
       r="76.197121"
       gradientTransform="matrix(1.9343861,0.260032,-7.7257589e-2,0.5747213,-133.46845,133.88258)"
       gradientUnits="userSpaceOnUse" />
    <radialGradient
       inkscape:collect="always"
       xlink:href="#linearGradient2315"
       id="radialGradient3328"
       cx="195.14418"
       cy="393.60767"
       fx="195.14418"
       fy="393.60767"
       r="26.684567"
       gradientTransform="matrix(2.2049136,-1.1483116e-2,9.6579763e-3,1.8543843,-237.61697,-337.63819)"
       gradientUnits="userSpaceOnUse" />
    <radialGradient
       inkscape:collect="always"
       xlink:href="#linearGradient2315"
       id="radialGradient3337"
       cx="52.650291"
       cy="29.570131"
       fx="52.650291"
       fy="29.570131"
       r="14.69311"
       gradientTransform="matrix(4.0081792,6.8979712e-7,-1.7495051e-7,1.0515276,-16.656457,383.00527)"
       gradientUnits="userSpaceOnUse" />
    <filter
       inkscape:collect="always"
       id="filter3509"
       x="-0.41735804"
       width="1.8347161"
       y="-0.50576539"
       height="2.0115308">
      <feGaussianBlur
         inkscape:collect="always"
         stdDeviation="1.0919795"
         id="feGaussianBlur3511" />
    </filter>
    <radialGradient
       inkscape:collect="always"
       xlink:href="#linearGradient2315"
       id="radialGradient3526"
       gradientUnits="userSpaceOnUse"
       gradientTransform="matrix(1.7102681,-2.991024e-2,2.0252117e-2,1.1580164,16.624762,-9.5096942)"
       cx="-25.500473"
       cy="55.133343"
       fx="-25.500473"
       fy="55.133343"
       r="6.7175145" />
    <radialGradient
       inkscape:collect="always"
       xlink:href="#linearGradient2315"
       id="radialGradient3536"
       gradientUnits="userSpaceOnUse"
       gradientTransform="matrix(1.7102681,-2.991024e-2,2.0252117e-2,1.1580164,16.624762,-9.5096942)"
       cx="-25.500473"
       cy="55.133343"
       fx="-25.500473"
       fy="55.133343"
       r="6.7175145" />
    <radialGradient
       inkscape:collect="always"
       xlink:href="#linearGradient2315"
       id="radialGradient3544"
       cx="43.461605"
       cy="63.445568"
       fx="43.461605"
       fy="63.445568"
       r="47.31038"
       gradientTransform="matrix(1.610255,0.4611613,-0.1801798,0.6291406,-15.182446,18.725969)"
       gradientUnits="userSpaceOnUse" />
    <radialGradient
       inkscape:collect="always"
       xlink:href="#linearGradient2315"
       id="radialGradient3554"
       cx="243.36359"
       cy="74.405983"
       fx="243.36359"
       fy="74.405983"
       r="5.5813141"
       gradientTransform="matrix(1.8528616,-3.6472209e-2,2.0472087e-2,1.0400237,-209.07869,7.7498569)"
       gradientUnits="userSpaceOnUse" />
    <radialGradient
       inkscape:collect="always"
       xlink:href="#linearGradient2315"
       id="radialGradient3558"
       cx="240.52664"
       cy="83.788063"
       fx="240.52664"
       fy="83.788063"
       r="6.6082381"
       gradientTransform="matrix(2.2481648,-3.5404282e-2,1.8915912e-2,1.2011566,-301.80181,-8.3388457)"
       gradientUnits="userSpaceOnUse" />
    <radialGradient
       inkscape:collect="always"
       xlink:href="#linearGradient2315"
       id="radialGradient3564"
       cx="15.4375"
       cy="68.3125"
       fx="15.4375"
       fy="68.3125"
       r="3.6875"
       gradientUnits="userSpaceOnUse"
       gradientTransform="matrix(1.8113658,9.5396914e-2,-8.3006289e-2,1.5760966,-6.8550934,-40.827286)" />
    <radialGradient
       inkscape:collect="always"
       xlink:href="#linearGradient2315"
       id="radialGradient3568"
       cx="47.120216"
       cy="74.840065"
       fx="47.120216"
       fy="74.840065"
       r="47.31038"
       gradientTransform="matrix(1.5588034,-0.2219221,0.1001228,0.7032728,-33.824132,41.009001)"
       gradientUnits="userSpaceOnUse" />
    <radialGradient
       inkscape:collect="always"
       xlink:href="#linearGradient2315"
       id="radialGradient3606"
       gradientUnits="userSpaceOnUse"
       gradientTransform="matrix(1.7102681,-2.991024e-2,2.0252117e-2,1.1580164,16.624762,-9.5096942)"
       cx="-25.500473"
       cy="55.133343"
       fx="-25.500473"
       fy="55.133343"
       r="6.7175145" />
    <radialGradient
       inkscape:collect="always"
       xlink:href="#linearGradient4072"
       id="radialGradient3608"
       gradientUnits="userSpaceOnUse"
       gradientTransform="matrix(1.4028467,1.6438735e-6,-1.4520791e-7,0.2058824,-89.844917,403.11278)"
       cx="210.88904"
       cy="506.35242"
       fx="210.88904"
       fy="506.35242"
       r="68" />
    <radialGradient
       inkscape:collect="always"
       xlink:href="#linearGradient2315"
       id="radialGradient3610"
       gradientUnits="userSpaceOnUse"
       gradientTransform="matrix(0.510273,1.0071643,-0.9651122,0.4889677,650.88519,-406.13978)"
       cx="216.99271"
       cy="497.9592"
       fx="216.99271"
       fy="497.9592"
       r="65" />
    <radialGradient
       inkscape:collect="always"
       xlink:href="#linearGradient2315"
       id="radialGradient3612"
       gradientUnits="userSpaceOnUse"
       gradientTransform="matrix(0.387095,1.5161279,-1.4234088,0.3634221,726.51481,-93.106615)"
       cx="233.49998"
       cy="409.86218"
       fx="233.49998"
       fy="409.86218"
       r="15.5" />
    <radialGradient
       inkscape:collect="always"
       xlink:href="#linearGradient2315"
       id="radialGradient3614"
       gradientUnits="userSpaceOnUse"
       gradientTransform="matrix(0.387095,1.5161279,-1.4234088,0.3634221,726.51481,-93.106615)"
       cx="233.49998"
       cy="409.86218"
       fx="233.49998"
       fy="409.86218"
       r="15.5" />
    <radialGradient
       inkscape:collect="always"
       xlink:href="#linearGradient2315"
       id="radialGradient3616"
       gradientUnits="userSpaceOnUse"
       gradientTransform="matrix(1.9343861,0.260032,-7.7257589e-2,0.5747213,-133.46845,133.88258)"
       cx="175.76117"
       cy="410.87479"
       fx="175.76117"
       fy="410.87479"
       r="76.197121" />
    <radialGradient
       inkscape:collect="always"
       xlink:href="#linearGradient2315"
       id="radialGradient3618"
       gradientUnits="userSpaceOnUse"
       gradientTransform="matrix(2.2049136,-1.1483116e-2,9.6579763e-3,1.8543843,-237.61697,-337.63819)"
       cx="195.14418"
       cy="393.60767"
       fx="195.14418"
       fy="393.60767"
       r="26.684567" />
    <radialGradient
       inkscape:collect="always"
       xlink:href="#linearGradient2315"
       id="radialGradient3620"
       gradientUnits="userSpaceOnUse"
       gradientTransform="matrix(4.0081792,6.8979712e-7,-1.7495051e-7,1.0515276,-16.656457,383.00527)"
       cx="52.650291"
       cy="29.570131"
       fx="52.650291"
       fy="29.570131"
       r="14.69311" />
    <radialGradient
       inkscape:collect="always"
       xlink:href="#linearGradient2315"
       id="radialGradient3622"
       gradientUnits="userSpaceOnUse"
       gradientTransform="matrix(1.5588034,-0.2219221,0.1001228,0.7032728,-33.824132,41.009001)"
       cx="47.120216"
       cy="74.840065"
       fx="47.120216"
       fy="74.840065"
       r="47.31038" />
    <radialGradient
       inkscape:collect="always"
       xlink:href="#linearGradient2315"
       id="radialGradient3624"
       gradientUnits="userSpaceOnUse"
       gradientTransform="matrix(1.8528616,-3.6472209e-2,2.0472087e-2,1.0400237,-209.07869,7.7498569)"
       cx="243.36359"
       cy="74.405983"
       fx="243.36359"
       fy="74.405983"
       r="5.5813141" />
    <radialGradient
       inkscape:collect="always"
       xlink:href="#linearGradient2315"
       id="radialGradient3626"
       gradientUnits="userSpaceOnUse"
       gradientTransform="matrix(2.2481648,-3.5404282e-2,1.8915912e-2,1.2011566,-301.80181,-8.3388457)"
       cx="240.52664"
       cy="83.788063"
       fx="240.52664"
       fy="83.788063"
       r="6.6082381" />
    <radialGradient
       inkscape:collect="always"
       xlink:href="#linearGradient2315"
       id="radialGradient3628"
       gradientUnits="userSpaceOnUse"
       gradientTransform="matrix(1.8113658,9.5396914e-2,-8.3006289e-2,1.5760966,-6.8550934,-40.827286)"
       cx="15.4375"
       cy="68.3125"
       fx="15.4375"
       fy="68.3125"
       r="3.6875" />
  </defs>
  <sodipodi:namedview
     id="base"
     pagecolor="#ffffff"
     bordercolor="#666666"
     borderopacity="1.0"
     gridtolerance="10000"
     guidetolerance="10"
     objecttolerance="10"
     inkscape:pageopacity="0.0"
     inkscape:pageshadow="2"
     inkscape:zoom="1"
     inkscape:cx="45.566225"
     inkscape:cy="54"
     inkscape:document-units="px"
     inkscape:current-layer="layer1"
     showgrid="false"
     inkscape:window-width="937"
     inkscape:window-height="717"
     inkscape:window-x="674"
     inkscape:window-y="205"
     showguides="true"
     inkscape:guide-bbox="true"
     height="640px"
     width="128px">
    <inkscape:grid
       type="xygrid"
       id="grid3194"
       originx="0px"
       originy="0px"
       spacingx="0px"
       spacingy="0px" />
  </sodipodi:namedview>
  <metadata
     id="metadata7">
    <rdf:RDF>
      <cc:Work
         rdf:about="">
        <dc:format>image/svg+xml</dc:format>
        <dc:type
           rdf:resource="http://purl.org/dc/dcmitype/StillImage" />
        <dc:title></dc:title>
        <dc:date></dc:date>
        <dc:creator>
          <cc:Agent>
            <dc:title></dc:title>
          </cc:Agent>
        </dc:creator>
        <dc:rights>
          <cc:Agent>
            <dc:title></dc:title>
          </cc:Agent>
        </dc:rights>
        <dc:publisher>
          <cc:Agent>
            <dc:title></dc:title>
          </cc:Agent>
        </dc:publisher>
        <dc:identifier></dc:identifier>
        <dc:source></dc:source>
        <dc:relation></dc:relation>
        <dc:language></dc:language>
        <dc:subject>
          <rdf:Bag />
        </dc:subject>
        <dc:coverage></dc:coverage>
        <dc:description></dc:description>
        <dc:contributor>
          <cc:Agent>
            <dc:title></dc:title>
          </cc:Agent>
        </dc:contributor>
        <cc:license
           rdf:resource="" />
      </cc:Work>
    </rdf:RDF>
  </metadata>
  <g
     inkscape:label="Layer 1"
     inkscape:groupmode="layer"
     id="layer1"
     transform="translate(-233.42021,-11.73452)">
    <g
       id="g3570"
       transform="translate(4.5877113,0)">
      <g
         transform="matrix(1.2121471,0.192861,0,1.4435803,-5.8143062,-36.85207)"
         id="g3521">
        <path
           sodipodi:type="star"
           style="opacity:1;fill:#4d4d4d;fill-opacity:1;stroke:none;stroke-width:4;stroke-linecap:round;stroke-miterlimit:4;stroke-dasharray:none;stroke-opacity:1"
           id="path3513"
           sodipodi:sides="8"
           sodipodi:cx="-23.75"
           sodipodi:cy="57.75"
           sodipodi:r1="6.7175145"
           sodipodi:r2="4.660615"
           sodipodi:arg1="0.78539816"
           sodipodi:arg2="1.1780972"
           inkscape:flatsided="false"
           inkscape:rounded="0"
           inkscape:randomized="0"
           d="M -19,62.5 L -21.96646,62.055847 L -23.75,64.467515 L -25.53354,62.055847 L -28.5,62.5 L -28.055847,59.53354 L -30.467515,57.75 L -28.055847,55.96646 L -28.5,53 L -25.53354,53.444153 L -23.75,51.032485 L -21.96646,53.444153 L -19,53 L -19.444153,55.96646 L -17.032485,57.75 L -19.444153,59.53354 L -19,62.5 z"
           transform="translate(233.42021,11.73452)" />
        <path
           sodipodi:type="arc"
           style="opacity:1;fill:#1a1a1a;fill-opacity:1;stroke:none;stroke-width:4;stroke-linecap:round;stroke-miterlimit:4;stroke-dasharray:none;stroke-opacity:1"
           id="path3515"
           sodipodi:cx="-24.625"
           sodipodi:cy="57.625"
           sodipodi:rx="2.125"
           sodipodi:ry="2.125"
           d="M -22.5,57.625 A 2.125,2.125 0 1 1 -26.75,57.625 A 2.125,2.125 0 1 1 -22.5,57.625 z"
           transform="matrix(1.5407287,0,0,1.5407287,247.70792,-19.336584)" />
        <path
           transform="translate(233.42021,11.73452)"
           d="M -19,62.5 L -21.96646,62.055847 L -23.75,64.467515 L -25.53354,62.055847 L -28.5,62.5 L -28.055847,59.53354 L -30.467515,57.75 L -28.055847,55.96646 L -28.5,53 L -25.53354,53.444153 L -23.75,51.032485 L -21.96646,53.444153 L -19,53 L -19.444153,55.96646 L -17.032485,57.75 L -19.444153,59.53354 L -19,62.5 z"
           inkscape:randomized="0"
           inkscape:rounded="0"
           inkscape:flatsided="false"
           sodipodi:arg2="1.1780972"
           sodipodi:arg1="0.78539816"
           sodipodi:r2="4.660615"
           sodipodi:r1="6.7175145"
           sodipodi:cy="57.75"
           sodipodi:cx="-23.75"
           sodipodi:sides="8"
           id="path3517"
           style="opacity:1;fill:url(#radialGradient3606);fill-opacity:1;stroke:none;stroke-width:4;stroke-linecap:round;stroke-miterlimit:4;stroke-dasharray:none;stroke-opacity:1"
           sodipodi:type="star" />
      </g>
      <path
         id="path4069"
         d="M 274,507.36218 C 274,515.09018 243.536,521.36218 206,521.36218 C 168.464,521.36218 138,515.09018 138,507.36218 C 138,499.63418 168.464,493.36218 206,493.36218 C 243.536,493.36218 274,499.63418 274,507.36218 z"
         style="fill:url(#radialGradient3608);fill-opacity:1;stroke:none;stroke-width:4;stroke-linecap:round;stroke-miterlimit:4;stroke-opacity:1;filter:url(#filter4112)"
         transform="matrix(0.7547997,0,0,0.6110284,141.93148,-182.83256)" />
      <path
         sodipodi:nodetypes="cccsssccssc"
         id="path2327"
         d="M 343.75653,83.695264 C 343.75653,87.147584 343.37835,110.47237 342.66118,113.70991 C 340.89741,122.59166 335.18797,127.70528 326.61412,129.65156 C 322.6291,130.39496 318.09629,114.09405 313.1769,114.0032 C 308.25751,113.91235 302.95155,130.03158 297.42022,130.03158 C 291.86295,130.03158 286.53318,113.90323 281.59437,113.9781 C 276.65557,114.05298 272.10773,130.33108 268.11436,129.56029 C 259.07252,128.05975 254.34488,121.87473 252.11552,113.41774 C 251.4397,110.2701 251.0839,87.043854 251.0839,83.695264 C 251.0839,58.117618 271.84257,37.358948 297.42022,37.358948 C 322.99786,37.358948 343.75653,58.117618 343.75653,83.695264 z"
         style="fill:#726fd6;fill-opacity:1;stroke:none;stroke-width:4;stroke-linecap:round;stroke-miterlimit:4;stroke-opacity:1" />
      <path
         style="fill:url(#radialGradient3610);fill-opacity:1;stroke:none;stroke-width:4;stroke-linecap:round;stroke-miterlimit:4;stroke-opacity:1"
         d="M 343.75653,83.695264 C 343.75653,87.147584 343.37835,110.47237 342.66118,113.70991 C 340.89741,122.59166 335.18797,127.70528 326.61412,129.65156 C 322.6291,130.39496 318.09629,114.09405 313.1769,114.0032 C 308.25751,113.91235 302.95155,130.03158 297.42022,130.03158 C 291.86295,130.03158 286.53318,113.90323 281.59437,113.9781 C 276.65557,114.05298 272.10773,130.33108 268.11436,129.56029 C 259.07252,128.05975 254.34488,121.87473 252.11552,113.41774 C 251.4397,110.2701 251.0839,87.043854 251.0839,83.695264 C 251.0839,58.117618 271.84257,37.358948 297.42022,37.358948 C 322.99786,37.358948 343.75653,58.117618 343.75653,83.695264 z"
         id="path2340"
         sodipodi:nodetypes="cccsssccssc" />
      <g
         transform="matrix(0.7128664,0,0,0.7128664,151.99547,-227.37268)"
         id="g2352">
        <path
           sodipodi:type="arc"
           style="opacity:1;fill:#ffffff;fill-opacity:1;stroke:none;stroke-width:4;stroke-linecap:round;stroke-miterlimit:4;stroke-dasharray:none;stroke-opacity:1"
           id="path2344"
           sodipodi:cx="239.5"
           sodipodi:cy="417.86218"
           sodipodi:rx="15.5"
           sodipodi:ry="15.5"
           d="M 255,417.86218 A 15.5,15.5 0 1 1 224,417.86218 A 15.5,15.5 0 1 1 255,417.86218 z"
           transform="translate(4,7)" />
        <path
           transform="translate(4,7)"
           d="M 255,417.86218 A 15.5,15.5 0 1 1 224,417.86218 A 15.5,15.5 0 1 1 255,417.86218 z"
           sodipodi:ry="15.5"
           sodipodi:rx="15.5"
           sodipodi:cy="417.86218"
           sodipodi:cx="239.5"
           id="path2346"
           style="opacity:1;fill:url(#radialGradient3612);fill-opacity:1;stroke:none;stroke-width:4;stroke-linecap:round;stroke-miterlimit:4;stroke-dasharray:none;stroke-opacity:1"
           sodipodi:type="arc" />
        <path
           sodipodi:type="arc"
           style="opacity:1;fill:#000000;fill-opacity:1;stroke:none;stroke-width:4;stroke-linecap:round;stroke-miterlimit:4;stroke-dasharray:none;stroke-opacity:1"
           id="path2350"
           sodipodi:cx="239.5"
           sodipodi:cy="417.86218"
           sodipodi:rx="15.5"
           sodipodi:ry="15.5"
           d="M 255,417.86218 A 15.5,15.5 0 1 1 224,417.86218 A 15.5,15.5 0 1 1 255,417.86218 z"
           transform="matrix(0.6129032,0,0,0.6129032,101.70968,169.7531)" />
      </g>
      <g
         transform="matrix(0.7128664,0,0,0.7128664,123.48082,-227.37268)"
         id="g2357">
        <path
           transform="translate(4,7)"
           d="M 255,417.86218 A 15.5,15.5 0 1 1 224,417.86218 A 15.5,15.5 0 1 1 255,417.86218 z"
           sodipodi:ry="15.5"
           sodipodi:rx="15.5"
           sodipodi:cy="417.86218"
           sodipodi:cx="239.5"
           id="path2359"
           style="opacity:1;fill:#ffffff;fill-opacity:1;stroke:none;stroke-width:4;stroke-linecap:round;stroke-miterlimit:4;stroke-dasharray:none;stroke-opacity:1"
           sodipodi:type="arc" />
        <path
           sodipodi:type="arc"
           style="opacity:1;fill:url(#radialGradient3614);fill-opacity:1;stroke:none;stroke-width:4;stroke-linecap:round;stroke-miterlimit:4;stroke-dasharray:none;stroke-opacity:1"
           id="path2361"
           sodipodi:cx="239.5"
           sodipodi:cy="417.86218"
           sodipodi:rx="15.5"
           sodipodi:ry="15.5"
           d="M 255,417.86218 A 15.5,15.5 0 1 1 224,417.86218 A 15.5,15.5 0 1 1 255,417.86218 z"
           transform="translate(4,7)" />
        <path
           transform="matrix(0.6129032,0,0,0.6129032,101.70968,169.7531)"
           d="M 255,417.86218 A 15.5,15.5 0 1 1 224,417.86218 A 15.5,15.5 0 1 1 255,417.86218 z"
           sodipodi:ry="15.5"
           sodipodi:rx="15.5"
           sodipodi:cy="417.86218"
           sodipodi:cx="239.5"
           id="path2363"
           style="opacity:1;fill:#000000;fill-opacity:1;stroke:none;stroke-width:4;stroke-linecap:round;stroke-miterlimit:4;stroke-dasharray:none;stroke-opacity:1"
           sodipodi:type="arc" />
      </g>
      <path
         transform="matrix(0.7128664,0,0,0.7128664,148.43114,-234.50134)"
         id="path2371"
         d="M 180.00895,413.25201 C 169.98339,423.52178 159.6027,429.66602 156.83776,426.96684 C 154.07283,424.26764 159.9655,413.74212 169.99105,403.47235 C 180.01661,393.20258 190.3973,387.05834 193.16224,389.75752 C 195.92717,392.45672 190.0345,402.98224 180.00895,413.25201 z"
         style="fill:#ffffff;fill-opacity:0.62745098;stroke:none;stroke-width:4;stroke-linecap:round;stroke-miterlimit:4;stroke-opacity:1;filter:url(#filter3730)" />
      <path
         id="path3734"
         d="M 262,501.86218 C 262,509.31418 259.536,515.36218 256.5,515.36218 C 253.464,515.36218 251,509.31418 251,501.86218 C 251,494.41018 253.464,488.36218 256.5,488.36218 C 259.536,488.36218 262,494.41018 262,501.86218 z"
         style="fill:#ffffff;fill-opacity:0.43438912;stroke:none;stroke-width:4;stroke-linecap:round;stroke-miterlimit:4;stroke-opacity:1;filter:url(#filter4065)"
         transform="matrix(0.5498048,0.4537546,-0.4537546,0.5498048,418.69156,-273.33213)" />
      <g
         transform="matrix(0.6566686,0,0,0.6566686,247.22692,-2.616611)"
         inkscape:label="Layer 1"
         id="g2482">
        <g
           id="g10793"
           transform="matrix(0.829465,0,0,0.829465,-101.1666,-279.931)">
          <path
             sodipodi:nodetypes="ccccccccc"
             id="path10779"
             d="M 182.98113,409.71979 C 174.01567,406.91837 162.12337,412.90627 148.08134,406.12713 C 126.7701,396.91514 117.13246,409.76397 135.27163,424.12997 C 150.01754,433.33437 166.11906,435.46399 182.94178,439.13147 C 206.13494,443.48581 228.50806,445.57045 251.29318,438.01066 C 268.50909,431.80398 290.62761,426.70842 296.19609,407.79232 C 296.43848,391.38185 281.25571,395.00665 267.27279,400.37426 C 257.14446,404.06993 249.33254,403.99822 241.83966,407.12859 C 239.83585,389.32257 202.72201,433.62122 182.98113,409.71979 z"
             style="fill:#c4b07e;fill-opacity:1;fill-rule:evenodd;stroke:none;stroke-width:0.99999952px;stroke-linecap:butt;stroke-linejoin:miter;stroke-opacity:1" />
          <path
             style="fill:url(#radialGradient3616);fill-opacity:1;fill-rule:evenodd;stroke:none;stroke-width:0.99999952px;stroke-linecap:butt;stroke-linejoin:miter;stroke-opacity:1"
             d="M 182.98113,409.71979 C 174.01567,406.91837 162.12337,412.90627 148.08134,406.12713 C 126.7701,396.91514 117.13246,409.76397 135.27163,424.12997 C 150.01754,433.33437 166.11906,435.46399 182.94178,439.13147 C 206.13494,443.48581 228.50806,445.57045 251.29318,438.01066 C 268.50909,431.80398 290.62761,426.70842 296.19609,407.79232 C 296.43848,391.38185 281.25571,395.00665 267.27279,400.37426 C 257.14446,404.06993 249.33254,403.99822 241.83966,407.12859 C 223.87184,416.46139 208.04335,421.38214 182.98113,409.71979 z"
             id="path3318"
             sodipodi:nodetypes="ccccccccc" />
          <path
             style="fill:#c4b07e;fill-opacity:1;fill-rule:evenodd;stroke:none;stroke-width:0.99999952px;stroke-linecap:butt;stroke-linejoin:miter;stroke-opacity:1"
             d="M 232.05174,378.07946 C 219.15155,378.47611 220.77334,379.6591 220.59368,387.21864 C 220.30923,377.94226 206.8199,377.73761 194.19348,380.072 C 182.63502,385.59091 188.98401,401.44834 182.98113,409.71979 C 179.27386,433.65393 250.30126,423.09945 241.83966,407.12859 C 240.73865,398.23286 241.94965,382.3358 232.05174,378.07946 z"
             id="path2546"
             sodipodi:nodetypes="cccccc" />
          <path
             sodipodi:nodetypes="cccccc"
             id="path3326"
             d="M 232.05174,378.07946 C 219.15155,378.47611 220.77334,379.6591 220.59368,387.21864 C 220.30923,377.94226 206.8199,377.73761 194.19348,380.072 C 182.63502,385.59091 188.98401,401.44834 182.98113,409.71979 C 179.27386,433.65393 250.30126,423.09945 241.83966,407.12859 C 240.73865,398.23286 241.94965,382.3358 232.05174,378.07946 z"
             style="fill:url(#radialGradient3618);fill-opacity:1;fill-rule:evenodd;stroke:none;stroke-width:0.99999952px;stroke-linecap:butt;stroke-linejoin:miter;stroke-opacity:1" />
          <path
             sodipodi:nodetypes="ccccc"
             id="path3330"
             d="M 241.88884,404.51154 C 236.11004,415.85289 191.47497,422.08824 183.73399,408.49995 C 182.83688,408.92341 182.71576,408.66277 182.96385,409.71933 C 179.25658,433.65347 250.94207,422.85699 242.48047,406.88614 C 243.32242,405.63262 242.487,404.91597 241.88884,404.51154 z"
             style="fill:#552200;fill-opacity:1;fill-rule:evenodd;stroke:none;stroke-width:0.99999952px;stroke-linecap:butt;stroke-linejoin:miter;stroke-opacity:1" />
          <path
             style="fill:url(#radialGradient3620);fill-opacity:1;fill-rule:evenodd;stroke:none;stroke-width:0.99999952px;stroke-linecap:butt;stroke-linejoin:miter;stroke-opacity:1"
             d="M 241.88884,404.51154 C 236.11004,415.85289 191.47497,422.08824 183.73399,408.49995 C 182.83688,408.92341 182.71576,408.66277 182.96385,409.71933 C 179.25658,433.65347 250.94207,422.85699 242.48047,406.88614 C 243.32242,405.63262 242.487,404.91597 241.88884,404.51154 z"
             id="path3335"
             sodipodi:nodetypes="ccccc" />
          <path
             transform="matrix(1.6995256,1.2415862,-1.1529581,1.8301684,128.37559,288.23668)"
             d="M 58.429151,21.57085 A 3.6923077,1.7489879 0 1 1 51.044535,21.57085 A 3.6923077,1.7489879 0 1 1 58.429151,21.57085 z"
             sodipodi:ry="1.7489879"
             sodipodi:rx="3.6923077"
             sodipodi:cy="21.57085"
             sodipodi:cx="54.736843"
             id="path3339"
             style="opacity:1;fill:#ffffff;fill-opacity:0.73003803;stroke:none;stroke-width:4;stroke-linecap:round;stroke-miterlimit:4;stroke-dasharray:none;stroke-opacity:1;filter:url(#filter3509)"
             sodipodi:type="arc" />
        </g>
      </g>
      <path
         sodipodi:nodetypes="cccccc"
         transform="translate(233.42021,11.73452)"
         id="path3540"
         d="M 17.474874,68.03033 C 38.317536,88.281352 82.087824,92.368307 110.36612,74.603553 C 111.7389,76.191818 112.53241,77.022664 110.18934,78.146446 C 97.967947,85.605381 100.13101,100.40209 84.68934,114.34099 C 60.945465,80.194718 42.629985,97.398341 17.474874,69.378679 C 16.466249,68.716143 17.633541,67.992872 17.474874,68.03033 z"
         style="fill:#ff0000;fill-rule:evenodd;stroke:none;stroke-width:1px;stroke-linecap:butt;stroke-linejoin:miter;stroke-opacity:1" />
      <path
         style="fill:url(#radialGradient3622);fill-rule:evenodd;stroke:none;stroke-width:1px;stroke-linecap:butt;stroke-linejoin:miter;stroke-opacity:1"
         d="M 17.474874,68.03033 C 38.317536,88.281352 82.087824,92.368307 110.36612,74.603553 C 111.7389,76.191818 112.53241,77.022664 110.18934,78.146446 C 97.967947,85.605381 100.13101,100.40209 84.68934,114.34099 C 60.945465,80.194718 42.629985,97.398341 17.474874,69.378679 C 16.466249,68.716143 17.633541,67.992872 17.474874,68.03033 z"
         id="path3566"
         transform="translate(233.42021,11.73452)"
         sodipodi:nodetypes="cccccc" />
      <path
         style="fill:#ff0000;fill-rule:evenodd;stroke:none;stroke-width:1px;stroke-linecap:butt;stroke-linejoin:miter;stroke-opacity:1"
         d="M 238.65744,77.177549 C 238.60775,77.580799 249.47828,83.689859 249.80907,79.449822 C 249.94579,77.697338 248.92676,72.615485 238.65744,77.177549 z"
         id="path3550"
         sodipodi:nodetypes="csc" />
      <path
         sodipodi:nodetypes="csc"
         id="path3552"
         d="M 238.65744,77.177549 C 238.60775,77.580799 249.47828,83.689859 249.80907,79.449822 C 249.94579,77.697338 248.92676,72.615485 238.65744,77.177549 z"
         style="fill:url(#radialGradient3624);fill-rule:evenodd;stroke:none;stroke-width:1px;stroke-linecap:butt;stroke-linejoin:miter;stroke-opacity:1" />
      <path
         sodipodi:nodetypes="csc"
         id="path3548"
         d="M 236.92021,86.98452 C 236.75181,86.479328 248.38335,75.873931 249.92021,81.23452 C 250.55542,83.450147 250.67021,90.23452 236.92021,86.98452 z"
         style="fill:#ff0000;fill-rule:evenodd;stroke:none;stroke-width:1px;stroke-linecap:butt;stroke-linejoin:miter;stroke-opacity:1" />
      <path
         style="fill:url(#radialGradient3626);fill-rule:evenodd;stroke:none;stroke-width:1px;stroke-linecap:butt;stroke-linejoin:miter;stroke-opacity:1"
         d="M 236.92021,86.98452 C 236.75181,86.479328 248.38335,75.873931 249.92021,81.23452 C 250.55542,83.450147 250.67021,90.23452 236.92021,86.98452 z"
         id="path3556"
         sodipodi:nodetypes="csc" />
      <path
         transform="translate(232.42021,10.85952)"
         d="M 21.25,69.5625 A 3.6875,3.6875 0 1 1 13.875,69.5625 A 3.6875,3.6875 0 1 1 21.25,69.5625 z"
         sodipodi:ry="3.6875"
         sodipodi:rx="3.6875"
         sodipodi:cy="69.5625"
         sodipodi:cx="17.5625"
         id="path3560"
         style="opacity:1;fill:#ff0000;fill-opacity:1;stroke:none;stroke-width:4;stroke-linecap:round;stroke-miterlimit:4;stroke-dasharray:none;stroke-opacity:1"
         sodipodi:type="arc" />
      <path
         sodipodi:type="arc"
         style="opacity:1;fill:url(#radialGradient3628);fill-opacity:1;stroke:none;stroke-width:4;stroke-linecap:round;stroke-miterlimit:4;stroke-dasharray:none;stroke-opacity:1"
         id="path3562"
         sodipodi:cx="17.5625"
         sodipodi:cy="69.5625"
         sodipodi:rx="3.6875"
         sodipodi:ry="3.6875"
         d="M 21.25,69.5625 A 3.6875,3.6875 0 1 1 13.875,69.5625 A 3.6875,3.6875 0 1 1 21.25,69.5625 z"
         transform="translate(232.42021,10.85952)" />
    </g>
  </g>
</svg>
