<?xml version="1.0" encoding="UTF-8" standalone="no"?>
<!-- Created with Inkscape (http://www.inkscape.org/) -->
<svg
   xmlns:dc="http://purl.org/dc/elements/1.1/"
   xmlns:cc="http://creativecommons.org/ns#"
   xmlns:rdf="http://www.w3.org/1999/02/22-rdf-syntax-ns#"
   xmlns:svg="http://www.w3.org/2000/svg"
   xmlns="http://www.w3.org/2000/svg"
   xmlns:xlink="http://www.w3.org/1999/xlink"
   xmlns:sodipodi="http://sodipodi.sourceforge.net/DTD/sodipodi-0.dtd"
   xmlns:inkscape="http://www.inkscape.org/namespaces/inkscape"
   width="128"
   height="128"
   id="svg2"
   sodipodi:version="0.32"
   inkscape:version="0.45+devel"
   sodipodi:docname="geisha.svg"
   inkscape:output_extension="org.inkscape.output.svg.inkscape"
   version="1.0"
   inkscape:export-filename="/home/nicu/Desktop/pacman/pacman.png"
   inkscape:export-xdpi="90"
   inkscape:export-ydpi="90">
  <defs
     id="defs4">
    <linearGradient
       id="linearGradient4072">
      <stop
         style="stop-color:#000000;stop-opacity:1;"
         offset="0"
         id="stop4074" />
      <stop
         style="stop-color:#000000;stop-opacity:0;"
         offset="1"
         id="stop4076" />
    </linearGradient>
    <linearGradient
       id="linearGradient2315">
      <stop
         style="stop-color:#000000;stop-opacity:0;"
         offset="0"
         id="stop2317" />
      <stop
         style="stop-color:#000000;stop-opacity:0.57195574;"
         offset="1"
         id="stop2319" />
    </linearGradient>
    <filter
       inkscape:collect="always"
       id="filter3730"
       x="-0.34801543"
       width="1.6960309"
       y="-0.34084839"
       height="1.6816968">
      <feGaussianBlur
         inkscape:collect="always"
         stdDeviation="5.4650567"
         id="feGaussianBlur3732" />
    </filter>
    <filter
       inkscape:collect="always"
       id="filter4065"
       x="-0.51975077"
       width="2.0395014"
       y="-0.45338511"
       height="1.9067702">
      <feGaussianBlur
         inkscape:collect="always"
         stdDeviation="4.1511594"
         id="feGaussianBlur4067" />
    </filter>
    <filter
       inkscape:collect="always"
       id="filter4112"
       x="-0.070020586"
       width="1.1400412"
       y="-0.34009999"
       height="1.6802">
      <feGaussianBlur
         inkscape:collect="always"
         stdDeviation="3.9678331"
         id="feGaussianBlur4114" />
    </filter>
    <radialGradient
       inkscape:collect="always"
       xlink:href="#linearGradient4072"
       id="radialGradient3461"
       gradientUnits="userSpaceOnUse"
       gradientTransform="matrix(1.4028467,1.6438735e-6,-1.4520791e-7,0.2058824,-89.844917,403.11278)"
       cx="210.88904"
       cy="506.35242"
       fx="210.88904"
       fy="506.35242"
       r="68" />
    <radialGradient
       inkscape:collect="always"
       xlink:href="#linearGradient2315"
       id="radialGradient3463"
       gradientUnits="userSpaceOnUse"
       gradientTransform="matrix(0.7158046,1.4128374,-1.3538472,0.6859177,735.83621,-155.77224)"
       cx="216.99271"
       cy="497.9592"
       fx="216.99271"
       fy="497.9592"
       r="65" />
    <radialGradient
       inkscape:collect="always"
       xlink:href="#linearGradient2315"
       id="radialGradient3484"
       cx="340.4061"
       cy="539.77386"
       fx="340.4061"
       fy="539.77386"
       r="13.701613"
       gradientTransform="matrix(1.5523861,2.5873171e-2,-1.5155223e-2,0.9093106,-179.85521,44.49181)"
       gradientUnits="userSpaceOnUse" />
    <radialGradient
       inkscape:collect="always"
       xlink:href="#linearGradient2315"
       id="radialGradient3486"
       cx="341.40826"
       cy="540.85229"
       fx="341.40826"
       fy="540.85229"
       r="13.701613"
       gradientTransform="matrix(1.6398899,0.3725125,-0.1420996,0.6255563,-141.60881,79.047302)"
       gradientUnits="userSpaceOnUse" />
    <radialGradient
       inkscape:collect="always"
       xlink:href="#linearGradient2315"
       id="radialGradient3519"
       cx="335.16031"
       cy="506.15158"
       fx="335.16031"
       fy="506.15158"
       r="19.625"
       gradientTransform="matrix(1.0494766,-0.1817505,0.1599498,0.9235933,-97.576737,103.56924)"
       gradientUnits="userSpaceOnUse" />
    <radialGradient
       inkscape:collect="always"
       xlink:href="#linearGradient2315"
       id="radialGradient3529"
       cx="302.85355"
       cy="526.92505"
       fx="302.85355"
       fy="526.92505"
       r="23.146437"
       gradientTransform="matrix(1.8422797,-4.1506988e-2,3.7104826e-2,1.6468905,-274.63884,-334.34238)"
       gradientUnits="userSpaceOnUse" />
    <radialGradient
       inkscape:collect="always"
       xlink:href="#linearGradient2315"
       id="radialGradient3535"
       cx="363.19641"
       cy="510.65225"
       fx="363.19641"
       fy="510.65225"
       r="10.696412"
       gradientTransform="matrix(1.0934893,0.1636063,-0.1458165,0.9745884,40.506545,-46.385613)"
       gradientUnits="userSpaceOnUse" />
    <radialGradient
       inkscape:collect="always"
       xlink:href="#linearGradient2315"
       id="radialGradient3541"
       cx="296.21054"
       cy="504.29034"
       fx="296.21054"
       fy="504.29034"
       r="22.875"
       gradientTransform="matrix(1.6475938,7.6417608e-2,-3.8397701e-2,0.8278696,-172.43513,67.764326)"
       gradientUnits="userSpaceOnUse" />
    <radialGradient
       inkscape:collect="always"
       xlink:href="#linearGradient2315"
       id="radialGradient3578"
       cx="229.36327"
       cy="462.5712"
       fx="229.36327"
       fy="462.5712"
       r="11.337955"
       gradientTransform="matrix(1.6079993,3.6723519e-6,-8.245606e-7,0.3610473,-139.58952,297.16552)"
       gradientUnits="userSpaceOnUse" />
    <radialGradient
       inkscape:collect="always"
       xlink:href="#linearGradient2315"
       id="radialGradient3601"
       cx="193.16049"
       cy="355.79398"
       fx="193.16049"
       fy="355.79398"
       r="28.832781"
       gradientTransform="matrix(1.3098265,-0.1688752,7.4721593e-2,0.579554,-86.431733,192.08222)"
       gradientUnits="userSpaceOnUse" />
    <radialGradient
       inkscape:collect="always"
       xlink:href="#linearGradient2315"
       id="radialGradient3607"
       cx="31.822264"
       cy="402.33777"
       fx="31.822264"
       fy="402.33777"
       r="13.166692"
       gradientTransform="matrix(1.4411659,5.9879585e-2,-8.975197e-5,0.2058327,-14.002784,322.67116)"
       gradientUnits="userSpaceOnUse" />
    <radialGradient
       inkscape:collect="always"
       xlink:href="#linearGradient2315"
       id="radialGradient3611"
       cx="124.65275"
       cy="410.42328"
       fx="124.65275"
       fy="410.42328"
       r="12.474555"
       gradientTransform="matrix(1.4454647,-2.1681498e-2,1.5570553e-2,0.2392522,-61.983982,318.9056)"
       gradientUnits="userSpaceOnUse" />
    <filter
       inkscape:collect="always"
       id="filter3908"
       x="-0.21481311"
       width="1.4296262"
       y="-0.30744708"
       height="1.6148942">
      <feGaussianBlur
         inkscape:collect="always"
         stdDeviation="1.5225088"
         id="feGaussianBlur3910" />
    </filter>
  </defs>
  <sodipodi:namedview
     id="base"
     pagecolor="#ffffff"
     bordercolor="#666666"
     borderopacity="1.0"
     gridtolerance="10000"
     guidetolerance="10"
     objecttolerance="10"
     inkscape:pageopacity="0.0"
     inkscape:pageshadow="2"
     inkscape:zoom="1"
     inkscape:cx="65.381063"
     inkscape:cy="75.354526"
     inkscape:document-units="px"
     inkscape:current-layer="layer1"
     showgrid="false"
     inkscape:window-width="937"
     inkscape:window-height="697"
     inkscape:window-x="674"
     inkscape:window-y="205"
     showguides="true"
     inkscape:guide-bbox="true"
     height="640px"
     width="128px">
    <inkscape:grid
       type="xygrid"
       id="grid3194"
       originx="0px"
       originy="0px"
       spacingx="0px"
       spacingy="0px" />
  </sodipodi:namedview>
  <metadata
     id="metadata7">
    <rdf:RDF>
      <cc:Work
         rdf:about="">
        <dc:format>image/svg+xml</dc:format>
        <dc:type
           rdf:resource="http://purl.org/dc/dcmitype/StillImage" />
      </cc:Work>
    </rdf:RDF>
  </metadata>
  <g
     inkscape:label="Layer 1"
     inkscape:groupmode="layer"
     id="layer1"
     transform="translate(-233.42021,-11.73452)">
    <g
       transform="matrix(0.7128664,0,0,0.7128664,148.43114,-234.50134)"
       id="g3432">
      <path
         transform="matrix(0.9653497,-0.2609596,0.3018198,0.953365,0,0)"
         style="fill:#c87137;fill-opacity:1;stroke:none;stroke-width:4;stroke-linecap:round;stroke-miterlimit:4;stroke-opacity:1"
         d="M 112.00923,413.66968 L 135.89973,413.66968 C 137.6581,415.16966 136.9164,416.42038 135.89973,417.64368 L 112.00923,417.64368 L 112.00923,413.66968 z"
         id="rect3553"
         sodipodi:nodetypes="ccccc" />
      <path
         sodipodi:nodetypes="ccccc"
         id="path3609"
         d="M 112.00923,413.66968 L 135.89973,413.66968 C 137.6581,415.16966 136.9164,416.42038 135.89973,417.64368 L 112.00923,417.64368 L 112.00923,413.66968 z"
         style="fill:url(#radialGradient3611);fill-opacity:1;stroke:none;stroke-width:4;stroke-linecap:round;stroke-miterlimit:4;stroke-opacity:1"
         transform="matrix(0.9653497,-0.2609596,0.3018198,0.953365,0,0)" />
      <path
         sodipodi:type="arc"
         style="opacity:1;fill:#1a1a1a;fill-opacity:1;stroke:none;stroke-width:4;stroke-linecap:round;stroke-miterlimit:4;stroke-dasharray:none;stroke-opacity:1"
         id="path3537"
         sodipodi:cx="310.125"
         sodipodi:cy="516.25"
         sodipodi:rx="22.875"
         sodipodi:ry="15.25"
         d="M 333,516.25 A 22.875,15.25 0 1 1 287.25,516.25 A 22.875,15.25 0 1 1 333,516.25 z"
         transform="matrix(1.5948465,-0.2028456,0.2028456,1.5948465,-396.4778,-386.94787)" />
      <path
         transform="matrix(1.5948465,-0.2028456,0.2028456,1.5948465,-396.4778,-386.94787)"
         d="M 333,516.25 A 22.875,15.25 0 1 1 287.25,516.25 A 22.875,15.25 0 1 1 333,516.25 z"
         sodipodi:ry="15.25"
         sodipodi:rx="22.875"
         sodipodi:cy="516.25"
         sodipodi:cx="310.125"
         id="path3539"
         style="opacity:1;fill:url(#radialGradient3541);fill-opacity:1;stroke:none;stroke-width:4;stroke-linecap:round;stroke-miterlimit:4;stroke-dasharray:none;stroke-opacity:1"
         sodipodi:type="arc" />
      <path
         style="fill:#c87137;fill-opacity:1;stroke:none;stroke-width:4;stroke-linecap:round;stroke-miterlimit:4;stroke-opacity:1"
         d="M 176.72671,369.35129 C 192.85225,361.52223 212.72599,357.27245 234.39227,364.35408 L 231.00383,379.39639 L 186.99192,386.44932 L 176.72671,369.35129 z"
         id="rect3546"
         sodipodi:nodetypes="ccccc" />
      <path
         transform="matrix(1.0588235,0,0,0.8571429,-9.117647,72.480312)"
         style="fill:url(#radialGradient3461);fill-opacity:1;stroke:none;stroke-width:4;stroke-linecap:round;stroke-miterlimit:4;stroke-opacity:1;filter:url(#filter4112)"
         d="M 274,507.36218 C 274,515.09018 243.536,521.36218 206,521.36218 C 168.464,521.36218 138,515.09018 138,507.36218 C 138,499.63418 168.464,493.36218 206,493.36218 C 243.536,493.36218 274,499.63418 274,507.36218 z"
         id="path3434" />
      <path
         transform="translate(-31,-85)"
         style="fill:#fffbbc;fill-opacity:1;stroke:none;stroke-width:4;stroke-linecap:round;stroke-miterlimit:4;stroke-opacity:1"
         d="M 305,531.36218 C 305,536.20505 304.46949,568.92477 303.46346,573.46635 C 300.98926,585.92556 292.98013,593.09887 280.95284,595.82909 C 275.3627,596.87193 269.00413,574.00521 262.10328,573.87777 C 255.20242,573.75033 247.75928,596.36218 240,596.36218 C 232.20434,596.36218 224.7278,573.73753 217.7997,573.84256 C 210.87161,573.9476 204.49197,596.78232 198.89011,595.70106 C 186.20634,593.59612 179.57446,584.91986 176.44715,573.05649 C 175.49911,568.64103 175,536.05954 175,531.36218 C 175,495.48218 204.12,466.36218 240,466.36218 C 275.88,466.36218 305,495.48218 305,531.36218 z"
         id="path3436"
         sodipodi:nodetypes="cccsssccssc" />
      <path
         sodipodi:nodetypes="cccsssccssc"
         id="path3438"
         d="M 305,531.36218 C 305,536.20505 304.46949,568.92477 303.46346,573.46635 C 300.98926,585.92556 292.98013,593.09887 280.95284,595.82909 C 275.3627,596.87193 269.00413,574.00521 262.10328,573.87777 C 255.20242,573.75033 247.75928,596.36218 240,596.36218 C 232.20434,596.36218 224.7278,573.73753 217.7997,573.84256 C 210.87161,573.9476 204.49197,596.78232 198.89011,595.70106 C 186.20634,593.59612 179.57446,584.91986 176.44715,573.05649 C 175.49911,568.64103 175,536.05954 175,531.36218 C 175,495.48218 204.12,466.36218 240,466.36218 C 275.88,466.36218 305,495.48218 305,531.36218 z"
         style="fill:url(#radialGradient3463);fill-opacity:1;stroke:none;stroke-width:4;stroke-linecap:round;stroke-miterlimit:4;stroke-opacity:1"
         transform="translate(-31,-85)" />
      <path
         transform="matrix(0.7712592,0.6365212,-0.6365212,0.7712592,379.11791,-54.471338)"
         style="fill:#ffffff;fill-opacity:0.43438912;stroke:none;stroke-width:4;stroke-linecap:round;stroke-miterlimit:4;stroke-opacity:1;filter:url(#filter4065)"
         d="M 262,501.86218 C 262,509.31418 259.536,515.36218 256.5,515.36218 C 253.464,515.36218 251,509.31418 251,501.86218 C 251,494.41018 253.464,488.36218 256.5,488.36218 C 259.536,488.36218 262,494.41018 262,501.86218 z"
         id="path3459" />
      <path
         style="fill:#000000;fill-opacity:1;stroke:none;stroke-width:4;stroke-linecap:round;stroke-miterlimit:4;stroke-opacity:1"
         d="M 330.65625,551.03125 L 331.1875,553.8125 C 331.02037,553.9373 330.86991,554.08157 330.71875,554.25 L 328.46875,553.21875 L 330.09375,555.1875 C 329.6372,556.06382 329.2819,557.26444 329.0625,558.90625 C 328.65517,561.95434 334.09268,565.50711 341.53125,566.875 C 348.96981,568.2429 355.47508,566.8995 356.03125,563.875 C 356.58743,560.85052 351.00106,557.27413 343.5625,555.90625 C 340.00287,555.25166 336.82534,553.67912 334.34375,553.28125 L 333.78125,551.15625 L 332.78125,553.21875 C 332.63365,553.23484 332.48419,553.28029 332.34375,553.3125 L 330.65625,551.03125 z"
         transform="matrix(1.4027874,0,0,1.4027874,-271.36679,-353.15974)"
         id="path3494" />
      <path
         sodipodi:type="arc"
         style="opacity:1;fill:#ffffff;fill-opacity:1;stroke:none;stroke-width:4;stroke-linecap:round;stroke-miterlimit:4;stroke-dasharray:none;stroke-opacity:1"
         id="path3469"
         sodipodi:cx="345.85281"
         sodipodi:cy="547.10004"
         sodipodi:rx="13.701613"
         sodipodi:ry="5.5709858"
         d="M 359.55443,547.10004 A 13.701613,5.5709858 0 1 1 332.1512,547.10004 A 13.701613,5.5709858 0 1 1 359.55443,547.10004 z"
         transform="matrix(1.3796536,0.2537091,-0.2537091,1.3796536,-129.20834,-408.20374)" />
      <path
         style="fill:#000000;fill-opacity:1;stroke:none;stroke-width:4;stroke-linecap:round;stroke-miterlimit:4;stroke-opacity:1"
         d="M 379.59375,544.09375 L 378.40625,546.28125 C 378.11167,546.19529 377.81725,546.15079 377.53125,546.15625 L 376.53125,544.6875 L 376.3125,546.4375 C 374.00018,547.38268 371.68809,550.57062 368.09375,552.625 C 361.52735,556.37809 357.41152,561.61137 358.9375,564.28125 C 360.46348,566.9511 367.05859,566.06559 373.625,562.3125 C 380.1914,558.55941 384.27599,553.35738 382.75,550.6875 C 382.06478,549.56999 381.41325,548.7038 380.8125,548.03125 L 382.09375,545.90625 L 380.03125,547.25 C 379.8465,547.08921 379.6789,546.93486 379.5,546.8125 L 379.59375,544.09375 z"
         transform="matrix(1.4027874,0,0,1.4027874,-271.36679,-353.15974)"
         id="path3497" />
      <path
         transform="matrix(1.2178916,-0.6960979,0.6960979,1.2178916,-553.19378,3.2981393)"
         d="M 359.55443,547.10004 A 13.701613,5.5709858 0 1 1 332.1512,547.10004 A 13.701613,5.5709858 0 1 1 359.55443,547.10004 z"
         sodipodi:ry="5.5709858"
         sodipodi:rx="13.701613"
         sodipodi:cy="547.10004"
         sodipodi:cx="345.85281"
         id="path3477"
         style="opacity:1;fill:#ffffff;fill-opacity:1;stroke:none;stroke-width:4;stroke-linecap:round;stroke-miterlimit:4;stroke-dasharray:none;stroke-opacity:1"
         sodipodi:type="arc" />
      <path
         transform="matrix(1.3796536,0.2537091,-0.2537091,1.3796536,-129.20834,-408.20374)"
         d="M 359.55443,547.10004 A 13.701613,5.5709858 0 1 1 332.1512,547.10004 A 13.701613,5.5709858 0 1 1 359.55443,547.10004 z"
         sodipodi:ry="5.5709858"
         sodipodi:rx="13.701613"
         sodipodi:cy="547.10004"
         sodipodi:cx="345.85281"
         id="path3480"
         style="opacity:1;fill:url(#radialGradient3484);fill-opacity:1;stroke:none;stroke-width:4;stroke-linecap:round;stroke-miterlimit:4;stroke-dasharray:none;stroke-opacity:1"
         sodipodi:type="arc" />
      <path
         sodipodi:type="arc"
         style="opacity:1;fill:url(#radialGradient3486);fill-opacity:1;stroke:none;stroke-width:4;stroke-linecap:round;stroke-miterlimit:4;stroke-dasharray:none;stroke-opacity:1"
         id="path3482"
         sodipodi:cx="345.85281"
         sodipodi:cy="547.10004"
         sodipodi:rx="13.701613"
         sodipodi:ry="5.5709858"
         d="M 359.55443,547.10004 A 13.701613,5.5709858 0 1 1 332.1512,547.10004 A 13.701613,5.5709858 0 1 1 359.55443,547.10004 z"
         transform="matrix(1.2178916,-0.6960979,0.6960979,1.2178916,-553.19378,3.2981393)" />
      <path
         sodipodi:type="arc"
         style="opacity:1;fill:#000000;fill-opacity:1;stroke:none;stroke-width:4;stroke-linecap:round;stroke-miterlimit:4;stroke-dasharray:none;stroke-opacity:1"
         id="path3490"
         sodipodi:cx="348.86417"
         sodipodi:cy="546.79889"
         sodipodi:rx="4.3664484"
         sodipodi:ry="4.3664484"
         d="M 353.23061,546.79889 A 4.3664484,4.3664484 0 1 1 344.49772,546.79889 A 4.3664484,4.3664484 0 1 1 353.23061,546.79889 z"
         transform="matrix(1.4027874,0,0,1.4027874,-279.39291,-333.11419)" />
      <path
         transform="matrix(1.4027874,0,0,1.4027874,-237.99502,-339.02818)"
         d="M 353.23061,546.79889 A 4.3664484,4.3664484 0 1 1 344.49772,546.79889 A 4.3664484,4.3664484 0 1 1 353.23061,546.79889 z"
         sodipodi:ry="4.3664484"
         sodipodi:rx="4.3664484"
         sodipodi:cy="546.79889"
         sodipodi:cx="348.86417"
         id="path3492"
         style="opacity:1;fill:#000000;fill-opacity:1;stroke:none;stroke-width:4;stroke-linecap:round;stroke-miterlimit:4;stroke-dasharray:none;stroke-opacity:1"
         sodipodi:type="arc" />
      <path
         style="fill:#000000;fill-opacity:1;fill-rule:evenodd;stroke:none;stroke-width:1px;stroke-linecap:butt;stroke-linejoin:miter;stroke-opacity:1"
         d="M 189.97492,414.55951 L 190.32561,415.87462 C 203.06915,412.40999 211.54186,418.31553 221.05542,422.84472 L 221.66914,421.61728 C 211.76058,415.26745 201.3199,405.21411 189.97492,414.55951 z"
         id="path3500"
         sodipodi:nodetypes="ccccc" />
      <path
         sodipodi:nodetypes="ccccc"
         id="path3507"
         d="M 259.57379,407.77987 L 259.55504,409.1408 C 246.35122,408.89475 239.57816,416.69141 231.45952,423.40774 L 230.56451,422.36744 C 238.62135,413.78914 246.28932,401.48956 259.57379,407.77987 z"
         style="fill:#000000;fill-opacity:1;fill-rule:evenodd;stroke:none;stroke-width:1px;stroke-linecap:butt;stroke-linejoin:miter;stroke-opacity:1" />
      <path
         style="fill:#1a1a1a;fill-rule:evenodd;stroke:none;stroke-width:1px;stroke-linecap:butt;stroke-linejoin:miter;stroke-opacity:1"
         d="M 360,504.25 C 363.03078,509.38105 366.8012,514.12896 364,522.5 C 369.58333,518.68389 375.16667,521.89458 380.75,525.25 C 383.96231,525.4971 374.83901,502.66069 360,504.25 z"
         id="path3531"
         transform="matrix(1.4027874,0,0,1.4027874,-271.36679,-329.31235)"
         sodipodi:nodetypes="cccc" />
      <path
         sodipodi:nodetypes="ccccc"
         id="path3599"
         d="M 176.72671,369.35129 C 192.85225,361.52223 212.72599,357.27245 234.39227,364.35408 L 231.00383,379.39639 L 186.99192,386.44932 L 176.72671,369.35129 z"
         style="fill:url(#radialGradient3601);fill-opacity:1;stroke:none;stroke-width:4;stroke-linecap:round;stroke-miterlimit:4;stroke-opacity:1" />
      <path
         sodipodi:nodetypes="cccc"
         transform="matrix(1.4027874,0,0,1.4027874,-271.36679,-329.31235)"
         id="path3533"
         d="M 360,504.25 C 363.03078,509.38105 366.8012,514.12896 364,522.5 C 369.58333,518.68389 375.16667,521.89458 380.75,525.25 C 383.96231,525.4971 374.83901,502.66069 360,504.25 z"
         style="fill:url(#radialGradient3535);fill-rule:evenodd;stroke:none;stroke-width:1px;stroke-linecap:butt;stroke-linejoin:miter;stroke-opacity:1" />
      <path
         style="fill:#1a1a1a;fill-rule:evenodd;stroke:none;stroke-width:1px;stroke-linecap:butt;stroke-linejoin:miter;stroke-opacity:1"
         d="M 326.75,507.75 C 337.34888,502.89646 348.22205,498.9115 362.75,506.5 C 365.51548,512.09107 365.85484,516.46909 366,520.75 C 361.51785,522.36903 357.49581,524.90829 355,530.5 C 349.64549,526.72974 345.59293,520.78956 336.5,523.25 C 334.48018,518.32937 332.0577,513.32821 326.75,507.75 z"
         id="path3513"
         transform="matrix(1.4027874,0,0,1.4027874,-271.36679,-329.31235)"
         sodipodi:nodetypes="cccccc" />
      <path
         sodipodi:nodetypes="cccccc"
         transform="matrix(1.4027874,0,0,1.4027874,-271.36679,-329.31235)"
         id="path3517"
         d="M 326.75,507.75 C 337.34888,502.89646 348.22205,498.9115 362.75,506.5 C 365.51548,512.09107 365.85484,516.46909 366,520.75 C 361.51785,522.36903 357.49581,524.90829 355,530.5 C 349.64549,526.72974 345.59293,520.78956 336.5,523.25 C 334.48018,518.32937 332.0577,513.32821 326.75,507.75 z"
         style="fill:url(#radialGradient3519);fill-rule:evenodd;stroke:none;stroke-width:1px;stroke-linecap:butt;stroke-linejoin:miter;stroke-opacity:1" />
      <path
         style="fill:#1a1a1a;fill-rule:evenodd;stroke:none;stroke-width:1px;stroke-linecap:butt;stroke-linejoin:miter;stroke-opacity:1"
         d="M 327.25,504.5 C 337.23991,508.04671 336.33783,517.03942 339,524.25 C 311.83765,521.10078 309.80591,556.19378 296.25,573.75 C 296.25,573.75 277.25,511.75 327.25,504.5 z"
         id="path3515"
         transform="matrix(1.4027874,0,0,1.4027874,-271.36679,-329.31235)"
         sodipodi:nodetypes="cccc" />
      <path
         sodipodi:nodetypes="cccc"
         transform="matrix(1.4027874,0,0,1.4027874,-271.36679,-329.31235)"
         id="path3527"
         d="M 327.25,504.5 C 337.23991,508.04671 336.33783,517.03942 339,524.25 C 311.83765,521.10078 309.80591,556.19378 296.25,573.75 C 296.25,573.75 277.25,511.75 327.25,504.5 z"
         style="fill:url(#radialGradient3529);fill-rule:evenodd;stroke:none;stroke-width:1px;stroke-linecap:butt;stroke-linejoin:miter;stroke-opacity:1" />
      <path
         transform="matrix(0.9653497,-0.2609596,0.3018198,0.953365,0,0)"
         style="fill:#c87137;fill-opacity:1;stroke:none;stroke-width:4;stroke-linecap:round;stroke-miterlimit:4;stroke-opacity:1"
         d="M 23.158112,406.30209 L 47.048615,406.30209 C 48.296704,407.55473 48.745598,408.8535 47.048615,410.2761 L 23.158112,410.2761 C 20.709664,409.29688 22.205458,407.76117 23.158112,406.30209 z"
         id="rect3551"
         sodipodi:nodetypes="ccccc" />
      <path
         style="fill:#ff0000;fill-rule:evenodd;stroke:none;stroke-width:1px;stroke-linecap:butt;stroke-linejoin:miter;stroke-opacity:1"
         d="M 234.5776,463.89804 C 238.81043,461.2621 240.68497,463.01267 244.9178,462.99101 C 239.04828,468.66783 229.77977,468.88141 222.24189,465.5307 C 225.29141,463.3366 230.45138,462.92338 234.5776,463.89804 z"
         id="path3574"
         sodipodi:nodetypes="cccc" />
      <path
         sodipodi:nodetypes="cccc"
         id="path3576"
         d="M 234.5776,463.89804 C 238.81043,461.2621 240.68497,463.01267 244.9178,462.99101 C 239.04828,468.66783 229.77977,468.88141 222.24189,465.5307 C 225.29141,463.3366 230.45138,462.92338 234.5776,463.89804 z"
         style="fill:url(#radialGradient3578);fill-rule:evenodd;stroke:none;stroke-width:1px;stroke-linecap:butt;stroke-linejoin:miter;stroke-opacity:1" />
      <path
         sodipodi:nodetypes="ccccc"
         id="path3605"
         d="M 23.158112,406.30209 L 47.048615,406.30209 C 48.296704,407.55473 48.745598,408.8535 47.048615,410.2761 L 23.158112,410.2761 C 20.709664,409.29688 22.205458,407.76117 23.158112,406.30209 z"
         style="fill:url(#radialGradient3607);fill-opacity:1;stroke:none;stroke-width:4;stroke-linecap:round;stroke-miterlimit:4;stroke-opacity:1"
         transform="matrix(0.9653497,-0.2609596,0.3018198,0.953365,0,0)" />
      <path
         style="fill:#ffffff;fill-opacity:0.62745098;stroke:none;stroke-width:4;stroke-linecap:round;stroke-miterlimit:4;stroke-opacity:1;filter:url(#filter3730)"
         d="M 174.80137,414.24393 C 164.77581,424.5137 154.39512,430.65794 151.63018,427.95876 C 148.86525,425.25956 154.75792,414.73404 164.78347,404.46427 C 174.80903,394.1945 185.18972,388.05026 187.95466,390.74944 C 190.71959,393.44864 184.82692,403.97416 174.80137,414.24393 z"
         id="path3456" />
      <path
         style="fill:#ffffff;fill-opacity:0.41552513;stroke:none;stroke-width:4;stroke-linecap:round;stroke-miterlimit:4;stroke-opacity:1;filter:url(#filter3908)"
         d="M 186.40346,364.66488 C 181.85593,367.19011 177.22133,367.53989 176.05839,365.44563 C 174.89546,363.35137 177.64238,359.60221 182.18991,357.07697 C 186.73746,354.55173 191.37205,354.20195 192.53499,356.29621 C 193.69793,358.39047 190.951,362.13963 186.40346,364.66488 z"
         id="path3613" />
    </g>
  </g>
</svg>
