<?xml version="1.0" encoding="UTF-8" standalone="no"?>
<!-- Created with Inkscape (http://www.inkscape.org/) -->
<svg
   xmlns:dc="http://purl.org/dc/elements/1.1/"
   xmlns:cc="http://creativecommons.org/ns#"
   xmlns:rdf="http://www.w3.org/1999/02/22-rdf-syntax-ns#"
   xmlns:svg="http://www.w3.org/2000/svg"
   xmlns="http://www.w3.org/2000/svg"
   xmlns:xlink="http://www.w3.org/1999/xlink"
   xmlns:sodipodi="http://sodipodi.sourceforge.net/DTD/sodipodi-0.dtd"
   xmlns:inkscape="http://www.inkscape.org/namespaces/inkscape"
   width="128"
   height="128"
   id="svg2"
   sodipodi:version="0.32"
   inkscape:version="0.45+devel"
   sodipodi:docname="girl.svg"
   inkscape:output_extension="org.inkscape.output.svg.inkscape"
   version="1.0"
   inkscape:export-filename="/home/nicu/Desktop/pacman/pacman.png"
   inkscape:export-xdpi="90"
   inkscape:export-ydpi="90">
  <defs
     id="defs4">
    <linearGradient
       id="linearGradient4072">
      <stop
         style="stop-color:#000000;stop-opacity:1;"
         offset="0"
         id="stop4074" />
      <stop
         style="stop-color:#000000;stop-opacity:0;"
         offset="1"
         id="stop4076" />
    </linearGradient>
    <linearGradient
       id="linearGradient2315">
      <stop
         style="stop-color:#000000;stop-opacity:0;"
         offset="0"
         id="stop2317" />
      <stop
         style="stop-color:#000000;stop-opacity:0.57195574;"
         offset="1"
         id="stop2319" />
    </linearGradient>
    <filter
       inkscape:collect="always"
       id="filter3730"
       x="-0.34801543"
       width="1.6960309"
       y="-0.34084839"
       height="1.6816968">
      <feGaussianBlur
         inkscape:collect="always"
         stdDeviation="5.4650567"
         id="feGaussianBlur3732" />
    </filter>
    <filter
       inkscape:collect="always"
       id="filter4065"
       x="-0.51975077"
       width="2.0395014"
       y="-0.45338511"
       height="1.9067702">
      <feGaussianBlur
         inkscape:collect="always"
         stdDeviation="4.1511594"
         id="feGaussianBlur4067" />
    </filter>
    <filter
       inkscape:collect="always"
       id="filter4112"
       x="-0.070020586"
       width="1.1400412"
       y="-0.34009999"
       height="1.6802">
      <feGaussianBlur
         inkscape:collect="always"
         stdDeviation="3.9678331"
         id="feGaussianBlur4114" />
    </filter>
    <radialGradient
       inkscape:collect="always"
       xlink:href="#linearGradient4072"
       id="radialGradient4616"
       gradientUnits="userSpaceOnUse"
       gradientTransform="matrix(1.4028467,1.6438735e-6,-1.4520791e-7,0.2058824,-89.844917,403.11278)"
       cx="210.88904"
       cy="506.35242"
       fx="210.88904"
       fy="506.35242"
       r="68" />
    <radialGradient
       inkscape:collect="always"
       xlink:href="#linearGradient2315"
       id="radialGradient4618"
       gradientUnits="userSpaceOnUse"
       gradientTransform="matrix(0.5382663,1.5836168,-2.1115373,0.7177047,1003.5751,-8.4299568)"
       cx="85.913841"
       cy="458.27145"
       fx="85.913841"
       fy="458.27145"
       r="23.444727" />
    <radialGradient
       inkscape:collect="always"
       xlink:href="#linearGradient2315"
       id="radialGradient4620"
       gradientUnits="userSpaceOnUse"
       gradientTransform="matrix(0.5382663,1.5836168,-2.1115373,0.7177047,1003.5751,-8.4299568)"
       cx="85.913841"
       cy="458.27145"
       fx="85.913841"
       fy="458.27145"
       r="23.444727" />
    <radialGradient
       inkscape:collect="always"
       xlink:href="#linearGradient2315"
       id="radialGradient4622"
       gradientUnits="userSpaceOnUse"
       gradientTransform="matrix(0.5382663,1.5836168,-2.1115373,0.7177047,1003.5751,-8.4299568)"
       cx="85.913841"
       cy="458.27145"
       fx="85.913841"
       fy="458.27145"
       r="23.444727" />
    <radialGradient
       inkscape:collect="always"
       xlink:href="#linearGradient2315"
       id="radialGradient4626"
       gradientUnits="userSpaceOnUse"
       gradientTransform="matrix(0.387095,1.5161279,-1.4234088,0.3634221,726.51481,-93.106615)"
       cx="233.49998"
       cy="409.86218"
       fx="233.49998"
       fy="409.86218"
       r="15.5" />
    <radialGradient
       inkscape:collect="always"
       xlink:href="#linearGradient2315"
       id="radialGradient4628"
       gradientUnits="userSpaceOnUse"
       gradientTransform="matrix(0.387095,1.5161279,-1.4234088,0.3634221,726.51481,-93.106615)"
       cx="233.49998"
       cy="409.86218"
       fx="233.49998"
       fy="409.86218"
       r="15.5" />
    <radialGradient
       inkscape:collect="always"
       xlink:href="#linearGradient2315"
       id="radialGradient4630"
       gradientUnits="userSpaceOnUse"
       gradientTransform="matrix(0.5382663,1.5836168,-2.1115373,0.7177047,1003.5751,-8.4299568)"
       cx="85.913841"
       cy="458.27145"
       fx="85.913841"
       fy="458.27145"
       r="23.444727" />
    <radialGradient
       inkscape:collect="always"
       xlink:href="#linearGradient2315"
       id="radialGradient4632"
       gradientUnits="userSpaceOnUse"
       gradientTransform="matrix(0.5382663,1.5836168,-2.1115373,0.7177047,1003.5751,-8.4299568)"
       cx="85.913841"
       cy="458.27145"
       fx="85.913841"
       fy="458.27145"
       r="23.444727" />
    <radialGradient
       inkscape:collect="always"
       xlink:href="#linearGradient2315"
       id="radialGradient4634"
       gradientUnits="userSpaceOnUse"
       gradientTransform="matrix(0.5382663,1.5836168,-2.1115373,0.7177047,1003.5751,-8.4299568)"
       cx="85.913841"
       cy="458.27145"
       fx="85.913841"
       fy="458.27145"
       r="23.444727" />
    <radialGradient
       inkscape:collect="always"
       xlink:href="#linearGradient2315"
       id="radialGradient4639"
       gradientUnits="userSpaceOnUse"
       gradientTransform="matrix(1.4254478,-0.1175279,3.8397426e-2,0.4657069,-28.24058,25.037295)"
       cx="236.46828"
       cy="469.06769"
       fx="236.46828"
       fy="469.06769"
       r="13.809405" />
    <radialGradient
       inkscape:collect="always"
       xlink:href="#linearGradient2315"
       id="radialGradient4662"
       gradientUnits="userSpaceOnUse"
       gradientTransform="matrix(0.510273,1.0071643,-0.9651122,0.4889677,665.78307,-290.52577)"
       cx="216.99271"
       cy="497.9592"
       fx="216.99271"
       fy="497.9592"
       r="65" />
    <filter
       inkscape:collect="always"
       id="filter4705">
      <feGaussianBlur
         inkscape:collect="always"
         stdDeviation="0.31601563"
         id="feGaussianBlur4707" />
    </filter>
  </defs>
  <sodipodi:namedview
     id="base"
     pagecolor="#ffffff"
     bordercolor="#666666"
     borderopacity="1.0"
     gridtolerance="10000"
     guidetolerance="10"
     objecttolerance="10"
     inkscape:pageopacity="0.0"
     inkscape:pageshadow="2"
     inkscape:zoom="0.721875"
     inkscape:cx="256"
     inkscape:cy="-123.46856"
     inkscape:document-units="px"
     inkscape:current-layer="layer1"
     showgrid="false"
     inkscape:window-width="937"
     inkscape:window-height="697"
     inkscape:window-x="674"
     inkscape:window-y="205"
     showguides="true"
     inkscape:guide-bbox="true"
     height="640px"
     width="128px">
    <inkscape:grid
       type="xygrid"
       id="grid3194"
       originx="0px"
       originy="0px"
       spacingx="0px"
       spacingy="0px" />
  </sodipodi:namedview>
  <metadata
     id="metadata7">
    <rdf:RDF>
      <cc:Work
         rdf:about="">
        <dc:format>image/svg+xml</dc:format>
        <dc:type
           rdf:resource="http://purl.org/dc/dcmitype/StillImage" />
      </cc:Work>
    </rdf:RDF>
  </metadata>
  <g
     inkscape:label="Layer 1"
     inkscape:groupmode="layer"
     id="layer1"
     transform="translate(-233.42021,-11.73452)">
    <g
       id="g4713"
       transform="translate(-9.4822552,-115.61403)">
      <path
         transform="matrix(0.7547997,0,0,0.6110284,156.82936,-67.218551)"
         style="fill:url(#radialGradient4616);fill-opacity:1;stroke:none;stroke-width:4;stroke-linecap:round;stroke-miterlimit:4;stroke-opacity:1;filter:url(#filter4112)"
         d="M 274,507.36218 C 274,515.09018 243.536,521.36218 206,521.36218 C 168.464,521.36218 138,515.09018 138,507.36218 C 138,499.63418 168.464,493.36218 206,493.36218 C 243.536,493.36218 274,499.63418 274,507.36218 z"
         id="path3698" />
      <g
         transform="matrix(0.3917554,0,0,0.3917554,316.23398,-14.988243)"
         id="g3779">
        <path
           sodipodi:type="arc"
           style="opacity:1;fill:#80b0fa;fill-opacity:1;stroke:none;stroke-width:4;stroke-linecap:round;stroke-miterlimit:4;stroke-dasharray:none;stroke-opacity:1"
           id="path3781"
           sodipodi:cx="95.257401"
           sodipodi:cy="470.04587"
           sodipodi:rx="23.444727"
           sodipodi:ry="23.444727"
           d="M 118.70213,470.04587 A 23.444727,23.444727 0 1 1 71.812674,470.04587 A 23.444727,23.444727 0 1 1 118.70213,470.04587 z"
           transform="translate(-1.1539504e-8,-43.278967)" />
        <path
           transform="translate(-1.1539504e-8,-43.278967)"
           d="M 118.70213,470.04587 A 23.444727,23.444727 0 1 1 71.812674,470.04587 A 23.444727,23.444727 0 1 1 118.70213,470.04587 z"
           sodipodi:ry="23.444727"
           sodipodi:rx="23.444727"
           sodipodi:cy="470.04587"
           sodipodi:cx="95.257401"
           id="path3783"
           style="opacity:1;fill:url(#radialGradient4618);fill-opacity:1;stroke:none;stroke-width:4;stroke-linecap:round;stroke-miterlimit:4;stroke-dasharray:none;stroke-opacity:1"
           sodipodi:type="arc" />
      </g>
      <g
         id="g3763"
         transform="matrix(0.5137776,0,0,0.5137776,297.76099,-60.218693)">
        <path
           transform="translate(-1.1539504e-8,-43.278967)"
           d="M 118.70213,470.04587 A 23.444727,23.444727 0 1 1 71.812674,470.04587 A 23.444727,23.444727 0 1 1 118.70213,470.04587 z"
           sodipodi:ry="23.444727"
           sodipodi:rx="23.444727"
           sodipodi:cy="470.04587"
           sodipodi:cx="95.257401"
           id="path3765"
           style="opacity:1;fill:#80b0fa;fill-opacity:1;stroke:none;stroke-width:4;stroke-linecap:round;stroke-miterlimit:4;stroke-dasharray:none;stroke-opacity:1"
           sodipodi:type="arc" />
        <path
           sodipodi:type="arc"
           style="opacity:1;fill:url(#radialGradient4620);fill-opacity:1;stroke:none;stroke-width:4;stroke-linecap:round;stroke-miterlimit:4;stroke-dasharray:none;stroke-opacity:1"
           id="path3767"
           sodipodi:cx="95.257401"
           sodipodi:cy="470.04587"
           sodipodi:rx="23.444727"
           sodipodi:ry="23.444727"
           d="M 118.70213,470.04587 A 23.444727,23.444727 0 1 1 71.812674,470.04587 A 23.444727,23.444727 0 1 1 118.70213,470.04587 z"
           transform="translate(-1.1539504e-8,-43.278967)" />
      </g>
      <g
         transform="matrix(0.7128664,0,0,0.7128664,270.41202,-135.3898)"
         id="g3747">
        <path
           sodipodi:type="arc"
           style="opacity:1;fill:#80b0fa;fill-opacity:1;stroke:none;stroke-width:4;stroke-linecap:round;stroke-miterlimit:4;stroke-dasharray:none;stroke-opacity:1"
           id="path3749"
           sodipodi:cx="95.257401"
           sodipodi:cy="470.04587"
           sodipodi:rx="23.444727"
           sodipodi:ry="23.444727"
           d="M 118.70213,470.04587 A 23.444727,23.444727 0 1 1 71.812674,470.04587 A 23.444727,23.444727 0 1 1 118.70213,470.04587 z"
           transform="translate(-1.1539504e-8,-43.278967)" />
        <path
           transform="translate(-1.1539504e-8,-43.278967)"
           d="M 118.70213,470.04587 A 23.444727,23.444727 0 1 1 71.812674,470.04587 A 23.444727,23.444727 0 1 1 118.70213,470.04587 z"
           sodipodi:ry="23.444727"
           sodipodi:rx="23.444727"
           sodipodi:cy="470.04587"
           sodipodi:cx="95.257401"
           id="path3751"
           style="opacity:1;fill:url(#radialGradient4622);fill-opacity:1;stroke:none;stroke-width:4;stroke-linecap:round;stroke-miterlimit:4;stroke-dasharray:none;stroke-opacity:1"
           sodipodi:type="arc" />
      </g>
      <path
         style="fill:#80b0fa;fill-opacity:1;stroke:none;stroke-width:4;stroke-linecap:round;stroke-miterlimit:4;stroke-opacity:1"
         d="M 358.65441,199.30927 C 358.65441,202.76159 358.27623,226.08638 357.55906,229.32392 C 355.79529,238.20567 350.08585,243.31929 341.512,245.26557 C 337.52698,246.00897 332.99417,229.70806 328.07478,229.61721 C 323.15539,229.52636 317.84943,245.64559 312.3181,245.64559 C 306.76083,245.64559 301.43106,229.51724 296.49225,229.59211 C 291.55345,229.66699 287.00561,245.94509 283.01224,245.1743 C 273.9704,243.67376 269.24276,237.48874 267.0134,229.03175 C 266.33758,225.88411 265.98178,202.65786 265.98178,199.30927 C 265.98178,173.73163 286.74045,152.97296 312.3181,152.97296 C 337.89574,152.97296 358.65441,173.73163 358.65441,199.30927 z"
         id="path3700"
         sodipodi:nodetypes="cccsssccssc" />
      <path
         id="path4709"
         d="M 318.83443,171.34788 C 314.03319,174.07355 311.16214,177.36119 310.52193,181.19163 L 313.99068,181.34788 C 314.61197,177.63063 314.78828,174.82148 319.36568,172.22288 L 318.83443,171.34788 z M 320.92818,175.94163 C 318.46219,177.25653 315.73628,179.82132 315.42818,181.87913 L 318.55318,182.72288 C 318.80758,181.02378 319.31103,177.92887 321.39693,176.81663 L 320.92818,175.94163 z M 322.70943,180.72288 C 321.11835,181.30612 319.86582,182.32543 319.36568,183.84788 L 321.05318,184.41038 C 321.32961,183.08705 321.62467,181.72728 322.74068,181.12913 L 322.70943,180.72288 z"
         style="fill:#000000;fill-opacity:0.53539824;fill-rule:evenodd;stroke:none;stroke-width:1.40278745px;stroke-linecap:butt;stroke-linejoin:miter;stroke-opacity:1;filter:url(#filter4705)" />
      <path
         sodipodi:nodetypes="cccsssccssc"
         id="path3702"
         d="M 358.65441,199.30927 C 358.65441,202.76159 358.27623,226.08638 357.55906,229.32392 C 355.79529,238.20567 350.08585,243.31929 341.512,245.26557 C 337.52698,246.00897 332.99417,229.70806 328.07478,229.61721 C 323.15539,229.52636 317.84943,245.64559 312.3181,245.64559 C 306.76083,245.64559 301.43106,229.51724 296.49225,229.59211 C 291.55345,229.66699 287.00561,245.94509 283.01224,245.1743 C 273.9704,243.67376 269.24276,237.48874 267.0134,229.03175 C 266.33758,225.88411 265.98178,202.65786 265.98178,199.30927 C 265.98178,173.73163 286.74045,152.97296 312.3181,152.97296 C 337.89574,152.97296 358.65441,173.73163 358.65441,199.30927 z"
         style="fill:url(#radialGradient4662);fill-opacity:1;stroke:none;stroke-width:4;stroke-linecap:round;stroke-miterlimit:4;stroke-opacity:1" />
      <path
         style="fill:#000000;fill-opacity:0.53539824;fill-rule:evenodd;stroke:none;stroke-width:1.40278745px;stroke-linecap:butt;stroke-linejoin:miter;stroke-opacity:1;filter:url(#filter4705)"
         d="M 348.08443,171.34788 C 343.28319,174.07355 340.41214,177.36119 339.77193,181.19163 L 343.24068,181.34788 C 343.86197,177.63063 344.03828,174.82148 348.61568,172.22288 L 348.08443,171.34788 z M 350.17818,175.94163 C 347.71219,177.25653 344.98628,179.82132 344.67818,181.87913 L 347.80318,182.72288 C 348.05758,181.02378 348.56103,177.92887 350.64693,176.81663 L 350.17818,175.94163 z M 351.95943,180.72288 C 350.36835,181.30612 349.11582,182.32543 348.61568,183.84788 L 350.30318,184.41038 C 350.57961,183.08705 350.87467,181.72728 351.99068,181.12913 L 351.95943,180.72288 z"
         id="path4691" />
      <path
         id="path4576"
         transform="translate(233.42021,11.73452)"
         d="M 113.25,158.90625 C 108.44876,161.63192 105.57771,164.91956 104.9375,168.75 L 108.40625,168.90625 C 109.02754,165.189 109.20385,162.37985 113.78125,159.78125 L 113.25,158.90625 z M 115.34375,163.5 C 112.87776,164.8149 110.15185,167.37969 109.84375,169.4375 L 112.96875,170.28125 C 113.22315,168.58215 113.7266,165.48724 115.8125,164.375 L 115.34375,163.5 z M 117.125,168.28125 C 115.53392,168.86449 114.28139,169.8838 113.78125,171.40625 L 115.46875,171.96875 C 115.74518,170.64542 116.04024,169.28565 117.15625,168.6875 L 117.125,168.28125 z"
         style="fill:#000000;fill-opacity:1;fill-rule:evenodd;stroke:none;stroke-width:1.40278745px;stroke-linecap:butt;stroke-linejoin:miter;stroke-opacity:1" />
      <g
         id="g3704"
         transform="matrix(0.7128664,0,0,0.7128664,166.89335,-111.75867)">
        <path
           transform="translate(4,7)"
           d="M 255,417.86218 A 15.5,15.5 0 1 1 224,417.86218 A 15.5,15.5 0 1 1 255,417.86218 z"
           sodipodi:ry="15.5"
           sodipodi:rx="15.5"
           sodipodi:cy="417.86218"
           sodipodi:cx="239.5"
           id="path3706"
           style="opacity:1;fill:#ffffff;fill-opacity:1;stroke:none;stroke-width:4;stroke-linecap:round;stroke-miterlimit:4;stroke-dasharray:none;stroke-opacity:1"
           sodipodi:type="arc" />
        <path
           sodipodi:type="arc"
           style="opacity:1;fill:url(#radialGradient4626);fill-opacity:1;stroke:none;stroke-width:4;stroke-linecap:round;stroke-miterlimit:4;stroke-dasharray:none;stroke-opacity:1"
           id="path3708"
           sodipodi:cx="239.5"
           sodipodi:cy="417.86218"
           sodipodi:rx="15.5"
           sodipodi:ry="15.5"
           d="M 255,417.86218 A 15.5,15.5 0 1 1 224,417.86218 A 15.5,15.5 0 1 1 255,417.86218 z"
           transform="translate(4,7)" />
        <path
           transform="matrix(0.6129032,0,0,0.6129032,101.70968,169.7531)"
           d="M 255,417.86218 A 15.5,15.5 0 1 1 224,417.86218 A 15.5,15.5 0 1 1 255,417.86218 z"
           sodipodi:ry="15.5"
           sodipodi:rx="15.5"
           sodipodi:cy="417.86218"
           sodipodi:cx="239.5"
           id="path3710"
           style="opacity:1;fill:#000000;fill-opacity:1;stroke:none;stroke-width:4;stroke-linecap:round;stroke-miterlimit:4;stroke-dasharray:none;stroke-opacity:1"
           sodipodi:type="arc" />
      </g>
      <path
         style="fill:#000000;fill-opacity:1;fill-rule:evenodd;stroke:none;stroke-width:1.40278745px;stroke-linecap:butt;stroke-linejoin:miter;stroke-opacity:1"
         d="M 317.42021,170.64077 C 312.61897,173.36644 309.74792,176.65408 309.10771,180.48452 L 312.57646,180.64077 C 313.19775,176.92352 313.37406,174.11437 317.95146,171.51577 L 317.42021,170.64077 z M 319.51396,175.23452 C 317.04797,176.54942 314.32206,179.11421 314.01396,181.17202 L 317.13896,182.01577 C 317.39336,180.31667 317.89681,177.22176 319.98271,176.10952 L 319.51396,175.23452 z M 321.29521,180.01577 C 319.70413,180.59901 318.4516,181.61832 317.95146,183.14077 L 319.63896,183.70327 C 319.91539,182.37994 320.21045,181.02017 321.32646,180.42202 L 321.29521,180.01577 z"
         id="path4711" />
      <g
         id="g3712"
         transform="matrix(0.7128664,0,0,0.7128664,138.3787,-111.75867)">
        <path
           sodipodi:type="arc"
           style="opacity:1;fill:#ffffff;fill-opacity:1;stroke:none;stroke-width:4;stroke-linecap:round;stroke-miterlimit:4;stroke-dasharray:none;stroke-opacity:1"
           id="path3714"
           sodipodi:cx="239.5"
           sodipodi:cy="417.86218"
           sodipodi:rx="15.5"
           sodipodi:ry="15.5"
           d="M 255,417.86218 A 15.5,15.5 0 1 1 224,417.86218 A 15.5,15.5 0 1 1 255,417.86218 z"
           transform="translate(4,7)" />
        <path
           transform="translate(4,7)"
           d="M 255,417.86218 A 15.5,15.5 0 1 1 224,417.86218 A 15.5,15.5 0 1 1 255,417.86218 z"
           sodipodi:ry="15.5"
           sodipodi:rx="15.5"
           sodipodi:cy="417.86218"
           sodipodi:cx="239.5"
           id="path3716"
           style="opacity:1;fill:url(#radialGradient4628);fill-opacity:1;stroke:none;stroke-width:4;stroke-linecap:round;stroke-miterlimit:4;stroke-dasharray:none;stroke-opacity:1"
           sodipodi:type="arc" />
        <path
           sodipodi:type="arc"
           style="opacity:1;fill:#000000;fill-opacity:1;stroke:none;stroke-width:4;stroke-linecap:round;stroke-miterlimit:4;stroke-dasharray:none;stroke-opacity:1"
           id="path3718"
           sodipodi:cx="239.5"
           sodipodi:cy="417.86218"
           sodipodi:rx="15.5"
           sodipodi:ry="15.5"
           d="M 255,417.86218 A 15.5,15.5 0 1 1 224,417.86218 A 15.5,15.5 0 1 1 255,417.86218 z"
           transform="matrix(0.6129032,0,0,0.6129032,101.70968,169.7531)" />
      </g>
      <path
         transform="matrix(0.7128664,0,0,0.7128664,163.32902,-118.88733)"
         style="fill:#ffffff;fill-opacity:0.62745098;stroke:none;stroke-width:4;stroke-linecap:round;stroke-miterlimit:4;stroke-opacity:1;filter:url(#filter3730)"
         d="M 180.00895,413.25201 C 169.98339,423.52178 159.6027,429.66602 156.83776,426.96684 C 154.07283,424.26764 159.9655,413.74212 169.99105,403.47235 C 180.01661,393.20258 190.3973,387.05834 193.16224,389.75752 C 195.92717,392.45672 190.0345,402.98224 180.00895,413.25201 z"
         id="path3720" />
      <path
         transform="matrix(0.5498048,0.4537546,-0.4537546,0.5498048,433.58944,-157.71812)"
         style="fill:#ffffff;fill-opacity:0.43438912;stroke:none;stroke-width:4;stroke-linecap:round;stroke-miterlimit:4;stroke-opacity:1;filter:url(#filter4065)"
         d="M 262,501.86218 C 262,509.31418 259.536,515.36218 256.5,515.36218 C 253.464,515.36218 251,509.31418 251,501.86218 C 251,494.41018 253.464,488.36218 256.5,488.36218 C 259.536,488.36218 262,494.41018 262,501.86218 z"
         id="path3722" />
      <g
         id="g3741"
         transform="matrix(0.7128664,0,0,0.7128664,211.81165,-129.72817)">
        <path
           transform="translate(-1.1539504e-8,-43.278967)"
           d="M 118.70213,470.04587 A 23.444727,23.444727 0 1 1 71.812674,470.04587 A 23.444727,23.444727 0 1 1 118.70213,470.04587 z"
           sodipodi:ry="23.444727"
           sodipodi:rx="23.444727"
           sodipodi:cy="470.04587"
           sodipodi:cx="95.257401"
           id="path3735"
           style="opacity:1;fill:#80b0fa;fill-opacity:1;stroke:none;stroke-width:4;stroke-linecap:round;stroke-miterlimit:4;stroke-dasharray:none;stroke-opacity:1"
           sodipodi:type="arc" />
        <path
           sodipodi:type="arc"
           style="opacity:1;fill:url(#radialGradient4630);fill-opacity:1;stroke:none;stroke-width:4;stroke-linecap:round;stroke-miterlimit:4;stroke-dasharray:none;stroke-opacity:1"
           id="path3737"
           sodipodi:cx="95.257401"
           sodipodi:cy="470.04587"
           sodipodi:rx="23.444727"
           sodipodi:ry="23.444727"
           d="M 118.70213,470.04587 A 23.444727,23.444727 0 1 1 71.812674,470.04587 A 23.444727,23.444727 0 1 1 118.70213,470.04587 z"
           transform="translate(-1.1539504e-8,-43.278967)" />
      </g>
      <g
         transform="matrix(0.5137776,0,0,0.5137776,219.18266,-53.051389)"
         id="g3755">
        <path
           sodipodi:type="arc"
           style="opacity:1;fill:#80b0fa;fill-opacity:1;stroke:none;stroke-width:4;stroke-linecap:round;stroke-miterlimit:4;stroke-dasharray:none;stroke-opacity:1"
           id="path3757"
           sodipodi:cx="95.257401"
           sodipodi:cy="470.04587"
           sodipodi:rx="23.444727"
           sodipodi:ry="23.444727"
           d="M 118.70213,470.04587 A 23.444727,23.444727 0 1 1 71.812674,470.04587 A 23.444727,23.444727 0 1 1 118.70213,470.04587 z"
           transform="translate(-1.1539504e-8,-43.278967)" />
        <path
           transform="translate(-1.1539504e-8,-43.278967)"
           d="M 118.70213,470.04587 A 23.444727,23.444727 0 1 1 71.812674,470.04587 A 23.444727,23.444727 0 1 1 118.70213,470.04587 z"
           sodipodi:ry="23.444727"
           sodipodi:rx="23.444727"
           sodipodi:cy="470.04587"
           sodipodi:cx="95.257401"
           id="path3759"
           style="opacity:1;fill:url(#radialGradient4632);fill-opacity:1;stroke:none;stroke-width:4;stroke-linecap:round;stroke-miterlimit:4;stroke-dasharray:none;stroke-opacity:1"
           sodipodi:type="arc" />
      </g>
      <g
         id="g3771"
         transform="matrix(0.3917554,0,0,0.3917554,222.02745,-7.3034502)">
        <path
           transform="translate(-1.1539504e-8,-43.278967)"
           d="M 118.70213,470.04587 A 23.444727,23.444727 0 1 1 71.812674,470.04587 A 23.444727,23.444727 0 1 1 118.70213,470.04587 z"
           sodipodi:ry="23.444727"
           sodipodi:rx="23.444727"
           sodipodi:cy="470.04587"
           sodipodi:cx="95.257401"
           id="path3773"
           style="opacity:1;fill:#80b0fa;fill-opacity:1;stroke:none;stroke-width:4;stroke-linecap:round;stroke-miterlimit:4;stroke-dasharray:none;stroke-opacity:1"
           sodipodi:type="arc" />
        <path
           sodipodi:type="arc"
           style="opacity:1;fill:url(#radialGradient4634);fill-opacity:1;stroke:none;stroke-width:4;stroke-linecap:round;stroke-miterlimit:4;stroke-dasharray:none;stroke-opacity:1"
           id="path3775"
           sodipodi:cx="95.257401"
           sodipodi:cy="470.04587"
           sodipodi:rx="23.444727"
           sodipodi:ry="23.444727"
           d="M 118.70213,470.04587 A 23.444727,23.444727 0 1 1 71.812674,470.04587 A 23.444727,23.444727 0 1 1 118.70213,470.04587 z"
           transform="translate(-1.1539504e-8,-43.278967)" />
      </g>
      <path
         style="fill:#ff0000;fill-rule:evenodd;stroke:none;stroke-width:1px;stroke-linecap:butt;stroke-linejoin:miter;stroke-opacity:1"
         d="M 317.16677,215.5844 C 321.40763,213.11898 328.13707,209.57537 331.75305,214.59031 C 334.1106,209.36852 338.33267,211.46582 342.88332,214.25881 C 340.02994,219.03287 329.65656,223.71067 317.16677,215.5844 z"
         id="path3789"
         sodipodi:nodetypes="cccc" />
      <path
         sodipodi:nodetypes="cccc"
         id="path3791"
         d="M 317.16677,215.5844 C 321.40763,213.11898 328.13707,209.57537 331.75305,214.59031 C 334.1106,209.36852 338.33267,211.46582 342.88332,214.25881 C 340.02994,219.03287 329.65656,223.71067 317.16677,215.5844 z"
         style="fill:url(#radialGradient4639);fill-rule:evenodd;stroke:none;stroke-width:1px;stroke-linecap:butt;stroke-linejoin:miter;stroke-opacity:1" />
    </g>
  </g>
</svg>
