<?xml version="1.0" encoding="UTF-8" standalone="no"?>
<!-- Created with Inkscape (http://www.inkscape.org/) -->
<svg
   xmlns:dc="http://purl.org/dc/elements/1.1/"
   xmlns:cc="http://creativecommons.org/ns#"
   xmlns:rdf="http://www.w3.org/1999/02/22-rdf-syntax-ns#"
   xmlns:svg="http://www.w3.org/2000/svg"
   xmlns="http://www.w3.org/2000/svg"
   xmlns:xlink="http://www.w3.org/1999/xlink"
   xmlns:sodipodi="http://sodipodi.sourceforge.net/DTD/sodipodi-0.dtd"
   xmlns:inkscape="http://www.inkscape.org/namespaces/inkscape"
   width="128"
   height="128"
   id="svg2"
   sodipodi:version="0.32"
   inkscape:version="0.45+devel"
   sodipodi:docname="stripes.svg"
   inkscape:output_extension="org.inkscape.output.svg.inkscape"
   version="1.0"
   inkscape:export-filename="/home/nicu/Desktop/pacman/pacman.png"
   inkscape:export-xdpi="90"
   inkscape:export-ydpi="90">
  <defs
     id="defs4">
    <inkscape:perspective
       sodipodi:type="inkscape:persp3d"
       inkscape:vp_x="-50 : 600 : 1"
       inkscape:vp_y="0 : 1000 : 0"
       inkscape:vp_z="700 : 600 : 1"
       inkscape:persp3d-origin="300 : 400 : 1"
       id="perspective2582" />
    <linearGradient
       id="linearGradient4072">
      <stop
         style="stop-color:#000000;stop-opacity:1;"
         offset="0"
         id="stop4074" />
      <stop
         style="stop-color:#000000;stop-opacity:0;"
         offset="1"
         id="stop4076" />
    </linearGradient>
    <linearGradient
       id="linearGradient2315">
      <stop
         style="stop-color:#000000;stop-opacity:0;"
         offset="0"
         id="stop2317" />
      <stop
         style="stop-color:#000000;stop-opacity:0.57195574;"
         offset="1"
         id="stop2319" />
    </linearGradient>
    <filter
       inkscape:collect="always"
       id="filter3730"
       x="-0.34801543"
       width="1.6960309"
       y="-0.34084839"
       height="1.6816968">
      <feGaussianBlur
         inkscape:collect="always"
         stdDeviation="5.4650567"
         id="feGaussianBlur3732" />
    </filter>
    <filter
       inkscape:collect="always"
       id="filter4065"
       x="-0.51975077"
       width="2.0395014"
       y="-0.45338511"
       height="1.9067702">
      <feGaussianBlur
         inkscape:collect="always"
         stdDeviation="4.1511594"
         id="feGaussianBlur4067" />
    </filter>
    <filter
       inkscape:collect="always"
       id="filter4112"
       x="-0.070020586"
       width="1.1400412"
       y="-0.34009999"
       height="1.6802">
      <feGaussianBlur
         inkscape:collect="always"
         stdDeviation="3.9678331"
         id="feGaussianBlur4114" />
    </filter>
    <radialGradient
       inkscape:collect="always"
       xlink:href="#linearGradient4072"
       id="radialGradient2518"
       gradientUnits="userSpaceOnUse"
       gradientTransform="matrix(1.4028467,1.6438735e-6,-1.4520791e-7,0.2058824,-89.844917,403.11278)"
       cx="210.88904"
       cy="506.35242"
       fx="210.88904"
       fy="506.35242"
       r="68" />
    <radialGradient
       inkscape:collect="always"
       xlink:href="#linearGradient2315"
       id="radialGradient2522"
       gradientUnits="userSpaceOnUse"
       gradientTransform="matrix(0.387095,1.5161279,-1.4234088,0.3634221,726.51481,-93.106615)"
       cx="233.49998"
       cy="409.86218"
       fx="233.49998"
       fy="409.86218"
       r="15.5" />
    <radialGradient
       inkscape:collect="always"
       xlink:href="#linearGradient2315"
       id="radialGradient2524"
       gradientUnits="userSpaceOnUse"
       gradientTransform="matrix(0.387095,1.5161279,-1.4234088,0.3634221,726.51481,-93.106615)"
       cx="233.49998"
       cy="409.86218"
       fx="233.49998"
       fy="409.86218"
       r="15.5" />
    <radialGradient
       inkscape:collect="always"
       xlink:href="#linearGradient2315"
       id="radialGradient2537"
       gradientUnits="userSpaceOnUse"
       gradientTransform="matrix(0.7158046,1.4128374,-1.3538472,0.6859177,869.78109,5.2345)"
       cx="216.99271"
       cy="497.9592"
       fx="216.99271"
       fy="497.9592"
       r="65" />
  </defs>
  <sodipodi:namedview
     id="base"
     pagecolor="#ffffff"
     bordercolor="#666666"
     borderopacity="1.0"
     gridtolerance="10000"
     guidetolerance="10"
     objecttolerance="10"
     inkscape:pageopacity="0.0"
     inkscape:pageshadow="2"
     inkscape:zoom="0.721875"
     inkscape:cx="256"
     inkscape:cy="-191.09426"
     inkscape:document-units="px"
     inkscape:current-layer="layer1"
     showgrid="false"
     inkscape:window-width="937"
     inkscape:window-height="717"
     inkscape:window-x="674"
     inkscape:window-y="205"
     showguides="true"
     inkscape:guide-bbox="true"
     height="640px"
     width="128px">
    <inkscape:grid
       type="xygrid"
       id="grid3194"
       originx="0px"
       originy="0px"
       spacingx="0px"
       spacingy="0px" />
  </sodipodi:namedview>
  <metadata
     id="metadata7">
    <rdf:RDF>
      <cc:Work
         rdf:about="">
        <dc:format>image/svg+xml</dc:format>
        <dc:type
           rdf:resource="http://purl.org/dc/dcmitype/StillImage" />
        <dc:title></dc:title>
        <dc:date></dc:date>
        <dc:creator>
          <cc:Agent>
            <dc:title></dc:title>
          </cc:Agent>
        </dc:creator>
        <dc:rights>
          <cc:Agent>
            <dc:title></dc:title>
          </cc:Agent>
        </dc:rights>
        <dc:publisher>
          <cc:Agent>
            <dc:title></dc:title>
          </cc:Agent>
        </dc:publisher>
        <dc:identifier></dc:identifier>
        <dc:source></dc:source>
        <dc:relation></dc:relation>
        <dc:language></dc:language>
        <dc:subject>
          <rdf:Bag />
        </dc:subject>
        <dc:coverage></dc:coverage>
        <dc:description></dc:description>
        <dc:contributor>
          <cc:Agent>
            <dc:title></dc:title>
          </cc:Agent>
        </dc:contributor>
        <cc:license
           rdf:resource="" />
      </cc:Work>
    </rdf:RDF>
  </metadata>
  <g
     inkscape:label="Layer 1"
     inkscape:groupmode="layer"
     id="layer1"
     transform="translate(-233.42021,-11.73452)">
    <g
       id="g3183"
       transform="matrix(0.7128664,0,0,0.7128664,30.847476,-409.87128)">
      <path
         id="path2492"
         d="M 274,507.36218 C 274,515.09018 243.536,521.36218 206,521.36218 C 168.464,521.36218 138,515.09018 138,507.36218 C 138,499.63418 168.464,493.36218 206,493.36218 C 243.536,493.36218 274,499.63418 274,507.36218 z"
         style="fill:url(#radialGradient2518);fill-opacity:1;stroke:none;stroke-width:4;stroke-linecap:round;stroke-miterlimit:4;stroke-opacity:1;filter:url(#filter4112)"
         transform="matrix(1.0588235,0,0,0.8571429,155.82723,318.48705)" />
      <g
         id="g3170">
        <path
           style="fill:#ffffa0;fill-opacity:1;stroke:none;stroke-width:4;stroke-linecap:round;stroke-miterlimit:4;stroke-opacity:1"
           d="M 438.94488,692.36892 C 438.94488,697.21179 438.41437,729.93151 437.40834,734.47309 C 434.93414,746.9323 426.92501,754.10561 414.89772,756.83583 C 409.30758,757.87867 402.94901,735.01195 396.04816,734.88451 C 389.1473,734.75707 381.70416,757.36892 373.94488,757.36892 C 366.14922,757.36892 358.67268,734.74427 351.74458,734.8493 C 344.81649,734.95434 338.43685,757.78906 332.83499,756.7078 C 320.15122,754.60286 313.51934,745.9266 310.39203,734.06323 C 309.44399,729.64777 308.94488,697.06628 308.94488,692.36892 C 308.94488,656.48892 338.06488,627.36892 373.94488,627.36892 C 409.82488,627.36892 438.94488,656.48892 438.94488,692.36892 z"
           id="path2494"
           sodipodi:nodetypes="cccsssccssc" />
        <path
           style="opacity:1;fill:#ff0000;fill-opacity:1;stroke:none;stroke-width:4;stroke-linecap:round;stroke-miterlimit:4;stroke-dasharray:none;stroke-opacity:1"
           d="M 321.875,653.5 C 317.41831,659.45809 313.96231,666.18098 311.75,673.46875 L 311.75,738.4375 C 313.90793,744.27363 317.17701,749.08549 321.875,752.375 L 321.875,653.5 z"
           id="rect2541" />
        <path
           style="opacity:1;fill:#00ff00;fill-opacity:1;stroke:none;stroke-width:4;stroke-linecap:round;stroke-miterlimit:4;stroke-dasharray:none;stroke-opacity:1"
           d="M 335,640.34375 C 331.28458,643.13067 327.88295,646.30906 324.84375,649.8125 L 324.84375,754.15625 C 327.19291,755.3368 329.85648,756.22299 332.84375,756.71875 C 333.55476,756.85599 334.2644,756.60044 335,756.0625 L 335,640.34375 z"
           id="rect2543" />
        <path
           style="opacity:1;fill:#ff00ff;fill-opacity:1;stroke:none;stroke-width:4;stroke-linecap:round;stroke-miterlimit:4;stroke-dasharray:none;stroke-opacity:1"
           d="M 347.65625,632.9375 C 344.10457,634.51274 340.71446,636.37213 337.53125,638.53125 L 337.53125,753.25 C 340.71731,748.7848 344.10119,741.17375 347.65625,737.28125 L 347.65625,632.9375 z"
           id="rect2545" />
        <path
           style="opacity:1;fill:#0000ff;fill-opacity:1;stroke:none;stroke-width:4;stroke-linecap:round;stroke-miterlimit:4;stroke-dasharray:none;stroke-opacity:1"
           d="M 360.34375,628.8125 C 356.84379,629.55872 353.45451,630.58974 350.1875,631.875 L 350.1875,735.25 C 350.70084,735.00609 351.23039,734.85163 351.75,734.84375 C 354.53211,734.80157 357.39961,738.46098 360.34375,742.8125 L 360.34375,628.8125 z"
           id="rect2547" />
        <path
           style="opacity:1;fill:#ff8a00;fill-opacity:1;stroke:none;stroke-width:4;stroke-linecap:round;stroke-miterlimit:4;stroke-dasharray:none;stroke-opacity:1"
           d="M 373.4375,627.375 C 369.97596,627.40123 366.59437,627.7019 363.28125,628.25 L 363.28125,747.21875 C 366.59042,752.21112 369.98028,756.91714 373.4375,757.34375 L 373.4375,627.375 z"
           id="rect2549" />
        <path
           style="opacity:1;fill:#00ffff;fill-opacity:1;stroke:none;stroke-width:4;stroke-linecap:round;stroke-miterlimit:4;stroke-dasharray:none;stroke-opacity:1"
           d="M 376.375,627.4375 L 376.375,756.65625 C 379.83984,754.74379 383.22506,749.26341 386.53125,744.25 L 386.53125,628.59375 C 383.22914,627.94454 379.83538,627.56547 376.375,627.4375 z"
           id="rect2551" />
        <path
           style="opacity:1;fill:#ff0000;fill-opacity:1;stroke:none;stroke-width:4;stroke-linecap:round;stroke-miterlimit:4;stroke-dasharray:none;stroke-opacity:1"
           d="M 388.625,629.0625 L 388.625,741.15625 C 391.15893,737.58317 393.65133,734.83047 396.0625,734.875 C 396.97769,734.8919 397.88566,735.32328 398.78125,736.03125 L 398.78125,632.28125 C 395.52635,630.9335 392.12057,629.87113 388.625,629.0625 z"
           id="rect2553" />
        <path
           style="opacity:1;fill:#00ff00;fill-opacity:1;stroke:none;stroke-width:4;stroke-linecap:round;stroke-miterlimit:4;stroke-dasharray:none;stroke-opacity:1"
           d="M 401.3125,633.40625 L 401.3125,738.78125 C 404.86745,743.51658 408.26621,751.29599 411.4375,754.90625 L 411.4375,639.28125 C 408.25733,637.02975 404.87881,635.06521 401.3125,633.40625 z"
           id="rect2555" />
        <path
           style="opacity:1;fill:#ff00ff;fill-opacity:1;stroke:none;stroke-width:4;stroke-linecap:round;stroke-miterlimit:4;stroke-dasharray:none;stroke-opacity:1"
           d="M 413.96875,641.1875 L 413.96875,756.78125 C 414.28153,756.86125 414.59811,756.90124 414.90625,756.84375 C 418.31962,756.06891 421.39357,754.91608 424.125,753.40625 L 424.125,651.0625 C 421.11575,647.41166 417.69478,644.10696 413.96875,641.1875 z"
           id="rect2557" />
        <path
           style="opacity:1;fill:#0000ff;fill-opacity:1;stroke:none;stroke-width:4;stroke-linecap:round;stroke-miterlimit:4;stroke-dasharray:none;stroke-opacity:1"
           d="M 426.21875,653.75 L 426.21875,752.125 C 430.96463,748.92652 434.42356,744.40153 436.375,738.40625 L 436.375,674.25 C 434.20589,666.76843 430.7416,659.85748 426.21875,653.75 z"
           id="rect2559" />
      </g>
      <path
         style="fill:url(#radialGradient2537);fill-opacity:1;stroke:none;stroke-width:4;stroke-linecap:round;stroke-miterlimit:4;stroke-opacity:1"
         d="M 438.94488,692.36892 C 438.94488,697.21179 438.41437,729.93151 437.40834,734.47309 C 434.93414,746.9323 426.92501,754.10561 414.89772,756.83583 C 409.30758,757.87867 402.94901,735.01195 396.04816,734.88451 C 389.1473,734.75707 381.70416,757.36892 373.94488,757.36892 C 366.14922,757.36892 358.67268,734.74427 351.74458,734.8493 C 344.81649,734.95434 338.43685,757.78906 332.83499,756.7078 C 320.15122,754.60286 313.51934,745.9266 310.39203,734.06323 C 309.44399,729.64777 308.94488,697.06628 308.94488,692.36892 C 308.94488,656.48892 338.06488,627.36892 373.94488,627.36892 C 409.82488,627.36892 438.94488,656.48892 438.94488,692.36892 z"
         id="path2496"
         sodipodi:nodetypes="cccsssccssc" />
      <g
         transform="translate(169.94488,256.00674)"
         id="g2498">
        <path
           sodipodi:type="arc"
           style="opacity:1;fill:#ffffff;fill-opacity:1;stroke:none;stroke-width:4;stroke-linecap:round;stroke-miterlimit:4;stroke-dasharray:none;stroke-opacity:1"
           id="path2500"
           sodipodi:cx="239.5"
           sodipodi:cy="417.86218"
           sodipodi:rx="15.5"
           sodipodi:ry="15.5"
           d="M 255,417.86218 A 15.5,15.5 0 1 1 224,417.86218 A 15.5,15.5 0 1 1 255,417.86218 z"
           transform="translate(4,7)" />
        <path
           transform="translate(4,7)"
           d="M 255,417.86218 A 15.5,15.5 0 1 1 224,417.86218 A 15.5,15.5 0 1 1 255,417.86218 z"
           sodipodi:ry="15.5"
           sodipodi:rx="15.5"
           sodipodi:cy="417.86218"
           sodipodi:cx="239.5"
           id="path2502"
           style="opacity:1;fill:url(#radialGradient2522);fill-opacity:1;stroke:none;stroke-width:4;stroke-linecap:round;stroke-miterlimit:4;stroke-dasharray:none;stroke-opacity:1"
           sodipodi:type="arc" />
        <path
           sodipodi:type="arc"
           style="opacity:1;fill:#000000;fill-opacity:1;stroke:none;stroke-width:4;stroke-linecap:round;stroke-miterlimit:4;stroke-dasharray:none;stroke-opacity:1"
           id="path2504"
           sodipodi:cx="239.5"
           sodipodi:cy="417.86218"
           sodipodi:rx="15.5"
           sodipodi:ry="15.5"
           d="M 255,417.86218 A 15.5,15.5 0 1 1 224,417.86218 A 15.5,15.5 0 1 1 255,417.86218 z"
           transform="matrix(0.6129032,0,0,0.6129032,101.70968,169.7531)" />
      </g>
      <g
         transform="translate(129.94488,256.00674)"
         id="g2506">
        <path
           transform="translate(4,7)"
           d="M 255,417.86218 A 15.5,15.5 0 1 1 224,417.86218 A 15.5,15.5 0 1 1 255,417.86218 z"
           sodipodi:ry="15.5"
           sodipodi:rx="15.5"
           sodipodi:cy="417.86218"
           sodipodi:cx="239.5"
           id="path2508"
           style="opacity:1;fill:#ffffff;fill-opacity:1;stroke:none;stroke-width:4;stroke-linecap:round;stroke-miterlimit:4;stroke-dasharray:none;stroke-opacity:1"
           sodipodi:type="arc" />
        <path
           sodipodi:type="arc"
           style="opacity:1;fill:url(#radialGradient2524);fill-opacity:1;stroke:none;stroke-width:4;stroke-linecap:round;stroke-miterlimit:4;stroke-dasharray:none;stroke-opacity:1"
           id="path2510"
           sodipodi:cx="239.5"
           sodipodi:cy="417.86218"
           sodipodi:rx="15.5"
           sodipodi:ry="15.5"
           d="M 255,417.86218 A 15.5,15.5 0 1 1 224,417.86218 A 15.5,15.5 0 1 1 255,417.86218 z"
           transform="translate(4,7)" />
        <path
           transform="matrix(0.6129032,0,0,0.6129032,101.70968,169.7531)"
           d="M 255,417.86218 A 15.5,15.5 0 1 1 224,417.86218 A 15.5,15.5 0 1 1 255,417.86218 z"
           sodipodi:ry="15.5"
           sodipodi:rx="15.5"
           sodipodi:cy="417.86218"
           sodipodi:cx="239.5"
           id="path2512"
           style="opacity:1;fill:#000000;fill-opacity:1;stroke:none;stroke-width:4;stroke-linecap:round;stroke-miterlimit:4;stroke-dasharray:none;stroke-opacity:1"
           sodipodi:type="arc" />
      </g>
      <path
         id="path2514"
         d="M 344.95383,659.25875 C 334.92827,669.52852 324.54758,675.67276 321.78264,672.97358 C 319.01771,670.27438 324.91038,659.74886 334.93593,649.47909 C 344.96149,639.20932 355.34218,633.06508 358.10712,635.76426 C 360.87205,638.46346 354.97938,648.98898 344.95383,659.25875 z"
         style="fill:#ffffff;fill-opacity:0.62745098;stroke:none;stroke-width:4;stroke-linecap:round;stroke-miterlimit:4;stroke-opacity:1;filter:url(#filter3730)" />
      <path
         id="path2516"
         d="M 262,501.86218 C 262,509.31418 259.536,515.36218 256.5,515.36218 C 253.464,515.36218 251,509.31418 251,501.86218 C 251,494.41018 253.464,488.36218 256.5,488.36218 C 259.536,488.36218 262,494.41018 262,501.86218 z"
         style="fill:#ffffff;fill-opacity:0.43438912;stroke:none;stroke-width:4;stroke-linecap:round;stroke-miterlimit:4;stroke-opacity:1;filter:url(#filter4065)"
         transform="matrix(0.7712592,0.6365212,-0.6365212,0.7712592,544.06279,191.5354)" />
    </g>
  </g>
</svg>
