<?xml version="1.0" encoding="UTF-8" standalone="no"?>
<!-- Created with Inkscape (http://www.inkscape.org/) -->
<svg
   xmlns:dc="http://purl.org/dc/elements/1.1/"
   xmlns:cc="http://creativecommons.org/ns#"
   xmlns:rdf="http://www.w3.org/1999/02/22-rdf-syntax-ns#"
   xmlns:svg="http://www.w3.org/2000/svg"
   xmlns="http://www.w3.org/2000/svg"
   xmlns:xlink="http://www.w3.org/1999/xlink"
   xmlns:sodipodi="http://sodipodi.sourceforge.net/DTD/sodipodi-0.dtd"
   xmlns:inkscape="http://www.inkscape.org/namespaces/inkscape"
   width="128"
   height="128"
   id="svg2"
   sodipodi:version="0.32"
   inkscape:version="0.45+devel"
   sodipodi:docname="sunglasser.svg"
   inkscape:output_extension="org.inkscape.output.svg.inkscape"
   version="1.0"
   inkscape:export-filename="/home/nicu/Desktop/pacman/pacman.png"
   inkscape:export-xdpi="90"
   inkscape:export-ydpi="90">
  <defs
     id="defs4">
    <linearGradient
       id="linearGradient4072">
      <stop
         style="stop-color:#000000;stop-opacity:1;"
         offset="0"
         id="stop4074" />
      <stop
         style="stop-color:#000000;stop-opacity:0;"
         offset="1"
         id="stop4076" />
    </linearGradient>
    <linearGradient
       id="linearGradient2315">
      <stop
         style="stop-color:#000000;stop-opacity:0;"
         offset="0"
         id="stop2317" />
      <stop
         style="stop-color:#000000;stop-opacity:0.57195574;"
         offset="1"
         id="stop2319" />
    </linearGradient>
    <filter
       inkscape:collect="always"
       id="filter3730"
       x="-0.34801543"
       width="1.6960309"
       y="-0.34084839"
       height="1.6816968">
      <feGaussianBlur
         inkscape:collect="always"
         stdDeviation="5.4650567"
         id="feGaussianBlur3732" />
    </filter>
    <filter
       inkscape:collect="always"
       id="filter4065"
       x="-0.51975077"
       width="2.0395014"
       y="-0.45338511"
       height="1.9067702">
      <feGaussianBlur
         inkscape:collect="always"
         stdDeviation="4.1511594"
         id="feGaussianBlur4067" />
    </filter>
    <filter
       inkscape:collect="always"
       id="filter4112"
       x="-0.070020586"
       width="1.1400412"
       y="-0.34009999"
       height="1.6802">
      <feGaussianBlur
         inkscape:collect="always"
         stdDeviation="3.9678331"
         id="feGaussianBlur4114" />
    </filter>
    <radialGradient
       inkscape:collect="always"
       xlink:href="#linearGradient4072"
       id="radialGradient3547"
       gradientUnits="userSpaceOnUse"
       gradientTransform="matrix(1.4028467,1.6438735e-6,-1.4520791e-7,0.2058824,-89.844917,403.11278)"
       cx="210.88904"
       cy="506.35242"
       fx="210.88904"
       fy="506.35242"
       r="68" />
    <radialGradient
       inkscape:collect="always"
       xlink:href="#linearGradient2315"
       id="radialGradient3549"
       gradientUnits="userSpaceOnUse"
       gradientTransform="matrix(0.7158046,1.4128374,-1.3538472,0.6859177,735.83621,-155.77224)"
       cx="216.99271"
       cy="497.9592"
       fx="216.99271"
       fy="497.9592"
       r="65" />
    <filter
       inkscape:collect="always"
       id="filter3787"
       x="-0.64454764"
       width="2.2890952"
       y="-0.25036898"
       height="1.5007379">
      <feGaussianBlur
         inkscape:collect="always"
         stdDeviation="5.2901447"
         id="feGaussianBlur3789" />
    </filter>
    <radialGradient
       inkscape:collect="always"
       xlink:href="#linearGradient2315"
       id="radialGradient3802"
       cx="326.28122"
       cy="410.90247"
       fx="326.28122"
       fy="410.90247"
       r="13.647186"
       gradientTransform="matrix(1.6069409,4.0768515e-2,-8.3746005e-3,0.3300945,-199.49151,262.80088)"
       gradientUnits="userSpaceOnUse" />
    <radialGradient
       inkscape:collect="always"
       xlink:href="#linearGradient2315"
       id="radialGradient3804"
       cx="540.8233"
       cy="53.65834"
       fx="540.8233"
       fy="53.65834"
       r="10.140256"
       gradientTransform="matrix(1.3541511,0.1282223,-3.1791047e-2,0.3610015,-193.8577,-29.60529)"
       gradientUnits="userSpaceOnUse" />
  </defs>
  <sodipodi:namedview
     id="base"
     pagecolor="#ffffff"
     bordercolor="#666666"
     borderopacity="1.0"
     gridtolerance="10000"
     guidetolerance="10"
     objecttolerance="10"
     inkscape:pageopacity="0.0"
     inkscape:pageshadow="2"
     inkscape:zoom="0.721875"
     inkscape:cx="256"
     inkscape:cy="-20.632199"
     inkscape:document-units="px"
     inkscape:current-layer="layer1"
     showgrid="false"
     inkscape:window-width="937"
     inkscape:window-height="717"
     inkscape:window-x="674"
     inkscape:window-y="205"
     showguides="true"
     inkscape:guide-bbox="true"
     height="640px"
     width="128px">
    <inkscape:grid
       type="xygrid"
       id="grid3194"
       originx="0px"
       originy="0px"
       spacingx="0px"
       spacingy="0px" />
  </sodipodi:namedview>
  <metadata
     id="metadata7">
    <rdf:RDF>
      <cc:Work
         rdf:about="">
        <dc:format>image/svg+xml</dc:format>
        <dc:type
           rdf:resource="http://purl.org/dc/dcmitype/StillImage" />
        <dc:title></dc:title>
        <dc:date></dc:date>
        <dc:creator>
          <cc:Agent>
            <dc:title></dc:title>
          </cc:Agent>
        </dc:creator>
        <dc:rights>
          <cc:Agent>
            <dc:title></dc:title>
          </cc:Agent>
        </dc:rights>
        <dc:publisher>
          <cc:Agent>
            <dc:title></dc:title>
          </cc:Agent>
        </dc:publisher>
        <dc:identifier></dc:identifier>
        <dc:source></dc:source>
        <dc:relation></dc:relation>
        <dc:language></dc:language>
        <dc:subject>
          <rdf:Bag />
        </dc:subject>
        <dc:coverage></dc:coverage>
        <dc:description></dc:description>
        <dc:contributor>
          <cc:Agent>
            <dc:title></dc:title>
          </cc:Agent>
        </dc:contributor>
        <cc:license
           rdf:resource="" />
      </cc:Work>
    </rdf:RDF>
  </metadata>
  <g
     inkscape:label="Layer 1"
     inkscape:groupmode="layer"
     id="layer1"
     transform="translate(-233.42021,-11.73452)">
    <g
       transform="matrix(0.7128664,0,0,0.7128664,148.43114,-234.50134)"
       id="g3519">
      <path
         transform="matrix(1.0588235,0,0,0.8571429,-9.117647,72.480312)"
         style="fill:url(#radialGradient3547);fill-opacity:1;stroke:none;stroke-width:4;stroke-linecap:round;stroke-miterlimit:4;stroke-opacity:1;filter:url(#filter4112)"
         d="M 274,507.36218 C 274,515.09018 243.536,521.36218 206,521.36218 C 168.464,521.36218 138,515.09018 138,507.36218 C 138,499.63418 168.464,493.36218 206,493.36218 C 243.536,493.36218 274,499.63418 274,507.36218 z"
         id="path3521" />
      <path
         transform="translate(-31,-85)"
         style="fill:#7137c8;fill-opacity:1;stroke:none;stroke-width:4;stroke-linecap:round;stroke-miterlimit:4;stroke-opacity:1"
         d="M 305,531.36218 C 305,536.20505 304.46949,568.92477 303.46346,573.46635 C 300.98926,585.92556 292.98013,593.09887 280.95284,595.82909 C 275.3627,596.87193 269.00413,574.00521 262.10328,573.87777 C 255.20242,573.75033 247.75928,596.36218 240,596.36218 C 232.20434,596.36218 224.7278,573.73753 217.7997,573.84256 C 210.87161,573.9476 204.49197,596.78232 198.89011,595.70106 C 186.20634,593.59612 179.57446,584.91986 176.44715,573.05649 C 175.49911,568.64103 175,536.05954 175,531.36218 C 175,495.48218 204.12,466.36218 240,466.36218 C 275.88,466.36218 305,495.48218 305,531.36218 z"
         id="path3523"
         sodipodi:nodetypes="cccsssccssc" />
      <path
         sodipodi:nodetypes="cccsssccssc"
         id="path3525"
         d="M 305,531.36218 C 305,536.20505 304.46949,568.92477 303.46346,573.46635 C 300.98926,585.92556 292.98013,593.09887 280.95284,595.82909 C 275.3627,596.87193 269.00413,574.00521 262.10328,573.87777 C 255.20242,573.75033 247.75928,596.36218 240,596.36218 C 232.20434,596.36218 224.7278,573.73753 217.7997,573.84256 C 210.87161,573.9476 204.49197,596.78232 198.89011,595.70106 C 186.20634,593.59612 179.57446,584.91986 176.44715,573.05649 C 175.49911,568.64103 175,536.05954 175,531.36218 C 175,495.48218 204.12,466.36218 240,466.36218 C 275.88,466.36218 305,495.48218 305,531.36218 z"
         style="fill:url(#radialGradient3549);fill-opacity:1;stroke:none;stroke-width:4;stroke-linecap:round;stroke-miterlimit:4;stroke-opacity:1"
         transform="translate(-31,-85)" />
      <path
         style="fill:#ffffff;fill-opacity:0.62745098;stroke:none;stroke-width:4;stroke-linecap:round;stroke-miterlimit:4;stroke-opacity:1;filter:url(#filter3730)"
         d="M 180.00895,413.25201 C 169.98339,423.52178 159.6027,429.66602 156.83776,426.96684 C 154.07283,424.26764 159.9655,413.74212 169.99105,403.47235 C 180.01661,393.20258 190.3973,387.05834 193.16224,389.75752 C 195.92717,392.45672 190.0345,402.98224 180.00895,413.25201 z"
         id="path3543" />
      <path
         transform="matrix(0.7712592,0.6365212,-0.6365212,0.7712592,379.11791,-54.471338)"
         style="fill:#ffffff;fill-opacity:0.43438912;stroke:none;stroke-width:4;stroke-linecap:round;stroke-miterlimit:4;stroke-opacity:1;filter:url(#filter4065)"
         d="M 262,501.86218 C 262,509.31418 259.536,515.36218 256.5,515.36218 C 253.464,515.36218 251,509.31418 251,501.86218 C 251,494.41018 253.464,488.36218 256.5,488.36218 C 259.536,488.36218 262,494.41018 262,501.86218 z"
         id="path3545" />
      <path
         style="fill:#000000;fill-opacity:1;stroke:none;stroke-width:4;stroke-linecap:round;stroke-miterlimit:4;stroke-opacity:1"
         d="M 270.12205,418.38286 C 242.62318,422.15398 216.33181,423.10757 191.08375,421.6268 L 146.50141,426.27354 C 143.89634,428.12184 142.01266,430.25869 143.12596,433.59433 L 190.77689,430.87643 C 186.20152,457.70152 211.01689,468.38789 228.21378,448.63046 C 229.7849,445.0441 229.48041,441.45773 229.10889,437.87137 C 230.05136,435.49306 233.69145,433.50203 235.9374,436.65104 C 236.31519,440.25202 235.3754,443.85299 238.15472,447.45397 C 256.06657,461.14153 275.43387,448.56583 272.76581,426.93371 C 272.46435,424.48957 270.35258,420.94867 270.12205,418.38286 z"
         id="rect3559"
         sodipodi:nodetypes="cccccccccsc" />
      <path
         id="path3785"
         d="M 223.15749,432.0985 C 213.13193,442.36827 202.75124,448.51251 199.9863,445.81333 C 197.22137,443.11413 203.11404,432.58861 213.13959,422.31884 C 223.16515,412.04907 233.54584,405.90483 236.31078,408.60401 C 239.07571,411.30321 233.18304,421.82873 223.15749,432.0985 z"
         style="fill:#ffffff;fill-opacity:0.47511309;stroke:none;stroke-width:4;stroke-linecap:round;stroke-miterlimit:4;stroke-opacity:1;filter:url(#filter3787)"
         transform="matrix(0.4208891,-0.216714,0.2449481,0.2786177,2.5937516,363.01998)" />
      <path
         transform="matrix(0.4208891,-0.216714,0.2449481,0.2786177,46.982193,362.52402)"
         style="fill:#ffffff;fill-opacity:0.47511309;stroke:none;stroke-width:4;stroke-linecap:round;stroke-miterlimit:4;stroke-opacity:1;filter:url(#filter3787)"
         d="M 223.15749,432.0985 C 213.13193,442.36827 202.75124,448.51251 199.9863,445.81333 C 197.22137,443.11413 203.11404,432.58861 213.13959,422.31884 C 223.16515,412.04907 233.54584,405.90483 236.31078,408.60401 C 239.07571,411.30321 233.18304,421.82873 223.15749,432.0985 z"
         id="path3792"
         inkscape:transform-center-x="41.542523" />
      <rect
         style="opacity:1;fill:#fe8dff;fill-opacity:1;stroke:none;stroke-width:4;stroke-linecap:round;stroke-miterlimit:4;stroke-dasharray:none;stroke-opacity:1"
         id="rect3794"
         width="27.294373"
         height="5.6277056"
         x="315.69855"
         y="410.42648"
         transform="matrix(0.9857263,0.1683557,-0.1683557,0.9857263,0,0)" />
      <rect
         transform="matrix(0.9857263,0.1683557,-0.1683557,0.9857263,0,0)"
         y="410.42648"
         x="315.69852"
         height="5.6277056"
         width="27.294373"
         id="rect3798"
         style="opacity:1;fill:url(#radialGradient3802);fill-opacity:1;stroke:none;stroke-width:4;stroke-linecap:round;stroke-miterlimit:4;stroke-dasharray:none;stroke-opacity:1" />
      <rect
         transform="matrix(0.5924428,0.8056125,-0.8006762,0.5990973,0,0)"
         y="57.434116"
         x="531.0387"
         height="5.6274676"
         width="20.280512"
         id="rect3796"
         style="opacity:1;fill:#fe8dff;fill-opacity:1;stroke:none;stroke-width:4;stroke-linecap:round;stroke-miterlimit:4;stroke-dasharray:none;stroke-opacity:1" />
      <rect
         style="opacity:1;fill:url(#radialGradient3804);fill-opacity:1;stroke:none;stroke-width:4;stroke-linecap:round;stroke-miterlimit:4;stroke-dasharray:none;stroke-opacity:1"
         id="rect3800"
         width="20.280512"
         height="5.6274676"
         x="531.0387"
         y="57.434116"
         transform="matrix(0.5924428,0.8056125,-0.8006762,0.5990973,0,0)" />
    </g>
  </g>
</svg>
